<?xml version="1.0" encoding="UTF-8"?>
<svg width="235px" height="235px" viewBox="0 0 235 235" version="1.1" xmlns="http://www.w3.org/2000/svg" xmlns:xlink="http://www.w3.org/1999/xlink">
    <!-- Generator: Sketch 56.2 (81672) - https://sketch.com -->
    <title>alert</title>
    <desc>Created with Sketch.</desc>
    <g id="Page-1" stroke="none" stroke-width="1" fill="none" fill-rule="evenodd">
        <g id="recnition-animatie-inverted" transform="translate(-260.000000, -255.000000)">
            <g id="alert" transform="translate(260.700000, 255.900000)">
                <path d="M54.8,182.7 C39.8,194 37.1,219 37.1,219 L30,219 C24,205 17.2,198.9 17.2,198.9 L25.4,198.9 C25.4,198.9 30,205.2 32,210.5 C32,210.5 37.3,190.2 51.1,179.7 L54.8,182.7 Z" id="Path" fill="#E2E2E4" fill-rule="nonzero"></path>
                <circle id="Oval" stroke="#E2E2E4" cx="119.3" cy="172.2" r="7.1"></circle>
                <circle id="Oval" stroke="#E2E2E4" cx="119.2" cy="172" r="4.8"></circle>
                <path d="M158.5,160.8 C159.8,161.5 161.1,162.2 162.3,162.8 L162.3,142.2 C161,141.8 159.7,141.3 158.5,140.7 L158.5,160.8 Z" id="Path"></path>
                <path d="M154.6,161.6 L80.1,161.6 L80.1,46.7 L158.5,46.7 L158.5,137.9 C159.7,138.5 161,139.1 162.3,139.6 L162.3,39.4 L76.1,39.4 L76.1,183.2 L162.3,183.2 L162.3,165.7 L162.1,165.6 C159.8,164.3 157.2,163 154.6,161.6 Z" id="Path"></path>
                <path d="M165,72.3 L165.3,73.1 L165.3,36.4 L73.1,36.4 L73.1,186.2 L162.6,186.2 C162.5,185.5 162.3,184.8 162.2,184.1 C161.9,182.5 164.3,181.9 164.6,183.4 C164.8,184.3 165,185.2 165.2,186.1 L165.3,186.1 L165.3,143.1 C164.3,142.8 163.3,142.6 162.3,142.2 L162.3,162.8 L163.4,163.4 C164,163.8 164.1,164.6 163.8,165.1 C163.5,165.6 162.9,165.8 162.3,165.6 L162.3,183.1 L76.1,183.1 L76.1,39.4 L162.3,39.4 L162.3,139.6 C163.3,140 164.3,140.3 165.3,140.6 L165.3,79.9 C164.4,77.6 163.5,75.3 162.6,73 C162,71.5 164.4,70.8 165,72.3 Z" id="Path" fill="#FFFFFF" fill-rule="nonzero"></path>
                <path d="M80.1,46.7 L80.1,161.6 L154.6,161.6 C153.4,161 152.1,160.3 150.9,159.6 L82.1,159.6 L82.1,48.7 L156.5,48.7 L156.5,136.8 C157.2,137.2 157.8,137.6 158.5,137.9 L158.5,46.7 L80.1,46.7 L80.1,46.7 Z" id="Path" fill="#FFFFFF" fill-rule="nonzero"></path>
                <path d="M169.7,144.1 C171.3,144.3 172,141.9 170.4,141.7 C168.7,141.4 167,141.1 165.3,140.6 L165.3,143.2 C166.8,143.5 168.2,143.8 169.7,144.1 Z" id="Path" fill="#FFFFFF" fill-rule="nonzero"></path>
                <path d="M158.5,137.9 L158.5,140.8 C159.7,141.4 161,141.9 162.3,142.3 L162.3,139.6 C161,139.1 159.7,138.5 158.5,137.9 Z" id="Path" fill="#FFFFFF" fill-rule="nonzero"></path>
                <path d="M158.5,161.6 L154.6,161.6 C157.2,163 159.8,164.3 162.2,165.7 L162.4,165.8 L162.4,162.9 C161.2,162.2 159.9,161.5 158.6,160.9 L158.6,161.6 L158.5,161.6 Z" id="Path" fill="#FFFFFF" fill-rule="nonzero"></path>
                <path d="M162.3,142.3 C163.3,142.6 164.3,142.9 165.3,143.2 L165.3,140.6 C164.3,140.3 163.3,140 162.3,139.6 L162.3,142.3 Z" id="Path" fill="#FFFFFF" fill-rule="nonzero"></path>
                <path d="M163.4,163.5 L162.3,162.9 L162.3,165.8 C162.9,166 163.7,165.7 163.9,165 C164.1,164.4 163.9,163.8 163.4,163.5 Z" id="Path" fill="#FFFFFF" fill-rule="nonzero"></path>
                <path d="M150.9,159.6 C152.1,160.3 153.4,161 154.6,161.6 L158.5,161.6 L158.5,160.9 L156.1,159.6 L150.9,159.6 Z" id="Path" fill="#FFFFFF" fill-rule="nonzero"></path>
                <path d="M156.5,139.8 C157.2,140.1 157.8,140.4 158.5,140.7 L158.5,137.8 C157.8,137.4 157.2,137.1 156.5,136.7 L156.5,139.8 Z" id="Path" fill="#FFFFFF" fill-rule="nonzero"></path>
                <path d="M220.7,232.2 C215,217.6 207.8,203.7 200.7,189.8 C197,182.6 193.5,175.4 190.1,168.1 C186.9,161 183.1,153.5 181.8,145.7 C180.8,139.8 181.5,133.5 181.6,127.6 C181.6,122.2 180.8,116.8 179.3,111.6 C175.7,98.4 170.2,85.8 165.3,73.1 L165.3,79.9 C169.5,90.5 173.9,101.2 176.9,112.3 C178.5,118.2 179.2,124.3 179.1,130.4 C179,135.7 178.5,141.2 179.5,146.5 C180.7,153.3 183.7,159.9 186.5,166.2 C189.8,173.5 193.2,180.7 196.8,187.8 C204.3,202.7 212.2,217.3 218.2,232.9 C218.9,234.3 221.3,233.7 220.7,232.2 Z" id="Path" fill="#FFFFFF" fill-rule="nonzero"></path>
                <path d="M165,72.3 C164.4,70.8 162,71.4 162.6,73 C163.5,75.3 164.4,77.6 165.3,79.9 L165.3,73.1 L165,72.3 Z" id="Path" fill="#FFFFFF" fill-rule="nonzero"></path>
                <path d="M168.8,231.3 C168.9,232.9 171.4,232.9 171.3,231.3 C170.3,216.2 168.2,201.1 165.2,186.2 L162.7,186.2 C165.7,201.1 167.8,216.2 168.8,231.3 Z" id="Path" fill="#FFFFFF" fill-rule="nonzero"></path>
                <path d="M162.2,184.2 C162.4,184.9 162.5,185.6 162.6,186.3 L165.2,186.3 C165,185.4 164.8,184.5 164.6,183.6 C164.3,181.9 161.9,182.6 162.2,184.2 Z" id="Path" fill="#FFFFFF" fill-rule="nonzero"></path>
                <path d="M164.2,149.5 C163.3,149.3 162.4,148.9 161.7,148.3 L159.1,152.6 C161.9,153.9 164.7,155.1 167.6,156.1 C170.6,157.2 171.9,152.3 168.9,151.3 C166.4,150.4 163.9,149.4 161.6,148.3 C160.4,147.6 158.9,148 158.2,149.2 C157.5,150.4 157.9,151.9 159.1,152.6 C160.2,153.4 161.5,153.9 162.8,154.3 C165.9,155.1 167.3,150.2 164.2,149.5 L164.2,149.5 Z" id="Path" fill="#FFFFFF" fill-rule="nonzero"></path>
                <path d="M169.3,150.5 C168,149.4 166.6,148.4 165.3,147.3 C164.5,146.7 163.2,145.8 163.1,144.6 L159.9,147 L168.3,149.3 C171.4,150.2 172.7,145.3 169.6,144.5 L161.2,142.2 C159.9,141.8 158.5,142.6 158.1,144 C158,144.2 158,144.4 158,144.6 C158.3,149.1 162.5,151.5 165.7,154 C166.7,154.9 168.2,154.9 169.2,154 C170.2,153 170.2,151.5 169.3,150.5 L169.3,150.5 Z" id="Path" fill="#FFFFFF" fill-rule="nonzero"></path>
                <path d="M169,151 C166.2,150.9 160.8,147.8 160.4,152.6 C160,156.6 164.5,158.3 166.7,160.8 L169.1,156.6 C165.2,155.8 161.3,154.8 157.4,153.7 C155.1,153.1 153.7,155.5 154.6,157.4 C155.6,159.5 158.1,160.7 160.1,162 C162.4,163.5 164.7,165.2 167.4,165.9 C170.5,166.7 171.9,161.9 168.7,161.1 C166.7,160.6 165,159.2 163.3,158.1 C162,157.2 159.6,156.3 158.9,154.8 L156.1,158.5 C160,159.6 163.9,160.6 167.8,161.4 C169.1,161.8 170.5,161 170.9,159.7 C171.2,158.8 170.9,157.8 170.2,157.2 C169.4,156.4 168.6,155.6 167.7,155 C167.2,154.6 165.6,152.9 165.2,153.5 L163.7,154.6 C162.9,154.7 162.9,154.6 163.7,155 C164.3,155.3 164.9,155.4 165.6,155.5 C166.7,155.7 167.9,155.9 169,155.9 C172.3,156.1 172.3,151.1 169,151 L169,151 Z" id="Path" fill="#FFFFFF" fill-rule="nonzero"></path>
                <path d="M82.1,59.2 L156.7,59.2" id="Path" stroke="#E2E2E4"></path>
                <path d="M102.4,66.8 C102.2,66.6 102,66.4 101.8,66.3 C101.6,66.2 101.3,66.1 101,66.1 C100.7,66.1 100.4,66.2 100.1,66.3 C99.8,66.4 99.6,66.6 99.4,66.8 C99.2,67 99.1,67.3 99,67.5 C98.9,67.8 98.8,68.1 98.8,68.4 C98.8,68.7 98.8,69 99,69.2 C99.1,69.5 99.2,69.7 99.4,69.9 C99.6,70.1 99.8,70.3 100.1,70.4 C100.4,70.5 100.7,70.6 101,70.6 C101.3,70.6 101.6,70.5 101.8,70.4 C102,70.3 102.3,70.1 102.4,69.9 L103,70.4 C102.9,70.5 102.9,70.6 102.8,70.7 C102.7,70.8 102.5,70.9 102.4,71 C102.2,71.1 102,71.2 101.8,71.3 C101.5,71.4 101.2,71.4 101,71.4 C100.6,71.4 100.2,71.3 99.8,71.1 C99.5,70.9 99.1,70.7 98.9,70.4 C98.7,70.1 98.5,69.8 98.3,69.5 C98.2,69.2 98.1,68.8 98.1,68.5 C98.1,68.1 98.2,67.7 98.3,67.3 C98.6,66.6 99.1,66 99.8,65.7 C100.2,65.5 100.6,65.5 101,65.5 C101.4,65.5 101.7,65.6 102.1,65.7 C102.4,65.8 102.7,66.1 103,66.4 L102.4,66.8 Z" id="Path" fill="#E2E2E4" fill-rule="nonzero"></path>
                <path d="M103.7,69.4 C103.7,69.1 103.7,68.9 103.9,68.6 C104,68.4 104.1,68.2 104.3,68 C104.5,67.8 104.7,67.7 104.9,67.6 C105.4,67.4 106,67.4 106.5,67.6 C106.7,67.7 106.9,67.8 107.1,68 C107.3,68.2 107.4,68.4 107.5,68.6 C107.6,68.8 107.7,69.1 107.7,69.4 C107.7,69.7 107.7,69.9 107.5,70.2 C107.4,70.4 107.3,70.6 107.1,70.8 C106.3,71.6 105.1,71.6 104.3,70.8 C104.3,70.8 104.3,70.8 104.3,70.8 C104.1,70.6 104,70.4 103.9,70.2 C103.7,69.9 103.7,69.6 103.7,69.4 Z M104.4,69.4 C104.4,69.6 104.4,69.8 104.5,69.9 C104.6,70.1 104.6,70.2 104.8,70.3 C104.9,70.4 105,70.5 105.2,70.6 C105.5,70.7 105.9,70.7 106.2,70.6 C106.3,70.5 106.5,70.4 106.6,70.3 C106.7,70.2 106.8,70 106.8,69.9 C106.9,69.6 106.9,69.2 106.8,68.8 C106.7,68.6 106.7,68.5 106.6,68.4 C106.5,68.3 106.4,68.2 106.2,68.1 C105.9,68 105.5,68 105.2,68.1 C105.1,68.2 104.9,68.3 104.8,68.4 C104.7,68.5 104.6,68.7 104.5,68.8 C104.5,69 104.4,69.2 104.4,69.4 Z" id="Shape" fill="#E2E2E4" fill-rule="nonzero"></path>
                <path d="M108.6,67.5 L109.3,67.5 L109.3,68.1 L109.3,68.1 C109.4,67.9 109.6,67.7 109.8,67.6 C110,67.5 110.3,67.4 110.6,67.4 C110.8,67.4 111,67.4 111.1,67.5 C111.3,67.6 111.4,67.6 111.5,67.8 C111.6,67.9 111.7,68.1 111.8,68.3 C111.9,68.5 111.9,68.7 111.9,68.9 L111.9,71.3 L111.2,71.3 L111.2,69.1 C111.2,68.9 111.2,68.8 111.1,68.6 C111.1,68.5 111,68.4 110.9,68.3 C110.8,68.2 110.7,68.2 110.6,68.1 C110.5,68.1 110.4,68.1 110.3,68.1 C110.2,68.1 110,68.1 109.9,68.2 C109.8,68.2 109.7,68.3 109.6,68.4 C109.5,68.5 109.4,68.6 109.4,68.8 C109.3,69 109.3,69.2 109.3,69.4 L109.3,71.3 L108.6,71.3 L108.6,67.5 Z" id="Path" fill="#E2E2E4" fill-rule="nonzero"></path>
                <path d="M113.3,68.1 L112.5,68.1 L112.5,67.5 L113.3,67.5 L113.3,66.7 C113.3,66.3 113.4,65.9 113.6,65.6 C113.9,65.3 114.2,65.2 114.6,65.2 L114.9,65.2 C115,65.2 115.1,65.2 115.2,65.2 L115.1,65.8 C115,65.8 115,65.8 114.9,65.7 L114.7,65.7 C114.6,65.7 114.5,65.7 114.4,65.8 C114.3,65.8 114.3,65.9 114.2,66 C114.2,66.1 114.1,66.2 114.1,66.3 C114.1,66.4 114.1,66.5 114.1,66.7 L114.1,67.6 L114.9,67.6 L114.9,68.2 L114,68.2 L114,71.3 L113.3,71.3 L113.3,68.1 Z" id="Path" fill="#E2E2E4" fill-rule="nonzero"></path>
                <path d="M115.5,66.1 C115.5,66 115.6,65.8 115.7,65.7 C115.8,65.6 115.9,65.5 116.1,65.6 C116.2,65.6 116.4,65.7 116.5,65.7 C116.6,65.8 116.7,65.9 116.7,66.1 C116.7,66.4 116.5,66.6 116.2,66.6 C115.8,66.6 115.5,66.4 115.5,66.1 C115.5,66.1 115.5,66.1 115.5,66.1 L115.5,66.1 Z M115.7,67.5 L116.4,67.5 L116.4,71.3 L115.7,71.3 L115.7,67.5 Z" id="Shape" fill="#E2E2E4" fill-rule="nonzero"></path>
                <path d="M121.3,71.2 L120.6,71.2 L120.6,70.7 L120.6,70.7 C120.5,70.9 120.3,71.1 120,71.2 C119.8,71.3 119.5,71.4 119.3,71.4 C119,71.4 118.8,71.4 118.5,71.3 C118.3,71.2 118.1,71.1 117.9,70.9 C117.7,70.7 117.6,70.5 117.5,70.3 C117.3,69.8 117.3,69.2 117.5,68.7 C117.6,68.5 117.7,68.3 117.9,68.1 C118.1,67.9 118.3,67.8 118.5,67.7 C118.8,67.6 119,67.5 119.3,67.6 C119.6,67.6 119.8,67.7 120.1,67.8 C120.3,67.9 120.5,68.1 120.6,68.3 L120.6,68.3 L120.6,65.5 L121.3,65.5 L121.3,71.2 L121.3,71.2 Z M119.3,70.7 C119.5,70.7 119.7,70.7 119.8,70.6 C119.9,70.5 120.1,70.4 120.2,70.3 C120.3,70.2 120.4,70 120.5,69.9 C120.6,69.6 120.6,69.2 120.5,68.8 C120.4,68.6 120.4,68.5 120.2,68.4 C120.1,68.3 120,68.2 119.8,68.1 C119.6,68 119.5,68 119.3,68 C119.1,68 119,68 118.8,68.1 C118.7,68.2 118.5,68.3 118.4,68.4 C118.3,68.5 118.2,68.7 118.1,68.8 C118,69.1 118,69.5 118.1,69.9 C118.2,70.1 118.2,70.2 118.4,70.3 C118.5,70.4 118.6,70.5 118.8,70.6 C119,70.6 119.2,70.7 119.3,70.7 L119.3,70.7 Z" id="Shape" fill="#E2E2E4" fill-rule="nonzero"></path>
                <path d="M122.9,69.6 C122.9,69.8 122.9,69.9 123,70.1 C123.1,70.2 123.2,70.4 123.3,70.5 C123.4,70.6 123.6,70.7 123.7,70.7 C123.9,70.8 124,70.8 124.2,70.8 C124.4,70.8 124.6,70.8 124.8,70.6 C125,70.5 125.1,70.4 125.3,70.2 L125.8,70.6 C125.4,71.1 124.8,71.4 124.1,71.4 C123.8,71.4 123.6,71.4 123.3,71.3 C123.1,71.2 122.9,71.1 122.7,70.9 C122.5,70.7 122.4,70.5 122.3,70.3 C122.1,69.8 122.1,69.2 122.3,68.7 C122.4,68.5 122.5,68.3 122.7,68.1 C123.1,67.7 123.6,67.5 124.1,67.5 C124.4,67.5 124.7,67.6 124.9,67.7 C125.1,67.8 125.3,68 125.5,68.2 C125.6,68.4 125.8,68.6 125.8,68.8 C125.9,69 125.9,69.3 125.9,69.5 L125.9,69.8 L122.9,69.8 L122.9,69.6 Z M125.2,69 C125.2,68.9 125.2,68.7 125.1,68.6 C125.1,68.5 125,68.4 124.9,68.3 C124.8,68.2 124.7,68.1 124.6,68.1 C124.5,68 124.3,68 124.1,68 C123.9,68 123.8,68 123.6,68.1 C123.5,68.2 123.3,68.3 123.2,68.4 C123.1,68.5 123,68.6 123,68.8 C122.9,68.9 122.9,69 122.9,69.2 L125.2,69.2 L125.2,69 Z" id="Shape" fill="#E2E2E4" fill-rule="nonzero"></path>
                <path d="M126.8,67.5 L127.5,67.5 L127.5,68.1 L127.5,68.1 C127.6,67.9 127.8,67.7 128,67.6 C128.2,67.5 128.5,67.4 128.8,67.4 C129,67.4 129.2,67.4 129.3,67.5 C129.5,67.5 129.6,67.6 129.7,67.8 C129.8,67.9 129.9,68.1 130,68.3 C130.1,68.5 130.1,68.7 130.1,68.9 L130.1,71.3 L129.4,71.3 L129.4,69.1 C129.4,68.9 129.4,68.8 129.3,68.6 C129.2,68.4 129.1,68.2 128.8,68.1 C128.7,68.1 128.6,68.1 128.5,68.1 C128.4,68.1 128.2,68.1 128.1,68.2 C128,68.3 127.9,68.3 127.8,68.4 C127.7,68.5 127.6,68.6 127.6,68.8 C127.5,69 127.5,69.2 127.5,69.4 L127.5,71.3 L126.8,71.3 L126.8,67.5 Z" id="Path" fill="#E2E2E4" fill-rule="nonzero"></path>
                <path d="M133.9,68.5 C133.8,68.4 133.6,68.3 133.5,68.2 C133.3,68.1 133.2,68.1 133,68.1 C132.8,68.1 132.6,68.1 132.5,68.2 C132.4,68.3 132.2,68.4 132.1,68.5 C132,68.6 131.9,68.8 131.9,68.9 C131.8,69.1 131.8,69.2 131.8,69.4 C131.8,69.7 131.9,70.1 132.1,70.3 C132.2,70.4 132.3,70.5 132.5,70.6 C132.7,70.7 132.8,70.7 133,70.7 C133.2,70.7 133.4,70.7 133.5,70.6 C133.7,70.5 133.8,70.4 133.9,70.3 L134.4,70.8 C134.2,71 134,71.2 133.7,71.2 C133.2,71.4 132.6,71.4 132.1,71.2 C131.9,71.1 131.7,71 131.5,70.8 C131.3,70.6 131.2,70.4 131.1,70.2 C131,69.9 131,69.7 131,69.4 C131,69.1 131,68.9 131.1,68.6 C131.2,68.4 131.3,68.2 131.5,68 C131.7,67.8 131.9,67.7 132.1,67.6 C132.4,67.5 132.6,67.4 132.9,67.5 C133.2,67.5 133.4,67.6 133.7,67.6 C133.9,67.7 134.2,67.9 134.4,68.1 L133.9,68.5 Z" id="Path" fill="#E2E2E4" fill-rule="nonzero"></path>
                <path d="M135.6,69.6 C135.6,69.8 135.6,69.9 135.7,70.1 C135.8,70.2 135.9,70.4 136,70.5 C136.1,70.6 136.3,70.7 136.4,70.7 C136.6,70.8 136.7,70.8 136.9,70.8 C137.1,70.8 137.3,70.8 137.5,70.6 C137.7,70.5 137.8,70.4 138,70.2 L138.5,70.6 C138.1,71.1 137.5,71.4 136.8,71.4 C136.5,71.4 136.3,71.4 136,71.3 C135.8,71.2 135.6,71.1 135.4,70.9 C135.2,70.7 135.1,70.5 135,70.3 C134.9,70 134.9,69.8 134.9,69.5 C134.9,69.2 134.9,69 135,68.7 C135.1,68.5 135.2,68.3 135.4,68.1 C135.6,67.9 135.8,67.8 136,67.7 C136.2,67.6 136.5,67.5 136.8,67.6 C137.1,67.6 137.4,67.7 137.6,67.8 C137.8,67.9 138,68.1 138.2,68.3 C138.4,68.5 138.5,68.7 138.5,68.9 C138.6,69.1 138.6,69.4 138.6,69.6 L138.6,69.9 L135.6,69.9 L135.6,69.6 Z M137.9,69 C137.9,68.9 137.9,68.7 137.8,68.6 C137.8,68.5 137.7,68.4 137.6,68.3 C137.5,68.2 137.4,68.1 137.3,68.1 C137.2,68 137,68 136.8,68 C136.6,68 136.5,68 136.3,68.1 C136.2,68.2 136,68.3 135.9,68.4 C135.8,68.5 135.7,68.6 135.7,68.8 C135.6,68.9 135.6,69 135.6,69.2 L137.9,69.2 L137.9,69 Z" id="Shape" fill="#E2E2E4" fill-rule="nonzero"></path>
                <path d="M112.7,80.9 C112.5,80.9 112.2,80.9 112,80.8 C111.8,80.7 111.6,80.6 111.4,80.5 C111.2,80.4 111.1,80.2 111,80 C110.9,79.8 110.9,79.5 110.9,79.3 C110.9,79.1 110.9,79 111,78.8 C111.1,78.7 111.1,78.5 111.2,78.4 C111.3,78.3 111.4,78.2 111.5,78.1 C111.6,78 111.8,78 111.9,77.9 L111.9,77.9 C111.8,77.9 111.7,77.8 111.6,77.8 C111.5,77.7 111.4,77.6 111.3,77.5 C111.2,77.4 111.1,77.2 111.1,77.1 C111,76.9 111,76.8 111,76.6 C111,76.4 111,76.2 111.1,76 C111.2,75.8 111.3,75.7 111.5,75.6 C111.7,75.5 111.8,75.4 112,75.3 C112.4,75.2 112.8,75.2 113.3,75.3 C113.5,75.4 113.7,75.5 113.8,75.6 C113.9,75.7 114.1,75.9 114.1,76 C114.2,76.2 114.2,76.4 114.2,76.6 C114.2,76.8 114.2,77 114.1,77.1 C114.1,77.2 114,77.4 113.9,77.5 C113.8,77.6 113.7,77.7 113.6,77.8 C113.5,77.9 113.4,77.9 113.3,77.9 L113.3,77.9 C113.5,77.9 113.6,78 113.7,78.1 C113.8,78.2 113.9,78.3 114,78.4 C114.1,78.5 114.2,78.7 114.2,78.8 C114.3,79 114.3,79.1 114.3,79.3 C114.3,79.5 114.3,79.8 114.1,80 C114,80.2 113.9,80.4 113.7,80.5 C113.5,80.6 113.3,80.8 113.1,80.8 C113.2,80.8 113,80.9 112.7,80.9 Z M112.7,80.2 C113,80.2 113.3,80.1 113.5,79.9 C113.7,79.7 113.8,79.4 113.8,79.1 C113.8,78.9 113.8,78.8 113.7,78.6 C113.6,78.5 113.6,78.4 113.5,78.3 C113.4,78.2 113.3,78.1 113.2,78.1 C113.1,78.1 112.9,78 112.8,78 C112.5,78 112.2,78.1 112,78.3 C111.8,78.5 111.7,78.8 111.7,79 C111.7,79.2 111.7,79.3 111.8,79.4 C111.8,79.5 111.9,79.6 112,79.7 C112.1,79.8 112.2,79.9 112.3,79.9 C112.5,80.2 112.6,80.2 112.7,80.2 Z M111.9,76.6 C111.9,76.7 111.9,76.8 112,76.9 C112,77 112.1,77.1 112.2,77.2 C112.3,77.3 112.4,77.4 112.5,77.4 C112.6,77.5 112.7,77.5 112.9,77.5 C113,77.5 113.2,77.5 113.3,77.4 C113.4,77.4 113.5,77.3 113.6,77.2 C113.7,77.1 113.7,77 113.8,76.9 C113.8,76.8 113.8,76.7 113.8,76.6 C113.8,76.4 113.7,76.1 113.6,76 C113.4,75.8 113.2,75.7 113,75.7 C112.8,75.7 112.5,75.8 112.4,76 C111.9,76.1 111.8,76.3 111.9,76.6 L111.9,76.6 Z" id="Shape" fill="#E2E2E4" fill-rule="nonzero"></path>
                <path d="M115.3,80 L117.6,77.8 C117.7,77.7 117.8,77.6 117.8,77.6 L118,77.3 C118.1,77.2 118.1,77.1 118.1,77 C118.1,76.9 118.1,76.8 118.1,76.7 C118.1,76.6 118.1,76.4 118,76.3 C118,76.2 117.9,76.1 117.8,76 C117.7,75.9 117.6,75.9 117.5,75.8 C117.4,75.8 117.2,75.7 117.1,75.7 C116.6,75.7 116.2,76.1 116.1,76.6 L115.3,76.5 C115.3,76.3 115.4,76.1 115.5,75.9 C115.6,75.7 115.7,75.6 115.9,75.4 C116.1,75.3 116.3,75.2 116.5,75.1 C116.7,75 117,75 117.2,75 C117.4,75 117.7,75 117.9,75.1 C118.1,75.2 118.3,75.3 118.5,75.4 C118.7,75.5 118.8,75.7 118.9,75.9 C119,76.1 119,76.3 119,76.6 C119,76.8 119,77 118.9,77.1 C118.8,77.3 118.8,77.4 118.7,77.6 C118.6,77.7 118.5,77.9 118.4,78 L118,78.4 L116.2,80.2 L119,80.2 L119,80.9 L115.3,80.9 L115.3,80 Z" id="Path" fill="#E2E2E4" fill-rule="nonzero"></path>
                <path d="M119.7,76.4 C119.7,75.8 120,75.3 120.6,75.1 C120.8,75 121,75 121.1,75 C121.3,75 121.5,75 121.6,75.1 C121.8,75.2 121.9,75.3 122.1,75.4 C122.2,75.5 122.3,75.7 122.4,75.9 C122.5,76.1 122.5,76.3 122.5,76.4 C122.5,76.6 122.5,76.8 122.4,76.9 C122.3,77.2 122,77.5 121.6,77.7 C121.3,77.8 120.9,77.8 120.5,77.7 C120.3,77.6 120.2,77.5 120,77.4 C119.9,77.3 119.8,77.1 119.7,76.9 C119.7,76.8 119.7,76.6 119.7,76.4 Z M120.3,76.4 C120.3,76.6 120.4,76.8 120.5,77 C120.6,77.1 120.9,77.2 121.1,77.2 C121.3,77.2 121.5,77.1 121.7,77 C121.9,76.9 121.9,76.7 121.9,76.4 C121.9,76.2 121.8,76 121.7,75.8 C121.6,75.7 121.3,75.6 121.1,75.6 C120.9,75.6 120.7,75.7 120.5,75.8 C120.4,76 120.3,76.2 120.3,76.4 Z M121.2,81 L120.7,80.7 L124.2,74.8 L124.7,75 L121.2,81 Z M123,79.5 C123,79.3 123,79.1 123.1,79 C123.2,78.7 123.5,78.4 123.8,78.3 C124,78.2 124.2,78.2 124.3,78.2 C124.5,78.2 124.7,78.2 124.8,78.3 C125,78.4 125.1,78.5 125.2,78.6 C125.3,78.7 125.4,78.9 125.5,79 C125.6,79.4 125.6,79.7 125.5,80.1 C125.3,80.4 125.1,80.7 124.7,80.9 C124.5,81 124.3,81 124.2,81 C124,81 123.8,81 123.7,80.9 C123.5,80.8 123.4,80.7 123.3,80.6 C123.2,80.5 123.1,80.3 123,80.2 C123.1,79.9 123,79.7 123,79.5 L123,79.5 Z M123.7,79.5 C123.7,79.7 123.8,79.9 123.9,80.1 C124.2,80.4 124.7,80.4 125,80.1 C125.3,79.8 125.3,79.3 125,79 C124.7,78.7 124.2,78.7 123.9,79 C123.7,79.1 123.6,79.3 123.7,79.5 L123.7,79.5 Z" id="Shape" fill="#E2E2E4" fill-rule="nonzero"></path>
                <path d="M3,231 L231,231 L231,3 L3,3 L3,231 Z M82,48.7 L156.4,48.7 L156.4,159.6 L82,159.6 L82,48.7 Z" id="Shape"></path>
                <path d="M-2.84217094e-14,0 L-2.84217094e-14,234 L234,234 L234,0 L-2.84217094e-14,0 Z M231,231 L3,231 L3,3 L231,3 L231,231 Z" id="Shape" fill="#FFFFFF" fill-rule="nonzero"></path>
                <path d="M135.5,147.3 C133.3,144.2 131.7,140.8 130.5,137.2 L89.8,137.2 L89.8,85.6 L149.3,85.6 L149.3,131.4 C151.5,133.4 153.9,135.2 156.5,136.8 L156.5,48.7 L82.1,48.7 L82.1,159.6 L150.9,159.6 C145,156.3 139.3,152.6 135.5,147.3 Z" id="Path"></path>
                <path d="M128.6,123.1 C131.4,115.7 139.8,120.8 143,124.7 C144.6,126.7 146.4,128.7 148.3,130.5 L148.3,86.7 L90.9,86.7 L90.9,136.3 L130.3,136.3 C130.2,136 130.1,135.7 130,135.4 C129,131.8 127.2,126.7 128.6,123.1 Z" id="Path"></path>
                <path d="M133.3,137.6 C133.3,137.5 133.2,137.4 133.2,137.2 L130.6,137.2 C131.7,140.8 133.4,144.2 135.6,147.3 C139.4,152.5 145.1,156.3 150.9,159.5 L156.1,159.5 C150.3,156.4 144.2,153.1 139.9,148.6 C136.9,145.5 134.7,141.7 133.3,137.6 Z" id="Path" fill="#FFFFFF" fill-rule="nonzero"></path>
                <path d="M130.6,126.1 C131.7,118.3 137.7,122.6 139.8,124.8 C140.9,126 141.8,127.4 142.9,128.7 C144.5,130.7 146.3,132.6 148.3,134.3 L148.3,130.5 C146.4,128.7 144.6,126.8 143,124.7 C139.8,120.8 131.5,115.7 128.6,123.1 C127.2,126.7 129,131.8 130,135.3 C130.1,135.6 130.2,135.9 130.3,136.2 L132.9,136.2 C131.7,133.1 130.2,129 130.6,126.1 Z" id="Path" fill="#FFFFFF" fill-rule="nonzero"></path>
                <path d="M149.3,135.1 L149.7,135.5 C151.8,137.2 154.1,138.6 156.5,139.9 L156.5,136.8 C153.9,135.3 151.5,133.5 149.3,131.4 L149.3,135.1 L149.3,135.1 Z" id="Path" fill="#FFFFFF" fill-rule="nonzero"></path>
                <path d="M90.8,136.2 L90.8,86.6 L148.3,86.6 L148.3,130.4 L149.3,131.3 L149.3,85.5 L89.9,85.5 L89.9,137.1 L130.6,137.1 C130.5,136.8 130.4,136.4 130.3,136.1 L90.8,136.2 Z" id="Path" fill="#FFFFFF" fill-rule="nonzero"></path>
                <path d="M132.8,136.2 L130.3,136.2 C130.4,136.5 130.5,136.9 130.6,137.2 L133.2,137.2 C133.1,136.9 133,136.6 132.8,136.2 Z" id="Path" fill="#FFFFFF" fill-rule="nonzero"></path>
                <path d="M148.3,134.3 C148.6,134.6 149,134.9 149.3,135.1 L149.3,131.4 L148.3,130.5 L148.3,134.3 Z" id="Path" fill="#FFFFFF" fill-rule="nonzero"></path>
                <path d="M117.2,130.7 C108.4,130.7 101.2,122.4 101.2,112.1 C101.2,101.8 108.4,93.5 117.2,93.5 C126,93.5 133.2,101.8 133.2,112.1 C133.2,122.4 126,130.7 117.2,130.7 Z M117.2,94.9 C109.2,94.9 102.7,102.6 102.7,112 C102.7,121.4 109.2,129.1 117.2,129.1 C125.2,129.1 131.7,121.4 131.7,112 C131.7,102.6 125.2,94.9 117.2,94.9 Z" id="Shape" fill="#E2E2E4" fill-rule="nonzero"></path>
                <circle id="Oval" fill="#E2E2E4" fill-rule="nonzero" cx="109.1" cy="111.6" r="1"></circle>
                <circle id="Oval" fill="#E2E2E4" fill-rule="nonzero" cx="125.3" cy="111.6" r="1"></circle>
                <path d="M112.6,125.1 C113.1,124.6 113.7,124.3 114.3,124.1 C114.9,123.9 115.6,123.7 116.2,123.6 C116.9,123.5 117.6,123.6 118.2,123.8 C118.4,123.9 118.5,123.9 118.7,124 L119.2,124.3 C119.3,124.4 119.5,124.6 119.6,124.7 C119.7,124.9 119.8,125 119.8,125.2 C119.2,125 118.6,124.9 118,125 C117.4,125 116.9,125.1 116.3,125.1 C115.7,125.1 115.1,125.2 114.5,125.2 C113.9,125.2 113.2,125.2 112.6,125.1 Z" id="Path" fill="#E2E2E4" fill-rule="nonzero"></path>
                <path d="M123.6,122 L109.4,122 L110.2,120.9 C111.7,118.6 113.6,117.4 115.7,117.3 C119.5,117.1 122.6,120.7 122.7,120.9 L123.6,122 Z M112.3,120.6 L120.3,120.6 C119.1,119.4 117.4,118.8 115.7,118.7 C114.3,118.8 113.1,119.5 112.3,120.6 Z" id="Shape" fill="#E2E2E4" fill-rule="nonzero"></path>
                <circle id="Oval" fill="#E51C20" fill-rule="nonzero" cx="109.6" cy="145.2" r="2.2"></circle>
            </g>
        </g>
    </g>
</svg>