<?xml version="1.0" encoding="UTF-8"?>
<svg width="495px" height="493px" viewBox="0 0 495 493" version="1.1" xmlns="http://www.w3.org/2000/svg" xmlns:xlink="http://www.w3.org/1999/xlink">
    <!-- Generator: Sketch 56.2 (81672) - https://sketch.com -->
    <title>recnition-animatie-inverted</title>
    <desc>Created with Sketch.</desc>
    <g id="Page-1" stroke="none" stroke-width="1" fill="none" fill-rule="evenodd">
        <g id="recnition-animatie-inverted" transform="translate(0.000000, 1.000000)">
            <rect id="Rectangle" stroke="#E2E2E4" stroke-width="3" x="262.2" y="0.8" width="231" height="231"></rect>
            <rect id="Rectangle" stroke="#E2E2E4" stroke-width="3" x="2.1" y="259.1" width="231" height="231"></rect>
            <path d="M130.2,356.8 C118.1,356.8 108.3,345.3 108.3,331.3 C108.3,317.3 118.1,305.8 130.2,305.8 C142.3,305.8 152.1,317.3 152.1,331.3 C152.1,345.3 142.3,356.8 130.2,356.8 Z M130.2,307.7 C119.2,307.7 110.3,318.3 110.3,331.2 C110.3,344.1 119.2,354.7 130.2,354.7 C141.2,354.7 150.1,344.1 150.1,331.2 C150.1,318.3 141.2,307.7 130.2,307.7 Z" id="Shape" fill="#E2E2E4" fill-rule="nonzero"></path>
            <circle id="Oval" fill="#E2E2E4" fill-rule="nonzero" cx="119.2" cy="330.6" r="1.2"></circle>
            <circle id="Oval" fill="#E2E2E4" fill-rule="nonzero" cx="141.4" cy="330.6" r="1.2"></circle>
            <path d="M123.9,349.1 C124.6,348.5 125.4,348 126.2,347.7 C127,347.4 127.9,347.2 128.8,347.1 C129.7,347 130.7,347.1 131.6,347.3 C131.8,347.4 132.1,347.5 132.3,347.6 L132.9,348 C133.1,348.2 133.3,348.4 133.4,348.5 C133.5,348.7 133.6,348.9 133.7,349.2 C132.9,348.9 132.1,348.8 131.3,348.9 C130.5,348.9 129.7,349 128.9,349.1 C128.1,349.2 127.3,349.2 126.4,349.3 C125.7,349.2 124.8,349.2 123.9,349.1 Z" id="Path" fill="#E2E2E4" fill-rule="nonzero"></path>
            <path d="M139.1,344.9 L119.6,344.9 L120.6,343.3 C122.7,340.1 125.2,338.4 128.1,338.3 C133.3,338 137.5,343 137.7,343.2 L139.1,344.9 Z M123.5,342.9 L134.5,342.9 C133,341.6 130.7,340.2 128.2,340.3 C126.4,340.5 124.6,341.4 123.5,342.9 Z" id="Shape" fill="#E2E2E4" fill-rule="nonzero"></path>
            <path d="M325.7,170.3 L300.1,170.3 L303.2,140.8 L321.9,140.8 L325.7,170.3 Z M301.3,169.3 L324.5,169.3 L320.9,141.8 L304.1,141.8 L301.3,169.3 Z" id="Shape" fill="#E2E2E4" fill-rule="nonzero"></path>
            <polygon id="Path" fill="#1CF9EC" fill-rule="nonzero" points="304.5 166.5 304.9 166.5 305.1 167.5 305.1 167.5 305.4 166.5 305.7 166.5 306 167.5 306 167.5 306.3 166.5 306.6 166.5 306.2 168 306 168 305.7 167 305.7 167 305.4 168 305.1 168"></polygon>
            <polygon id="Path" fill="#1CF9EC" fill-rule="nonzero" points="306.7 166.5 307 166.5 307 168 306.7 168"></polygon>
            <polygon id="Path" fill="#1CF9EC" fill-rule="nonzero" points="307.4 166.5 307.8 166.5 308.4 167.5 308.4 167.5 308.4 166.5 308.7 166.5 308.7 168 308.3 168 307.7 166.9 307.7 166.9 307.7 168 307.4 168"></polygon>
            <polygon id="Path" fill="#1CF9EC" fill-rule="nonzero" points="309.1 166.5 309.4 166.5 309.4 167.1 310 166.5 310.4 166.5 309.7 167.2 310.4 168 310 168 309.4 167.3 309.4 168 309.1 168 309.1 166.5"></polygon>
            <polygon id="Path" fill="#1CF9EC" fill-rule="nonzero" points="310.6 166.5 311.6 166.5 311.6 166.8 310.9 166.8 310.9 167.1 311.5 167.1 311.5 167.4 310.9 167.4 310.9 167.7 311.6 167.7 311.6 168 310.5 168"></polygon>
            <polygon id="Path" fill="#1CF9EC" fill-rule="nonzero" points="311.9 166.5 312.2 166.5 312.2 167.7 312.8 167.7 312.8 168 312 168"></polygon>
            <polygon id="Path" fill="#1CF9EC" fill-rule="nonzero" points="312.7 166.5 313.1 166.5 313.5 167.5 313.5 167.5 313.9 166.5 314.3 166.5 313.7 168 313.4 168"></polygon>
            <polygon id="Path" fill="#1CF9EC" fill-rule="nonzero" points="314.4 166.5 315.4 166.5 315.4 166.8 314.7 166.8 314.7 167.1 315.3 167.1 315.3 167.4 314.7 167.4 314.7 167.7 315.4 167.7 315.4 168 314.4 168"></polygon>
            <path d="M315.7,166.5 L316.3,166.5 C316.4,166.5 316.4,166.5 316.5,166.5 C316.6,166.5 316.6,166.5 316.7,166.6 C316.8,166.6 316.8,166.7 316.8,166.7 C316.8,166.8 316.9,166.8 316.8,166.9 C316.8,167 316.8,167.1 316.7,167.2 C316.6,167.3 316.6,167.3 316.5,167.3 L316.9,167.9 L316.5,167.9 L316.2,167.3 L316,167.3 L316,167.9 L315.7,167.9 L315.7,166.5 Z M316,167.1 L316.3,167.1 L316.4,167.1 C316.4,167.1 316.5,167.1 316.5,167 C316.5,166.9 316.5,166.9 316.5,166.8 C316.5,166.8 316.5,166.8 316.5,166.7 L316.4,166.7 L316,166.7 L316,167.1 Z" id="Shape" fill="#1CF9EC" fill-rule="nonzero"></path>
            <path d="M317.1,166.5 L317.6,166.5 L317.8,166.5 L318,166.6 C318.1,166.6 318.1,166.7 318.1,166.7 C318.1,166.8 318.1,166.8 318.1,166.9 C318.1,167 318.1,167.1 318,167.1 C318,167.2 317.9,167.2 317.8,167.2 L317.8,167.2 L317.9,167.2 C317.9,167.2 318,167.2 318,167.3 C318,167.3 318.1,167.4 318.1,167.4 C318.1,167.4 318.1,167.5 318.1,167.5 C318.1,167.6 318.1,167.6 318.1,167.7 C318.1,167.8 318,167.8 318,167.8 L317.8,167.9 L317.6,167.9 L317,167.9 L317.1,166.5 Z M317.4,167.1 L317.7,167.1 L317.8,167.1 L317.8,167 C317.8,167 317.8,166.9 317.8,166.9 C317.8,166.9 317.8,166.8 317.8,166.8 C317.8,166.8 317.8,166.8 317.8,166.8 L317.7,166.8 L317.4,166.8 L317.4,167.1 Z M317.4,167.7 L317.8,167.7 C317.8,167.7 317.8,167.7 317.9,167.7 L317.9,167.7 C317.9,167.7 317.9,167.6 317.9,167.6 C317.9,167.6 317.9,167.5 317.9,167.5 C317.9,167.5 317.9,167.5 317.8,167.5 L317.7,167.5 L317.4,167.5 L317.4,167.7 Z" id="Shape" fill="#1CF9EC" fill-rule="nonzero"></path>
            <path d="M318.4,167.3 C318.4,167.2 318.4,167.1 318.5,167 C318.5,166.9 318.6,166.8 318.7,166.7 C318.8,166.6 318.9,166.6 319,166.5 C319.2,166.4 319.4,166.4 319.6,166.5 C319.7,166.5 319.8,166.6 319.9,166.7 C320,166.8 320,166.9 320.1,167 C320.1,167.1 320.2,167.2 320.2,167.3 C320.2,167.4 320.2,167.5 320.1,167.6 C320.1,167.7 320,167.8 319.9,167.9 C319.8,168 319.7,168 319.6,168 C319.4,168.1 319.2,168.1 319,168 C318.9,168 318.8,167.9 318.7,167.9 C318.6,167.8 318.6,167.7 318.5,167.6 C318.4,167.5 318.3,167.4 318.4,167.3 Z M318.7,167.3 C318.7,167.4 318.7,167.4 318.7,167.5 C318.7,167.6 318.8,167.6 318.8,167.6 C318.8,167.6 318.9,167.7 318.9,167.7 C319,167.7 319.2,167.7 319.3,167.7 C319.4,167.7 319.4,167.6 319.4,167.6 C319.4,167.6 319.5,167.5 319.5,167.5 C319.5,167.4 319.5,167.4 319.5,167.3 C319.5,167.2 319.5,167.2 319.5,167.1 C319.5,167 319.5,167 319.4,167 C319.4,167 319.3,166.9 319.3,166.9 C319.2,166.8 319,166.8 318.9,166.9 C318.8,166.9 318.8,167 318.8,167 C318.8,167 318.7,167.1 318.7,167.1 C318.7,167.1 318.7,167.2 318.7,167.3 L318.7,167.3 Z" id="Shape" fill="#1CF9EC" fill-rule="nonzero"></path>
            <path d="M320.2,166.5 L320.7,166.5 C320.8,166.5 320.9,166.5 321.1,166.5 C321.2,166.5 321.3,166.6 321.4,166.6 C321.5,166.7 321.5,166.7 321.6,166.8 C321.7,166.9 321.7,167 321.7,167.2 C321.7,167.4 321.6,167.6 321.4,167.8 C321.3,167.9 321.2,167.9 321.1,167.9 C321,167.9 320.9,167.9 320.8,168 L320.3,168 L320.3,166.5 L320.2,166.5 Z M320.5,167.7 L320.7,167.7 C320.8,167.7 320.8,167.7 320.9,167.7 C321,167.7 321,167.7 321.1,167.6 C321.2,167.6 321.2,167.5 321.2,167.5 C321.2,167.4 321.2,167.4 321.2,167.3 C321.2,167.2 321.2,167.2 321.2,167.1 C321.2,167 321.1,167 321.1,167 L320.9,166.9 L320.7,166.9 L320.5,166.9 L320.5,167.7 Z" id="Shape" fill="#1CF9EC" fill-rule="nonzero"></path>
            <rect id="Rectangle" fill="#E2E2E4" fill-rule="nonzero" x="303.5" y="164.2" width="18.6" height="1"></rect>
            <rect id="Rectangle" fill="#E2E2E4" fill-rule="nonzero" x="305" y="162.9" width="13.6" height="1"></rect>
            <rect id="Rectangle" fill="#E2E2E4" fill-rule="nonzero" x="303.9" y="161.3" width="9.7" height="1"></rect>
            <rect id="Rectangle" fill="#E2E2E4" fill-rule="nonzero" x="314.7" y="161.3" width="5.3" height="1"></rect>
            <rect id="Rectangle" fill="#E2E2E4" fill-rule="nonzero" x="304.5" y="159.9" width="16.5" height="1"></rect>
            <rect id="Rectangle" fill="#E2E2E4" fill-rule="nonzero" x="305" y="157.2" width="13.6" height="1"></rect>
            <rect id="Rectangle" fill="#E2E2E4" fill-rule="nonzero" x="303.9" y="155.7" width="9.7" height="1"></rect>
            <rect id="Rectangle" fill="#E2E2E4" fill-rule="nonzero" x="314.7" y="155.7" width="5.3" height="1"></rect>
            <rect id="Rectangle" fill="#E2E2E4" fill-rule="nonzero" x="314.7" y="152.9" width="5.3" height="1"></rect>
            <rect id="Rectangle" fill="#E2E2E4" fill-rule="nonzero" x="304.5" y="152.9" width="9.3" height="1"></rect>
            <rect id="Rectangle" fill="#E2E2E4" fill-rule="nonzero" x="304.5" y="154.3" width="16.5" height="1"></rect>
            <path d="M346.7,134.5 C342.2,114.5 331.9,101.6 320.4,101.6 C309.3,101.6 299.1,114 294.5,133.2 L292.7,132.8 C297.6,112.8 308.5,99.8 320.4,99.8 C332.7,99.8 343.7,113.3 348.4,134.1 L346.7,134.5 Z" id="Path" fill="#E2E2E4" fill-rule="nonzero"></path>
            <path d="M320.6,98.3 C311.9,98.3 304.8,90.1 304.8,80 C304.8,69.9 311.9,61.7 320.6,61.7 C329.3,61.7 336.3,69.9 336.3,80 C336.3,90.1 329.3,98.3 320.6,98.3 Z M320.6,63.4 C312.9,63.4 306.7,70.8 306.7,79.9 C306.7,89 313,96.4 320.6,96.4 C328.2,96.4 334.5,89 334.5,79.9 C334.5,70.8 328.3,63.5 320.6,63.4 L320.6,63.4 Z" id="Shape" fill="#E2E2E4" fill-rule="nonzero"></path>
            <circle id="Oval" fill="#E2E2E4" fill-rule="nonzero" cx="313.5" cy="79.5" r="1"></circle>
            <circle id="Oval" fill="#E2E2E4" fill-rule="nonzero" cx="327" cy="79.5" r="1"></circle>
            <path d="M316.9,92.6 C317.4,92.2 318,91.9 318.6,91.7 C319.2,91.5 319.8,91.3 320.4,91.3 C321.1,91.2 321.7,91.3 322.4,91.4 C322.6,91.5 322.7,91.5 322.9,91.6 L323.4,91.9 C323.5,92 323.7,92.1 323.8,92.3 C323.9,92.4 324,92.6 324,92.7 C323.5,92.5 322.9,92.4 322.3,92.4 C321.7,92.4 321.2,92.5 320.6,92.5 C320,92.5 319.4,92.6 318.8,92.7 C318.2,92.6 317.5,92.6 316.9,92.6 Z" id="Path" fill="#E2E2E4" fill-rule="nonzero"></path>
            <path d="M327.4,89.5 L314,89.5 L314.6,88.6 C316.1,86.4 317.9,85.2 319.8,85.1 C323.4,84.9 326.4,88.4 326.5,88.6 L327.4,89.5 Z M316.4,88.3 L324.7,88.3 C323.4,87.1 321.7,86.4 320,86.3 C318.5,86.5 317.2,87.2 316.4,88.3 Z" id="Shape" fill="#E2E2E4" fill-rule="nonzero"></path>
            <path d="M369.4,132.8 L363.6,132.8 L364.9,133.2 L364.7,133.8 L361.6,132.8 L284.7,132.8 L284.7,134.6 L369.2,134.6 C369.1,134 369.2,133.4 369.4,132.8 Z" id="Path" fill="#FFFFFF" fill-rule="nonzero"></path>
            <path d="M369.7,132.8 L368.6,132.8 L368.9,133.2 L368.9,133.8 L368.3,132.8 L353.4,132.8 L353.4,134.6 L369.7,134.6 C369.7,134 369.7,133.4 369.7,132.8 Z" id="Path" fill="#FFFFFF" fill-rule="nonzero"></path>
            <path d="M67,210.9 L18.3,210.9 L24.1,154.7 L59.7,154.7 L67,210.9 Z M20.5,208.9 L64.7,208.9 L57.9,156.7 L25.9,156.7 L20.5,208.9 Z" id="Shape" fill="#E2E2E4" fill-rule="nonzero"></path>
            <path d="M9.2,144.5 C16.8,113.3 33.6,91.7 53.1,91.7 C73.1,91.7 90.2,114.4 97.6,146.8" id="Path" stroke="#E2E2E4" stroke-width="3"></path>
            <ellipse id="Oval" stroke="#E2E2E4" stroke-width="3" cx="53.4" cy="57.6" rx="24.3" ry="28.5"></ellipse>
            <path d="M214.9,53.6 C202.3,53.6 192.1,65.7 192.1,80.6 C192.1,95.5 202.3,107.6 214.9,107.6 C221.3,107.6 227,104.5 231.2,99.5 L231.2,61.7 C227,56.7 221.3,53.6 214.9,53.6 Z" id="Path"></path>
            <path d="M234.2,95 L234.2,66.2 C233.3,64.6 232.3,63.1 231.2,61.7 L231.2,99.5 C232.3,98.1 233.3,96.6 234.2,95 Z" id="Path" fill="#FFFFFF" fill-rule="nonzero"></path>
            <path d="M214.9,107.6 C202.3,107.6 192.1,95.5 192.1,80.6 C192.1,65.7 202.3,53.6 214.9,53.6 C221.3,53.6 227,56.7 231.2,61.7 L231.2,57.3 C226.9,53 221,50.6 214.9,50.5 C200.7,50.5 189.1,64 189.1,80.5 C189.1,97 200.7,110.5 214.9,110.5 C221,110.4 226.8,108 231.2,103.7 L231.2,99.4 C227,104.5 221.3,107.6 214.9,107.6 Z" id="Path" fill="#FFFFFF" fill-rule="nonzero"></path>
            <path d="M231.2,57.3 L231.2,61.7 C232.3,63.1 233.3,64.6 234.2,66.2 L234.2,60.7 C233.3,59.5 232.3,58.4 231.2,57.3 Z" id="Path" fill="#FFFFFF" fill-rule="nonzero"></path>
            <path d="M231.2,99.5 L231.2,103.9 C232.3,102.9 233.3,101.7 234.2,100.5 L234.2,95 C233.3,96.6 232.3,98.1 231.2,99.5 Z" id="Path" fill="#FFFFFF" fill-rule="nonzero"></path>
            <circle id="Oval" fill="#E2E2E4" fill-rule="nonzero" cx="41.7" cy="56.8" r="1.4"></circle>
            <circle id="Oval" fill="#E2E2E4" fill-rule="nonzero" cx="63.8" cy="56.8" r="1.4"></circle>
            <circle id="Oval" fill="#E2E2E4" fill-rule="nonzero" cx="198.4" cy="73.8" r="1.4"></circle>
            <path d="M47.2,78.3 C48,77.6 48.9,77.1 49.9,76.8 C50.9,76.4 51.9,76.2 52.9,76.1 C54,76 55,76.1 56.1,76.3 C56.4,76.4 56.6,76.5 56.9,76.6 L57.6,77 C57.8,77.2 58,77.4 58.2,77.6 C58.4,77.8 58.5,78.1 58.6,78.3 C57.7,77.9 56.8,77.8 55.8,77.8 C54.9,77.8 54,77.9 53,78 C52,78.1 51.1,78.2 50.1,78.3 C49.2,78.4 48.2,78.4 47.2,78.3 Z" id="Path" fill="#E2E2E4" fill-rule="nonzero"></path>
            <path d="M202.7,96.1 C202.4,96.8 202,97.5 201.4,98 C200.8,98.5 200.2,99 199.5,99.3 C198.7,99.6 197.9,99.8 197.1,99.7 C196.2,99.6 195.4,99 195.1,98.2 C195.7,98.4 196.4,98.3 197,98.1 C197.6,97.9 198.1,97.7 198.7,97.5 C199.3,97.3 199.9,97 200.6,96.8 C201.2,96.5 201.9,96.3 202.7,96.1 Z" id="Path" fill="#E2E2E4" fill-rule="nonzero"></path>
            <path d="M44.4,72.3 L62.4,72.3 C62.4,72.3 52.4,60.3 44.4,72.3 Z" id="Path" stroke="#E2E2E4" stroke-width="2"></path>
            <polygon id="Path" fill="#1CF9EC" fill-rule="nonzero" points="26.6 203.7 27.3 203.7 27.7 205.5 27.7 205.5 28.3 203.7 28.9 203.7 29.5 205.6 29.5 205.6 30 203.7 30.6 203.7 29.8 206.6 29.2 206.6 28.6 204.6 28.6 204.6 28 206.6 27.5 206.6"></polygon>
            <polygon id="Path" fill="#1CF9EC" fill-rule="nonzero" points="30.9 203.7 31.5 203.7 31.5 206.6 30.9 206.6"></polygon>
            <polygon id="Path" fill="#1CF9EC" fill-rule="nonzero" points="32.1 203.7 32.9 203.7 34.1 205.7 34.1 205.7 34.1 203.7 34.7 203.7 34.7 206.6 33.9 206.6 32.7 204.6 32.7 204.6 32.7 206.6 32 206.6"></polygon>
            <polygon id="Path" fill="#1CF9EC" fill-rule="nonzero" points="35.4 203.7 36 203.7 36 204.9 37.1 203.7 37.9 203.7 36.6 205 38 206.5 37.1 206.5 35.9 205.1 35.9 206.5 35.3 206.5"></polygon>
            <polygon id="Path" fill="#1CF9EC" fill-rule="nonzero" points="38.3 203.7 40.2 203.7 40.2 204.3 38.9 204.3 38.9 204.8 40.1 204.8 40.1 205.4 38.9 205.4 38.9 206 40.3 206 40.3 206.6 38.3 206.6"></polygon>
            <polygon id="Path" fill="#1CF9EC" fill-rule="nonzero" points="40.8 203.7 41.4 203.7 41.4 206 42.6 206 42.6 206.6 40.8 206.6"></polygon>
            <polygon id="Path" fill="#1CF9EC" fill-rule="nonzero" points="42.3 203.7 43 203.7 43.7 205.6 43.7 205.6 44.4 203.7 45.1 203.7 43.9 206.5 43.4 206.5"></polygon>
            <polygon id="Path" fill="#1CF9EC" fill-rule="nonzero" points="45.4 203.7 47.3 203.7 47.3 204.3 46 204.3 46 204.8 47.2 204.8 47.2 205.4 46 205.4 46 206 47.4 206 47.4 206.6 45.4 206.6"></polygon>
            <path d="M47.9,203.7 L49,203.7 C49.1,203.7 49.3,203.7 49.4,203.7 C49.5,203.7 49.6,203.8 49.7,203.8 C49.8,203.9 49.9,204 49.9,204.1 C50,204.2 50,204.4 50,204.5 C50,204.7 50,204.9 49.9,205 C49.8,205.1 49.6,205.2 49.4,205.3 L50.1,206.5 L49.3,206.5 L48.7,205.4 L48.4,205.4 L48.4,206.5 L48,206.5 L47.9,203.7 Z M48.6,204.9 L49.2,204.9 C49.3,204.9 49.3,204.9 49.4,204.9 C49.5,204.9 49.5,204.8 49.5,204.8 C49.5,204.7 49.5,204.7 49.5,204.6 C49.5,204.5 49.5,204.5 49.5,204.4 C49.5,204.4 49.4,204.3 49.4,204.3 L49.3,204.3 L48.7,204.3 L48.6,204.9 Z" id="Shape" fill="#1CF9EC" fill-rule="nonzero"></path>
            <path d="M50.5,203.7 L51.6,203.7 C51.7,203.7 51.9,203.7 52,203.7 C52.1,203.7 52.2,203.7 52.3,203.8 C52.4,203.9 52.5,203.9 52.5,204 C52.6,204.1 52.6,204.2 52.6,204.4 C52.6,204.5 52.6,204.7 52.5,204.8 C52.4,204.9 52.3,205 52.1,205 L52.1,205 C52.2,205 52.3,205 52.4,205.1 C52.5,205.1 52.5,205.2 52.6,205.2 C52.7,205.3 52.7,205.3 52.7,205.4 C52.7,205.5 52.7,205.6 52.7,205.7 C52.7,205.8 52.7,206 52.6,206.1 C52.5,206.2 52.5,206.3 52.3,206.3 C52.2,206.4 52.1,206.4 52,206.4 C51.9,206.4 51.7,206.4 51.6,206.4 L50.4,206.4 L50.5,203.7 Z M51.2,204.8 L51.6,204.8 L51.7,204.8 L51.8,204.8 C51.8,204.8 51.9,204.7 51.9,204.7 C51.9,204.7 51.9,204.6 51.9,204.6 C51.9,204.6 51.9,204.5 51.9,204.5 C51.9,204.5 51.8,204.4 51.8,204.4 C51.8,204.4 51.7,204.4 51.7,204.4 L51.1,204.4 L51.2,204.8 Z M51.2,206 L51.8,206 L51.9,206 C51.9,206 52,206 52,205.9 C52,205.9 52.1,205.8 52.1,205.8 C52.1,205.7 52.1,205.7 52.1,205.6 C52.1,205.5 52.1,205.5 52.1,205.4 C52.1,205.4 52,205.3 52,205.3 L51.8,205.3 L51.2,205.3 L51.2,206 Z" id="Shape" fill="#1CF9EC" fill-rule="nonzero"></path>
            <path d="M53,205.1 C53,204.9 53,204.7 53.1,204.5 C53.2,204.3 53.3,204.2 53.4,204 C53.5,203.9 53.7,203.8 53.9,203.7 C54.1,203.6 54.3,203.6 54.5,203.6 C54.7,203.6 54.9,203.6 55.1,203.7 C55.3,203.8 55.4,203.9 55.6,204 C55.7,204.1 55.9,204.3 55.9,204.5 C56,204.7 56,204.9 56,205.1 C56,205.3 56,205.5 55.9,205.7 C55.8,205.9 55.7,206 55.6,206.2 C55.5,206.3 55.3,206.4 55.1,206.5 C54.9,206.6 54.7,206.6 54.5,206.6 C54.3,206.6 54.1,206.6 53.9,206.5 C53.7,206.4 53.6,206.3 53.4,206.2 C53.3,206.1 53.2,205.9 53.1,205.7 C53,205.5 53,205.3 53,205.1 Z M53.7,205.1 C53.7,205.2 53.7,205.4 53.8,205.5 C53.8,205.6 53.9,205.7 54,205.8 C54.1,205.9 54.2,206 54.3,206 C54.4,206 54.5,206.1 54.7,206.1 C54.8,206.1 54.9,206.1 55.1,206 C55.2,206 55.3,205.9 55.4,205.8 C55.5,205.7 55.5,205.6 55.6,205.5 C55.6,205.4 55.7,205.3 55.7,205.1 C55.7,205 55.7,204.9 55.6,204.7 C55.5,204.5 55.4,204.3 55.1,204.2 C55,204.2 54.9,204.1 54.7,204.1 C54.6,204.1 54.5,204.1 54.3,204.2 C54.1,204.3 53.9,204.5 53.8,204.7 C53.7,204.8 53.7,205 53.7,205.1 L53.7,205.1 Z" id="Shape" fill="#1CF9EC" fill-rule="nonzero"></path>
            <path d="M56.5,203.7 L57.4,203.7 C57.6,203.7 57.8,203.7 58,203.8 C58.2,203.8 58.4,203.9 58.5,204 C58.7,204.1 58.8,204.3 58.9,204.5 C59.1,204.9 59.1,205.4 58.9,205.8 C58.8,206 58.7,206.1 58.5,206.2 C58.3,206.3 58.2,206.4 58,206.5 C57.8,206.6 57.6,206.6 57.4,206.6 L56.4,206.6 L56.5,203.7 Z M57.1,205.9 L57.4,205.9 C57.5,205.9 57.7,205.9 57.8,205.9 C57.9,205.9 58,205.8 58.1,205.8 C58.2,205.7 58.3,205.6 58.3,205.5 C58.4,205.4 58.4,205.2 58.4,205.1 C58.4,205 58.4,204.9 58.3,204.7 C58.3,204.6 58.2,204.5 58.1,204.4 C58,204.3 57.9,204.3 57.8,204.3 C57.7,204.3 57.5,204.3 57.4,204.3 L57,204.3 L57,205.9 L57.1,205.9 Z" id="Shape" fill="#1CF9EC" fill-rule="nonzero"></path>
            <rect id="Rectangle" fill="#E2E2E4" fill-rule="nonzero" x="24.7" y="199.3" width="35.3" height="1"></rect>
            <rect id="Rectangle" fill="#E2E2E4" fill-rule="nonzero" x="27.6" y="196.8" width="25.9" height="1"></rect>
            <rect id="Rectangle" fill="#E2E2E4" fill-rule="nonzero" x="25.6" y="193.8" width="18.5" height="1"></rect>
            <rect id="Rectangle" fill="#E2E2E4" fill-rule="nonzero" x="46" y="193.8" width="10.1" height="1"></rect>
            <rect id="Rectangle" fill="#E2E2E4" fill-rule="nonzero" x="26.7" y="191.1" width="31.4" height="1"></rect>
            <rect id="Rectangle" fill="#E2E2E4" fill-rule="nonzero" x="27.6" y="186" width="25.9" height="1"></rect>
            <rect id="Rectangle" fill="#E2E2E4" fill-rule="nonzero" x="25.6" y="183" width="18.5" height="1"></rect>
            <rect id="Rectangle" fill="#E2E2E4" fill-rule="nonzero" x="46" y="183" width="10.1" height="1"></rect>
            <rect id="Rectangle" fill="#E2E2E4" fill-rule="nonzero" x="46" y="177.6" width="10.1" height="1"></rect>
            <rect id="Rectangle" fill="#E2E2E4" fill-rule="nonzero" x="26.6" y="177.6" width="17.8" height="1"></rect>
            <rect id="Rectangle" fill="#E2E2E4" fill-rule="nonzero" x="26.7" y="180.3" width="31.4" height="1"></rect>
            <path d="M215.8,235.1 C218.1,235.1 220.3,234.7 222.5,234 L209.1,234 C211.3,234.7 213.5,235.1 215.8,235.1 Z" id="Path"></path>
            <path d="M231.2,122 L231.2,144.1 L232.7,144.1 L232.7,147.1 L231.2,147.1 L231.2,228.8 C232.3,227.9 233.3,226.9 234.2,225.9 L234.2,124.9 C233.2,123.9 232.2,122.9 231.2,122 Z" id="Path" fill="#FFFFFF" fill-rule="nonzero"></path>
            <path d="M234.2,234 L234.2,230.1 C232.7,231.5 231,232.9 229.2,234 L234.2,234 Z" id="Path" fill="#FFFFFF" fill-rule="nonzero"></path>
            <path d="M209.1,234 L222.5,234 C224.6,233.3 226.6,232.3 228.4,231 L203.2,231 C205,232.2 207,233.2 209.1,234 Z" id="Path" fill="#FFFFFF" fill-rule="nonzero"></path>
            <path d="M3.2,231 L3.2,147.2 L1.7,147.2 L1.7,144.2 L3.2,144.2 L3.2,3 L231.2,3 L231.2,57.4 C232.3,58.4 233.3,59.6 234.2,60.8 L234.2,0 L0.2,0 L0.2,234 L202.4,234 C201,233.1 199.7,232.1 198.4,231 L3.2,231 Z" id="Path" fill="#FFFFFF" fill-rule="nonzero"></path>
            <path d="M234.2,120.8 L234.2,100.5 C233.3,101.7 232.3,102.8 231.2,103.9 L231.2,118.3 C232.2,119 233.2,119.9 234.2,120.8 Z" id="Path" fill="#FFFFFF" fill-rule="nonzero"></path>
            <rect id="Rectangle" fill="#FFFFFF" fill-rule="nonzero" x="231.2" y="144.2" width="1.5" height="3"></rect>
            <rect id="Rectangle" fill="#FFFFFF" fill-rule="nonzero" x="1.7" y="144.2" width="1.5" height="3"></rect>
            <path d="M231.2,231 L231.2,228.9 C230.3,229.7 229.4,230.4 228.4,231 L231.2,231 Z" id="Path" fill="#FFFFFF" fill-rule="nonzero"></path>
            <path d="M231.2,228.9 L231.2,231 L228.4,231 C226.6,232.3 224.6,233.3 222.5,234 L229.2,234 C231,232.9 232.7,231.6 234.2,230.1 L234.2,226 C233.3,227 232.2,227.9 231.2,228.9 Z" id="Path" fill="#FFFFFF" fill-rule="nonzero"></path>
            <path d="M231.2,122 C232.3,122.9 233.3,123.9 234.2,124.9 L234.2,120.8 C233.2,119.9 232.2,119.1 231.2,118.3 L231.2,122 Z" id="Path" fill="#FFFFFF" fill-rule="nonzero"></path>
            <path d="M203.2,231 L198.4,231 C199.7,232.1 201,233.1 202.4,234 L209.1,234 C207,233.2 205,232.2 203.2,231 Z" id="Path" fill="#FFFFFF" fill-rule="nonzero"></path>
            <path d="M163.7,138 C162.8,137.2 161.8,136.5 160.7,135.9 C160.2,136.4 159.8,136.9 159.5,137.5 C159.8,137.6 160,137.8 160.3,137.9 L163.7,138 Z" id="Path"></path>
            <path d="M160.4,138 L158.3,138 C158.2,138.6 158.1,139.2 158.1,139.8 L158.1,139.8 C158.1,139.2 158.2,138.6 158.3,138 L160.4,138 Z" id="Path"></path>
            <polygon id="Path" points="185 138 185.7 138 185.7 138"></polygon>
            <path d="M214.9,50.6 C221,50.7 226.8,53.1 231.2,57.4 L231.2,3 L3.2,3 L3.2,144.2 L129.2,144.2 L111.9,138.7 L112.2,137.8 L132.5,144.2 L142,144.2 C143.9,137.2 151.2,133 158.2,134.9 C158.4,135 158.6,135 158.8,135.1 C160.2,133.4 162.2,132.5 164.4,132.5 L179.1,132.5 C182.2,132.5 185,134.5 186,137.5 C192.9,122.5 203.7,112.8 215.9,112.8 C221.5,112.9 226.9,114.8 231.3,118.3 L231.3,103.9 C226.9,108.2 221.1,110.6 215,110.7 C200.8,110.7 189.2,97.2 189.2,80.7 C189.2,64.2 200.7,50.6 214.9,50.6 Z M141.1,134.8 L111.4,113.2 L112,112.4 L141.7,134 L141.1,134.8 Z" id="Shape"></path>
            <path d="M178.2,175.5 C178.2,173.6 178.3,171.8 178.4,170 L148.4,170 L148.4,159.3 C144.2,157 141.5,152.5 141.5,147.7 C141.5,147.5 141.5,147.4 141.5,147.2 L3.2,147.2 L3.2,231 L198.4,231 C186.4,220.5 178.2,199.5 178.2,175.5 Z M108.1,161.8 L107.9,160.8 L136.6,155.5 L136.8,156.5 L108.1,161.8 Z" id="Shape"></path>
            <path d="M142,144.2 L132.5,144.2 L134.6,144.9 L134.3,145.9 L129.3,144.3 L3.3,144.3 L3.3,147.3 L141.6,147.3 C141.5,146.2 141.7,145.2 142,144.2 Z" id="Path" fill="#FFFFFF" fill-rule="nonzero"></path>
            <path d="M185.9,137.5 C186,137.7 186,137.8 186.1,138 L187.1,138 C187.2,138.6 187.3,139.2 187.3,139.8 L187.3,139.8 C187.3,139.2 187.2,138.6 187.1,138 L188.9,138 C195.2,124.5 204.9,115.8 215.8,115.8 C221.3,115.8 226.5,118.1 231.2,122 L231.2,118.3 C226.8,114.8 221.4,112.9 215.8,112.8 C203.6,112.8 192.8,122.5 185.9,137.5 Z" id="Path" fill="#FFFFFF" fill-rule="nonzero"></path>
            <path d="M178.2,175.5 C178.2,199.6 186.4,220.5 198.4,231 L203.2,231 C190.3,222.3 181.2,200.7 181.2,175.5 C181.2,173.6 181.3,171.8 181.4,170 L178.4,170 C178.3,171.7 178.2,173.6 178.2,175.5 Z" id="Path" fill="#FFFFFF" fill-rule="nonzero"></path>
            <path d="M160,140 C160,139.9 160,139.9 160,139.8 L160,139.8 C160,139.2 160.1,138.6 160.3,138 L158.2,138 C158.1,138.6 158,139.2 158,139.8 C158,139.9 158,139.9 158,140 L160,140 Z" id="Path" fill="#FFFFFF" fill-rule="nonzero"></path>
            <path d="M185.3,139 C185.4,138.7 185.6,138.3 185.7,138 L185,138 C185.1,138.3 185.2,138.6 185.3,139 Z" id="Path" fill="#FFFFFF" fill-rule="nonzero"></path>
            <path d="M185.4,139.8 L185.4,139.8 C185.4,139.9 185.4,139.9 185.4,140 L187.4,140 C187.4,139.9 187.4,139.9 187.4,139.8 C187.4,139.2 187.3,138.6 187.2,138 L185.8,138 C185.7,138.3 185.5,138.7 185.4,139 C185.3,139.2 185.4,139.5 185.4,139.8 Z" id="Path" fill="#FFFFFF" fill-rule="nonzero"></path>
            <rect id="Rectangle" fill="#FFFFFF" fill-rule="nonzero" transform="translate(126.523685, 123.647095) rotate(-53.892167) translate(-126.523685, -123.647095) " x="126.023691" y="105.297307" width="1" height="36.6995761"></rect>
            <rect id="Rectangle" fill="#FFFFFF" fill-rule="nonzero" transform="translate(118.149450, 143.944700) rotate(-82.299345) translate(-118.149450, -143.944700) " x="117.649441" y="125.594361" width="1.0000185" height="36.7006789"></rect>
            <polygon id="Path" fill="#FFFFFF" fill-rule="nonzero" points="134.5 144.8 132.4 144.2 129.1 144.2 134.2 145.8"></polygon>
            <rect id="Rectangle" fill="#FFFFFF" fill-rule="nonzero" transform="translate(122.406840, 164.588580) rotate(-10.521106) translate(-122.406840, -164.588580) " x="107.806658" y="164.088574" width="29.200365" height="1.0000125"></rect>
            <path d="M157.6,136.8 C154.7,136 151.6,136.4 149,137.9 L157.2,137.9 C157.3,137.6 157.5,137.2 157.6,136.8 Z" id="Path"></path>
            <path d="M148.4,138.4 C146.4,139.8 144.9,141.8 144.1,144.2 L148.4,144.2 L148.4,138.4 Z" id="Path"></path>
            <path d="M148.4,156.9 L148.4,147.1 L143.5,147.1 C143.5,147.3 143.5,147.4 143.5,147.6 C143.5,151.4 145.3,154.8 148.4,156.9 Z" id="Path"></path>
            <path d="M160.4,138 L160.4,138 C160.1,137.8 159.9,137.7 159.6,137.6 C159.5,137.7 159.5,137.9 159.4,138 L160.4,138 Z" id="Path"></path>
            <path d="M184,138 C183.2,135.9 181.2,134.5 179,134.5 L164.3,134.5 C163,134.5 161.7,135 160.7,135.9 C161.8,136.5 162.8,137.2 163.7,138 L184,138 Z" id="Path"></path>
            <path d="M165.5,140 L184.9,140 L185.3,139 C185.2,138.7 185.2,138.3 185,138 L163.6,138 C164.3,138.6 164.9,139.2 165.5,140 Z" id="Path" fill="#FFFFFF" fill-rule="nonzero"></path>
            <path d="M184.9,140 L185.4,140 C185.4,139.9 185.4,139.9 185.4,139.8 C185.4,139.5 185.4,139.3 185.3,139 L184.9,140 Z" id="Path" fill="#FFFFFF" fill-rule="nonzero"></path>
            <path d="M185.3,139 L185.3,139 C185.2,138.7 185.2,138.3 185,138 L185,138 C185.1,138.3 185.2,138.6 185.3,139 Z" id="Path" fill="#FFFFFF" fill-rule="nonzero"></path>
            <path d="M185.4,139.8 L185.4,139.8 C185.4,139.5 185.4,139.3 185.3,139 L185.3,139 C185.3,139.2 185.4,139.5 185.4,139.8 Z" id="Path" fill="#FFFFFF" fill-rule="nonzero"></path>
            <path d="M160.4,138 C160.2,138.6 160.1,139.2 160.1,139.8 C160.1,139.9 160.1,139.9 160.1,140 L163,140 C162.2,139.2 161.3,138.5 160.4,138 L160.4,138 Z" id="Path" fill="#FFFFFF" fill-rule="nonzero"></path>
            <path d="M160.4,138 C160.2,138.6 160.1,139.2 160.1,139.8 L160.1,139.8 C160,139.1 160.1,138.5 160.4,138 Z" id="Path" fill="#FFFFFF" fill-rule="nonzero"></path>
            <path d="M193.1,140 L193.1,168 L181.5,168 C181.5,168.7 181.4,169.3 181.4,170 L195.1,170 L195.1,138 L188.9,138 C188.6,138.6 188.3,139.3 188,140 L193.1,140 Z" id="Path" fill="#FFFFFF" fill-rule="nonzero"></path>
            <path d="M150.4,160.2 C149.7,160 149,159.7 148.4,159.3 L148.4,169.9 L178.4,169.9 C178.4,169.2 178.5,168.6 178.5,167.9 L150.4,167.9 L150.4,160.2 Z" id="Path" fill="#FFFFFF" fill-rule="nonzero"></path>
            <path d="M187.4,139.8 L187.4,139.8 C187.4,139.9 187.4,139.9 187.4,140 L188.1,140 C188.4,139.3 188.7,138.6 189,138 L187.2,138 C187.3,138.5 187.4,139.1 187.4,139.8 Z" id="Path" fill="#FFFFFF" fill-rule="nonzero"></path>
            <path d="M178.5,167.9 C178.5,168.6 178.4,169.2 178.4,169.9 L181.4,169.9 C181.4,169.2 181.5,168.6 181.5,167.9 L178.5,167.9 Z" id="Path" fill="#FFFFFF" fill-rule="nonzero"></path>
            <path d="M187.4,140 C187.4,139.9 187.4,139.9 187.4,139.8 L187.4,139.8 C187.4,139.8 187.4,139.9 187.4,140 Z" id="Path" fill="#FFFFFF" fill-rule="nonzero"></path>
            <path d="M150.4,144.2 L150.4,140 L158.1,140 C158.1,139.9 158.1,139.9 158.1,139.8 L158.1,139.8 C158.1,139.2 158.2,138.6 158.3,138 L149.1,138 C148.9,138.1 148.6,138.3 148.4,138.4 L148.4,144.2 L150.4,144.2 Z" id="Path" fill="#FFFFFF" fill-rule="nonzero"></path>
            <path d="M148.4,156.9 C149,157.3 149.7,157.7 150.4,158 L150.4,147.1 L148.4,147.1 L148.4,156.9 Z" id="Path" fill="#FFFFFF" fill-rule="nonzero"></path>
            <rect id="Rectangle" fill="#FFFFFF" fill-rule="nonzero" x="148.4" y="144.2" width="2" height="3"></rect>
            <path d="M158,139.8 L158,139.8 C158,139.9 158,139.9 158,140 L158,140 C158,139.9 158,139.8 158,139.8 Z" id="Path" fill="#FFFFFF" fill-rule="nonzero"></path>
            <path d="M164.3,134.5 L179,134.5 C181.2,134.5 183.2,135.9 184,138 L185.7,138 C185.8,137.8 185.8,137.6 185.9,137.5 C184.9,134.5 182.1,132.5 179,132.5 L164.3,132.5 C162.1,132.5 160.1,133.5 158.7,135.1 C159.4,135.3 160.1,135.6 160.7,135.9 C161.7,135 163,134.5 164.3,134.5 Z" id="Path" fill="#FFFFFF" fill-rule="nonzero"></path>
            <path d="M186.1,138 C186.1,137.8 186,137.7 185.9,137.5 C185.8,137.7 185.8,137.8 185.7,138 L186.1,138 Z" id="Path" fill="#FFFFFF" fill-rule="nonzero"></path>
            <path d="M158.3,138 L159.4,138 C159.5,137.9 159.5,137.7 159.6,137.6 C159,137.3 158.3,137.1 157.7,136.9 C157.5,137.3 157.4,137.6 157.3,138 L158.3,138 Z" id="Path" fill="#FFFFFF" fill-rule="nonzero"></path>
            <path d="M148.4,138.4 L148.4,138 L149.1,138 C151.7,136.5 154.8,136.1 157.7,136.9 C158,136.3 158.4,135.7 158.8,135.1 C151.9,132.9 144.4,136.7 142.2,143.6 C142.1,143.8 142.1,144 142,144.2 L144.1,144.2 C144.8,141.8 146.3,139.8 148.4,138.4 Z" id="Path" fill="#FFFFFF" fill-rule="nonzero"></path>
            <path d="M143.5,147.7 C143.5,147.5 143.5,147.4 143.5,147.2 L141.5,147.2 C141.5,147.4 141.5,147.5 141.5,147.7 C141.5,152.5 144.1,157 148.4,159.3 L148.4,156.9 C145.3,154.8 143.5,151.4 143.5,147.7 Z" id="Path" fill="#FFFFFF" fill-rule="nonzero"></path>
            <path d="M143.5,147.2 C143.5,146.2 143.7,145.2 144,144.2 L142,144.2 C141.7,145.2 141.6,146.2 141.5,147.2 L143.5,147.2 Z" id="Path" fill="#FFFFFF" fill-rule="nonzero"></path>
            <path d="M165.5,140 C165,139.3 164.4,138.6 163.7,138 L160.4,138 C161.3,138.5 162.2,139.2 162.9,140 L165.5,140 Z" id="Path" fill="#FFFFFF" fill-rule="nonzero"></path>
            <path d="M148.4,138 L148.4,138.4 C148.6,138.2 148.9,138.1 149.1,138 L148.4,138 Z" id="Path" fill="#FFFFFF" fill-rule="nonzero"></path>
            <path d="M150.4,158 C149.7,157.7 149,157.3 148.4,156.9 L148.4,159.3 C149,159.7 149.7,159.9 150.4,160.2 L150.4,158 Z" id="Path" fill="#FFFFFF" fill-rule="nonzero"></path>
            <path d="M159.5,137.5 C159.8,136.9 160.2,136.3 160.7,135.9 C160.1,135.6 159.4,135.3 158.7,135.1 C158.2,135.6 157.9,136.2 157.6,136.9 C158.3,137 158.9,137.2 159.5,137.5 Z" id="Path" fill="#FFFFFF" fill-rule="nonzero"></path>
            <path d="M210.2,142.9 C205.4,146.5 204.5,154.5 204.5,154.5 L202.2,154.5 C201.3,152.1 199.9,149.9 198.1,148.1 L200.7,148.1 C201.5,149.3 202.2,150.5 202.8,151.8 C202.8,151.8 204.5,145.3 208.9,141.9 L210.2,142.9 Z" id="Path" fill="#E2E2E4" fill-rule="nonzero"></path>
            <path d="M315.5,438.6 C300.5,449.9 297.8,474.9 297.8,474.9 L290.7,474.9 C284.7,460.9 277.9,454.8 277.9,454.8 L286.1,454.8 C286.1,454.8 290.7,461.1 292.7,466.4 C292.7,466.4 298,446.1 311.8,435.6 L315.5,438.6 Z" id="Path" fill="#E2E2E4" fill-rule="nonzero"></path>
            <path d="M370.2,178 L283.8,178 L283.8,53.2 L370.2,53.2 L370.2,178 Z M285.4,176.5 L368.5,176.5 L368.5,54.8 L285.4,54.8 L285.4,176.5 Z" id="Shape" fill="#E2E2E4" fill-rule="nonzero"></path>
            <polygon id="Path" fill="#FFFFFF" fill-rule="nonzero" points="446.8 77.4 430.6 101.1 438.7 101.1 438.7 136 446.8 136 454.9 136 454.9 101.1 463 101.1"></polygon>
            <path d="M419.2,153.6 L421.7,153.6 C422.3,153.6 422.9,153.7 423.5,153.8 C424,153.9 424.5,154.2 424.9,154.5 C425.3,154.8 425.7,155.2 425.9,155.7 C426.2,156.3 426.3,156.9 426.3,157.5 C426.3,158.1 426.2,158.6 426,159.1 C425.8,159.6 425.4,160 425,160.3 C424.6,160.6 424.1,160.9 423.6,161 C423.1,161.2 422.5,161.3 422,161.3 L419.2,161.3 L419.2,153.6 Z M420.9,159.7 L421.8,159.7 C422.2,159.7 422.5,159.7 422.9,159.6 C423.2,159.5 423.5,159.4 423.8,159.2 C424.1,159 424.2,158.8 424.4,158.5 C424.6,158.2 424.6,157.8 424.6,157.4 C424.6,157.1 424.5,156.7 424.4,156.4 C424.3,156.1 424.1,155.9 423.8,155.7 C423.5,155.5 423.3,155.4 423,155.3 C422.7,155.2 422.3,155.2 422,155.2 L421,155.2 L420.9,159.7 Z" id="Shape" fill="#E2E2E4" fill-rule="nonzero"></path>
            <path d="M429.9,153.6 L431.3,153.6 L434.6,161.3 L432.7,161.3 L432,159.7 L429,159.7 L428.4,161.3 L426.5,161.3 L429.9,153.6 Z M430.6,155.8 L429.7,158.2 L431.6,158.2 L430.6,155.8 Z" id="Shape" fill="#E2E2E4" fill-rule="nonzero"></path>
            <polygon id="Path" fill="#E2E2E4" fill-rule="nonzero" points="435.9 155.1 433.7 155.1 433.7 153.6 439.8 153.6 439.8 155.1 437.6 155.1 437.6 161.3 435.9 161.3 435.9 155.1"></polygon>
            <path d="M442.2,153.6 L443.6,153.6 L446.9,161.3 L445,161.3 L444.3,159.7 L441.3,159.7 L440.7,161.3 L438.9,161.3 L442.2,153.6 Z M442.8,155.8 L441.9,158.2 L443.8,158.2 L442.8,155.8 Z" id="Shape" fill="#E2E2E4" fill-rule="nonzero"></path>
            <path d="M447.7,153.6 L450.6,153.6 C450.9,153.6 451.3,153.6 451.6,153.7 C451.9,153.7 452.2,153.8 452.5,154 C452.8,154.1 453,154.3 453.2,154.6 C453.4,154.9 453.5,155.3 453.4,155.6 C453.4,156 453.3,156.4 453,156.7 C452.7,157 452.4,157.2 452,157.3 L452,157.3 C452.2,157.3 452.5,157.4 452.7,157.5 C452.9,157.6 453.1,157.7 453.2,157.9 C453.4,158.1 453.5,158.3 453.5,158.5 C453.6,158.7 453.6,159 453.6,159.2 C453.6,159.6 453.5,159.9 453.3,160.2 C453.1,160.5 452.9,160.7 452.6,160.9 C452.3,161.1 452,161.2 451.7,161.3 C451.4,161.4 451,161.4 450.7,161.4 L447.6,161.4 L447.7,153.6 Z M449.4,156.6 L450.6,156.6 C450.7,156.6 450.9,156.6 451,156.6 C451.1,156.6 451.2,156.5 451.3,156.5 C451.4,156.4 451.5,156.3 451.5,156.2 C451.6,156.1 451.6,155.9 451.6,155.8 C451.6,155.7 451.6,155.5 451.5,155.4 C451.4,155.3 451.3,155.2 451.2,155.2 C451.1,155.1 451,155.1 450.8,155.1 C450.7,155.1 450.5,155.1 450.4,155.1 L449.2,155.1 L449.2,156.6 L449.4,156.6 Z M449.4,159.8 L450.9,159.8 C451,159.8 451.2,159.8 451.3,159.8 C451.4,159.8 451.6,159.7 451.7,159.7 C451.8,159.6 451.9,159.5 452,159.4 C452.1,159.3 452.1,159.1 452.1,159 C452.1,158.8 452.1,158.7 452,158.5 C451.9,158.4 451.8,158.3 451.7,158.2 C451.6,158.1 451.4,158.1 451.2,158.1 L450.8,158.1 L449.5,158.1 L449.4,159.8 Z" id="Shape" fill="#E2E2E4" fill-rule="nonzero"></path>
            <path d="M457.2,153.6 L458.6,153.6 L461.9,161.3 L460,161.3 L459.3,159.7 L456.3,159.7 L455.7,161.3 L453.9,161.3 L457.2,153.6 Z M457.9,155.8 L457,158.2 L458.9,158.2 L457.9,155.8 Z" id="Shape" fill="#E2E2E4" fill-rule="nonzero"></path>
            <path d="M466.5,155.5 C466.4,155.3 466.2,155.2 465.9,155.1 C465.7,155 465.5,155 465.2,155 C465.1,155 465,155 464.8,155 C464.7,155 464.5,155.1 464.4,155.1 C464.3,155.2 464.2,155.2 464.1,155.4 C464,155.5 464,155.6 464,155.8 C464,156 464.1,156.2 464.3,156.3 C464.5,156.4 464.7,156.5 465,156.6 L465.8,156.9 C466.1,157 466.4,157.1 466.6,157.3 C466.9,157.5 467.1,157.7 467.3,157.9 C467.5,158.2 467.6,158.6 467.6,159 C467.6,159.4 467.5,159.8 467.4,160.1 C467.2,160.4 467,160.7 466.7,160.9 C466.4,161.1 466.1,161.3 465.8,161.4 C465,161.6 464.1,161.6 463.3,161.3 C462.9,161.1 462.4,160.9 462.1,160.6 L463.3,159.3 C463.5,159.5 463.7,159.7 464,159.8 C464.3,159.9 464.5,160 464.8,160 C464.9,160 465.1,160 465.2,159.9 C465.3,159.9 465.5,159.8 465.6,159.8 C465.7,159.8 465.8,159.7 465.9,159.6 C466,159.5 466,159.4 466,159.2 C466,159 465.9,158.8 465.7,158.6 C465.5,158.5 465.3,158.3 465,158.3 L464.1,158 C463.8,157.9 463.5,157.8 463.2,157.6 C462.9,157.4 462.7,157.2 462.5,157 C462.3,156.7 462.2,156.4 462.2,156 C462.2,155.3 462.5,154.6 463.1,154.1 C463.4,153.9 463.7,153.7 464,153.6 C464.4,153.5 464.7,153.4 465.1,153.4 C465.5,153.4 465.9,153.5 466.4,153.6 C466.8,153.7 467.2,153.9 467.5,154.2 L466.5,155.5 Z" id="Path" fill="#E2E2E4" fill-rule="nonzero"></path>
            <polygon id="Path" fill="#E2E2E4" fill-rule="nonzero" points="469 153.6 474.2 153.6 474.2 155.2 470.7 155.2 470.7 156.6 474 156.6 474 158.2 470.7 158.2 470.7 159.8 474.4 159.8 474.4 161.4 469 161.4"></polygon>
            <path d="M410.5,116.3 L405.4,111.2 C404.9,110.9 404.3,111 404,111.5 C403.8,111.8 403.8,112.3 404,112.6 L407.5,116 L386.9,116 C386.3,116 385.9,116.4 385.9,117 C385.9,117.6 386.3,118 386.9,118 L408,118 L404,122 C403.7,122.5 403.8,123.1 404.3,123.4 C404.6,123.6 405.1,123.6 405.4,123.4 L410.5,118.3 C410.7,117.7 410.7,117 410.5,116.3 L410.5,116.3 Z" id="Path" fill="#E2E2E4" fill-rule="nonzero"></path>
            <path d="M432.2,142.9 L432.2,146.3 C432.2,146.5 432.2,146.7 432.3,146.8 C432.3,147 432.4,147.2 432.5,147.3 C432.6,147.5 432.8,147.6 432.9,147.7 C433.3,147.9 433.8,147.9 434.2,147.7 C434.4,147.6 434.5,147.5 434.6,147.3 C434.7,147.1 434.8,147 434.8,146.8 C434.8,146.6 434.9,146.4 434.9,146.3 L434.9,142.9 L435.7,142.9 L435.7,146.4 C435.7,146.7 435.7,147 435.5,147.3 C435.4,147.6 435.2,147.8 435,148 C434.8,148.2 434.6,148.3 434.3,148.4 C433.8,148.6 433.2,148.6 432.6,148.4 C432.3,148.3 432.1,148.2 431.9,148 C431.7,147.8 431.6,147.6 431.4,147.3 C431.3,147 431.2,146.7 431.2,146.4 L431.2,143 L432.2,142.9 Z" id="Path" fill="#E2E2E4" fill-rule="nonzero"></path>
            <path d="M437.1,142.9 L439,142.9 C439.3,142.9 439.6,142.9 439.9,143 C440.1,143.1 440.3,143.2 440.4,143.4 C440.5,143.5 440.6,143.7 440.7,143.9 C440.8,144.3 440.8,144.6 440.7,145 C440.6,145.2 440.5,145.4 440.4,145.5 C440.2,145.7 440.1,145.8 439.9,145.9 C439.6,146 439.3,146.1 439,146 L437.8,146 L437.8,148.5 L437,148.5 L437,142.9 L437.1,142.9 Z M437.8,145.4 L438.8,145.4 C438.9,145.4 439.1,145.4 439.2,145.4 C439.3,145.4 439.5,145.3 439.6,145.3 C439.7,145.2 439.8,145.1 439.9,145 C440,144.9 440,144.7 440,144.5 C440,144.3 440,144.2 439.9,144.1 C439.8,144 439.7,143.9 439.6,143.8 C439.5,143.7 439.4,143.7 439.2,143.7 C439.1,143.7 438.9,143.7 438.8,143.7 L437.8,143.7 L437.8,145.4 Z" id="Shape" fill="#E2E2E4" fill-rule="nonzero"></path>
            <polygon id="Path" fill="#E2E2E4" fill-rule="nonzero" points="441.7 142.9 442.5 142.9 442.5 147.7 445 147.7 445 148.4 441.7 148.4"></polygon>
            <path d="M448.2,148.6 C447.8,148.6 447.4,148.5 447,148.4 C446.7,148.3 446.3,148.1 446.1,147.8 C445.8,147.5 445.6,147.2 445.5,146.9 C445.4,146.5 445.3,146.2 445.3,145.8 C445.3,145.4 445.4,145 445.5,144.7 C445.6,144.4 445.8,144.1 446.1,143.8 C446.4,143.5 446.7,143.3 447,143.2 C447.4,143 447.8,143 448.2,143 C448.6,143 449,143.1 449.4,143.2 C449.7,143.3 450,143.5 450.3,143.8 C450.6,144.1 450.8,144.4 450.9,144.7 C451,145.1 451.1,145.5 451.1,145.8 C451.1,146.2 451,146.6 450.9,146.9 C450.8,147.2 450.6,147.6 450.3,147.8 C450,148.1 449.7,148.3 449.4,148.4 C449,148.5 448.6,148.6 448.2,148.6 Z M448.2,147.9 C448.5,147.9 448.8,147.8 449,147.7 C449.2,147.6 449.5,147.4 449.7,147.2 C449.9,147 450,146.8 450.1,146.5 C450.2,146.2 450.3,145.9 450.3,145.6 C450.3,145.3 450.3,145 450.1,144.7 C450,144.4 449.9,144.2 449.7,144 C449.3,143.6 448.8,143.4 448.2,143.4 C447.9,143.4 447.6,143.5 447.3,143.6 C447.1,143.7 446.8,143.9 446.6,144.1 C446.4,144.3 446.3,144.5 446.2,144.8 C446.1,145.1 446,145.4 446,145.7 C446,146 446,146.3 446.2,146.6 C446.3,146.9 446.4,147.1 446.6,147.3 C446.8,147.5 447,147.7 447.3,147.8 C447.6,147.8 447.9,147.9 448.2,147.9 L448.2,147.9 Z" id="Shape" fill="#E2E2E4" fill-rule="nonzero"></path>
            <path d="M453.9,142.9 L454.6,142.9 L456.9,148.4 L456,148.4 L455.4,147 L452.8,147 L452.3,148.4 L451.4,148.4 L453.9,142.9 Z M455.2,146.4 L454.2,143.9 L454.2,143.9 L453.2,146.4 L455.2,146.4 Z" id="Shape" fill="#E2E2E4" fill-rule="nonzero"></path>
            <path d="M457.5,142.9 L459.4,142.9 C459.7,142.9 460.1,142.9 460.4,143 C460.7,143.1 460.9,143.2 461.2,143.4 C461.4,143.5 461.6,143.7 461.7,143.9 C461.8,144.1 461.9,144.3 462,144.5 C462.1,144.7 462.1,144.9 462.2,145.1 C462.2,145.3 462.2,145.5 462.2,145.7 C462.2,146 462.1,146.4 462,146.7 C461.9,147 461.7,147.3 461.4,147.6 C461.1,147.9 460.8,148.1 460.5,148.2 C460.1,148.4 459.6,148.4 459.2,148.4 L457.4,148.4 L457.5,142.9 Z M458.3,147.7 L459.2,147.7 C459.5,147.7 459.8,147.7 460.1,147.6 C460.4,147.5 460.6,147.4 460.9,147.2 C461.1,147 461.3,146.8 461.4,146.6 C461.5,146.3 461.6,146 461.6,145.7 C461.6,145.5 461.6,145.3 461.5,145.1 C461.4,144.9 461.3,144.6 461.2,144.4 C461,144.2 460.8,144 460.5,143.9 C460.2,143.7 459.8,143.7 459.4,143.7 L458.3,143.7 L458.3,147.7 L458.3,147.7 Z" id="Shape" fill="#E2E2E4" fill-rule="nonzero"></path>
            <path d="M349.2,166.7 C346.6,166.7 344.4,163.3 344.4,159.2 C344.4,155.1 346.5,151.6 349.2,151.6 C351.9,151.6 354,155 354,159.2 C354,163.4 351.8,166.7 349.2,166.7 Z M349.2,152.2 C346.9,152.2 344.9,155.4 344.9,159.2 C344.9,163 346.8,166.2 349.2,166.2 C351.6,166.2 353.5,163 353.5,159.2 C353.5,155.4 351.5,152.2 349.2,152.2 L349.2,152.2 Z" id="Shape" stroke="#E2E2E4" stroke-width="0.25" fill="#E2E2E4" fill-rule="nonzero"></path>
            <rect id="Rectangle" stroke="#E2E2E4" stroke-width="0.25" fill="#E2E2E4" fill-rule="nonzero" x="345.2" y="162.4" width="7.7" height="1"></rect>
            <path d="M348.8,176.7 L348.5,176.4 C350.3,174.3 348.6,166.7 348.6,166.6 L348.6,162.7 L349,162.7 L349,166.5 C349.1,167.1 350.6,174.4 348.8,176.7 Z" id="Path" stroke="#E2E2E4" stroke-width="0.25" fill="#E2E2E4" fill-rule="nonzero"></path>
            <path d="M2.1,288 L233,288" id="Path" stroke="#E2E2E4" stroke-width="2"></path>
            <path d="M114.2,416.4 C113.9,417.7 113.5,419 113.2,420.2 C113.9,422.5 114.9,424.8 116,426.9 C116.3,426 116.7,425.2 117,424.4 C115.8,421.9 114.8,419.2 114.2,416.4 Z" id="Path" fill="#FFFFFF" fill-rule="nonzero"></path>
            <path d="M118.4,369.5 C118.7,369.6 119,369.7 119.3,369.9 C122.1,365.7 125.5,363.2 129.2,363.2 C131.9,363.2 134.5,364.5 136.7,366.9 C136.9,366.5 137.3,366.1 137.8,366 C138.1,365.9 138.3,365.9 138.6,366 C135.8,362.9 132.6,361.2 129.2,361.2 C124.5,361.2 120.2,364.5 116.9,369.9 C117.4,369.5 117.9,369.4 118.4,369.5 Z" id="Path" fill="#FFFFFF" fill-rule="nonzero"></path>
            <path d="M146.1,417.4 C145.7,416.2 145.3,415 144.9,413.7 C144.4,416.4 143.6,419 142.7,421.6 C143,422.7 143.3,423.7 143.6,424.7 C144.6,422.3 145.4,419.9 146.1,417.4 Z" id="Path" fill="#FFFFFF" fill-rule="nonzero"></path>
            <path d="M118.1,426.8 C117.7,426 117.3,425.3 116.9,424.4 C116.6,425.2 116.2,426 115.9,426.9 C116.3,427.7 116.7,428.4 117.2,429.1 C117.5,428.4 117.8,427.6 118.1,426.8 Z" id="Path" fill="#FFFFFF" fill-rule="nonzero"></path>
            <path d="M142.7,421.5 C142.3,422.5 141.9,423.5 141.5,424.5 C141.8,425.5 142,426.4 142.3,427.4 C142.8,426.5 143.2,425.6 143.6,424.7 C143.3,423.7 143,422.6 142.7,421.5 Z" id="Path" fill="#FFFFFF" fill-rule="nonzero"></path>
            <path d="M113.2,411.9 C112.8,413.5 112.5,415 112.1,416.4 C112.4,417.7 112.8,419 113.2,420.2 C113.5,419 113.9,417.7 114.2,416.4 C113.8,415 113.5,413.5 113.2,411.9 Z" id="Path" fill="#FFFFFF" fill-rule="nonzero"></path>
            <path d="M118,371.6 C118,371.7 118.1,371.8 118.1,371.9 C118.5,371.2 118.9,370.6 119.3,370 C119.1,369.8 118.8,369.6 118.4,369.6 C117.9,369.5 117.3,369.6 116.9,370 C113.3,376 110.8,384.8 110.2,394.8 C113.4,381.2 116.6,372.9 118,371.6 Z" id="Path" fill="#FFFFFF" fill-rule="nonzero"></path>
            <path d="M149.4,398.5 C152.8,412 154.3,422.1 154.4,427.2 C155,426 155.6,424.8 156.2,423.6 C156.1,422.9 156.1,422.1 156,421.3 C153.7,405.6 149.8,390.2 144.4,375.3 C141.6,368.1 139.9,366.2 138.7,365.9 C143.7,371.5 147.2,381.4 148.1,393.3 C148.5,395.1 148.9,396.8 149.4,398.5 Z" id="Path" fill="#FFFFFF" fill-rule="nonzero"></path>
            <path d="M146.1,417.4 C146.8,419.5 147.5,421.5 148.2,423.3 C150.1,428 151.4,430.5 152.5,431.7 C152.8,431 153.1,430.3 153.4,429.6 C151.9,427.3 149.6,421.8 147,413.6 C146.7,414.9 146.4,416.2 146.1,417.4 Z" id="Path" fill="#FFFFFF" fill-rule="nonzero"></path>
            <path d="M146.9,413.6 C146.5,412.2 146,410.8 145.6,409.3 C145.4,410.8 145.1,412.3 144.9,413.7 C145.3,415 145.7,416.2 146.1,417.4 C146.4,416.2 146.7,414.9 146.9,413.6 Z" id="Path" fill="#FFFFFF" fill-rule="nonzero"></path>
            <path d="M137.9,366 C137.4,366.1 137,366.4 136.8,366.9 C137.3,367.5 137.8,368 138.3,368.7 C138.3,368.5 138.4,368.3 138.4,368.2 C140,369.6 144,378.7 148.1,393.5 C147.2,381.6 143.7,371.6 138.7,366.1 C138.4,365.9 138.2,365.9 137.9,366 Z" id="Path" fill="#FFFFFF" fill-rule="nonzero"></path>
            <path d="M154.2,430.6 C154.5,429.5 154.6,428.4 154.5,427.3 C154.1,428.1 153.8,428.9 153.5,429.6 C153.6,429.9 153.9,430.3 154.2,430.6 Z" id="Path" fill="#FFFFFF" fill-rule="nonzero"></path>
            <path d="M164.6,414.4 C164.3,414.3 164.1,414.3 163.8,414.3 C164.3,414.4 164.8,414.5 165.2,414.8 C165.1,414.6 164.9,414.5 164.6,414.4 Z" id="Path" fill="#FFFFFF" fill-rule="nonzero"></path>
            <path d="M159.5,421.8 C159.5,421 159.5,420.1 159.6,419.3 C159.7,418.6 159.9,417.8 160.1,417.2 C158.6,419.2 157.3,421.4 156.1,423.7 C156.2,425.3 156.3,426.6 156.3,427.7 C157.5,425.3 158.5,423.4 159.5,421.8 Z" id="Path" fill="#FFFFFF" fill-rule="nonzero"></path>
            <path d="M163.7,416.3 L163.5,416.3 L163.2,416.3 C162.7,416.4 162.2,417.1 161.9,418 C162.4,417.3 163,416.7 163.7,416.3 Z" id="Path" fill="#FFFFFF" fill-rule="nonzero"></path>
            <path d="M154.2,430.6 C153.9,430.3 153.6,430 153.4,429.6 C153.1,430.3 152.8,431 152.5,431.7 C152.9,432.3 153.5,432.6 154.2,432.7 C155,430.8 155.7,429.2 156.4,427.6 C156.4,426.5 156.3,425.2 156.2,423.6 C155.6,424.8 155,426 154.4,427.2 C154.5,428.3 154.4,429.5 154.2,430.6 Z" id="Path" fill="#FFFFFF" fill-rule="nonzero"></path>
            <path d="M163.9,414.3 C163.5,414.3 163.2,414.3 162.8,414.4 C161.5,414.8 160.5,415.9 160.2,417.2 C161.4,415.5 162.7,414.4 163.9,414.3 Z" id="Path" fill="#FFFFFF" fill-rule="nonzero"></path>
            <path d="M163.9,416.2 L163.9,416.2 C163.8,416.2 163.8,416.2 163.7,416.3 C163.8,416.3 163.9,416.3 164,416.4 C164,416.3 163.9,416.3 163.9,416.2 Z" id="Path" fill="#FFFFFF" fill-rule="nonzero"></path>
            <path d="M159.5,421.8 C160.2,420.5 161.1,419.2 162,418 C162.3,417.1 162.8,416.5 163.3,416.3 L163.6,416.3 L163.8,416.3 C163.9,416.3 163.9,416.3 164,416.2 L164,416.2 C164,416.2 164.1,416.3 164.1,416.3 C165,416.7 165.8,417.4 166.4,418.3 L166.5,418.4 C166.5,416.2 166,415.2 165.4,414.7 C165,414.5 164.5,414.3 164,414.2 C162.9,414.3 161.6,415.4 160.3,417 C160,417.7 159.9,418.4 159.8,419.1 C159.5,420.1 159.4,420.9 159.5,421.8 Z" id="Path" fill="#FFFFFF" fill-rule="nonzero"></path>
            <path d="M139.6,456.9 C141.7,461.3 143.4,463.3 144.4,464.1 C144.9,464.5 145.2,464.6 145.4,464.5 C145.6,464.4 146,464.1 146.2,463.4 C146.2,463.7 146.3,464 146.5,464.2 L146.5,464.2 C146.9,464.2 147.5,463.6 148.4,462.5 C149.7,460.7 150.9,458.8 152,456.8" id="Path"></path>
            <path d="M129.2,437.5 C128.8,437.5 128.4,437.5 128,437.4 C127.2,441.9 126.3,446.3 125.3,450.3 C124.9,451.9 124.5,453.4 124.1,455 L136.5,455 C134.1,449.3 132.1,443.5 130.4,437.6 C130,437.5 129.6,437.5 129.2,437.5 Z" id="Path"></path>
            <path d="M2.1,454.9 L2.1,456.9 L107.5,456.9 C107.6,456.2 107.8,455.6 107.9,454.9 L2.1,454.9 Z" id="Path" fill="#FFFFFF" fill-rule="nonzero"></path>
            <path d="M233,454.9 L155.3,454.9 C155,455.6 154.6,456.2 154.3,456.9 L233,456.9 L233,454.9 Z" id="Path" fill="#FFFFFF" fill-rule="nonzero"></path>
            <path d="M136.5,454.9 L124.1,454.9 C123.9,455.6 123.7,456.2 123.5,456.9 L137.4,456.9 L137.4,456.8 C137.1,456.3 136.8,455.6 136.5,454.9 Z" id="Path" fill="#FFFFFF" fill-rule="nonzero"></path>
            <path d="M146.8,438.6 L146.8,438.6 L147.2,440.9 C147.4,442 147.6,443.2 147.8,444.3 L149.7,437.8 L150.1,437.9 C150.5,436.9 151.4,434.6 152.5,431.8 C151.4,430.6 150.1,428.2 148.2,423.4 C147.5,421.6 146.8,419.6 146.1,417.5 C145.5,420 144.6,422.4 143.6,424.8 C144,426.1 144.3,427.4 144.6,428.6 C145.4,431.6 146.1,435.1 146.8,438.6 Z" id="Path"></path>
            <path d="M129.9,435.5 C129.6,434.5 129.3,433.5 129.1,432.4 C129,432.2 129,431.9 128.9,431.7 C128.7,432.9 128.6,434.2 128.4,435.5 C128.7,435.5 129,435.5 129.3,435.5 C129.4,435.5 129.6,435.5 129.9,435.5 Z" id="Path"></path>
            <path d="M129.2,437.5 C129.6,437.5 130,437.5 130.4,437.4 C130.2,436.8 130,436.1 129.9,435.4 C129.7,435.4 129.4,435.4 129.2,435.4 C128.9,435.4 128.6,435.4 128.3,435.4 L128,437.4 C128.4,437.4 128.8,437.5 129.2,437.5 Z" id="Path" fill="#FFFFFF" fill-rule="nonzero"></path>
            <path d="M115.2,474 C114.1,476.3 113.2,479 112.3,480.3 C112.5,480.8 112.6,481.4 112.6,482 C112.4,483.5 111.1,484.8 108.8,485.5 L109,485.5 C111.3,485.5 113.9,481.3 116.9,474.8 C119.5,469 121.7,463 123.4,456.9 L121.3,456.9 C119.8,462.7 117.7,468.4 115.2,474 Z" id="Path" fill="#FFFFFF" fill-rule="nonzero"></path>
            <path d="M125.3,450.3 C126.3,446.4 127.2,441.9 128,437.4 C127.3,437.3 126.7,437.2 126.1,437 C125.4,440.8 124.6,445.1 123.4,449.8 C123,451.6 122.5,453.3 122,454.9 L124.1,454.9 C124.5,453.4 124.9,451.9 125.3,450.3 Z" id="Path" fill="#FFFFFF" fill-rule="nonzero"></path>
            <path d="M122,454.9 C121.8,455.6 121.6,456.2 121.4,456.9 L123.5,456.9 C123.7,456.2 123.9,455.6 124.1,454.9 L122,454.9 Z" id="Path" fill="#FFFFFF" fill-rule="nonzero"></path>
            <path d="M111.7,446.9 C113.2,440.9 115,435 117.1,429.2 C116.7,428.5 116.2,427.8 115.8,427 C113.4,433.4 111.3,439.8 109.7,446.5 C109,449.4 108.3,452.3 107.8,455 L109.8,455 C110.4,452.3 111,449.6 111.7,446.9 Z" id="Path" fill="#FFFFFF" fill-rule="nonzero"></path>
            <path d="M107.5,472 C107.8,466.9 108.5,461.9 109.5,456.9 L107.5,456.9 C106.5,461.9 105.9,466.9 105.5,471.9 C105.5,472.9 105.4,473.8 105.4,474.7 C106.1,474.9 106.8,475.1 107.4,475.4 C107.4,474.4 107.5,473.3 107.5,472 Z" id="Path" fill="#FFFFFF" fill-rule="nonzero"></path>
            <path d="M109.9,454.9 L107.9,454.9 C107.8,455.6 107.6,456.2 107.5,456.9 L109.5,456.9 C109.6,456.3 109.8,455.6 109.9,454.9 Z" id="Path" fill="#FFFFFF" fill-rule="nonzero"></path>
            <path d="M128.4,435.5 C127.7,435.4 127.1,435.3 126.5,435.1 C126.4,435.7 126.3,436.4 126.2,437.1 C126.8,437.3 127.5,437.4 128.1,437.5 L128.4,435.5 Z" id="Path" fill="#FFFFFF" fill-rule="nonzero"></path>
            <path d="M145.1,440.1 L144.9,438.9 L146.8,438.6 C146.1,435.1 145.3,431.6 144.6,428.5 C144.3,427.3 144,426 143.6,424.7 C143.2,425.7 142.7,426.6 142.3,427.4 L142.7,428.9 C143.7,433 144.5,436.7 145.1,440.1 Z" id="Path" fill="#FFFFFF" fill-rule="nonzero"></path>
            <path d="M147.8,444.2 C147.6,443.1 147.4,442 147.2,440.8 L147.7,444.3 L147.8,444.2 Z" id="Path" fill="#FFFFFF" fill-rule="nonzero"></path>
            <path d="M144.4,464.1 C143.4,463.3 141.8,461.3 139.6,456.9 L137.4,456.9 C140.4,463.4 143,466.5 145.3,466.5 C145.5,466.5 145.7,466.5 145.9,466.4 C146.1,466.3 146.3,466.3 146.5,466.2 C146.3,466.2 146.1,466.2 145.9,466.1 C145.3,466 144.7,465.5 144.4,464.1 Z" id="Path" fill="#FFFFFF" fill-rule="nonzero"></path>
            <path d="M136.5,454.9 L138.7,454.9 C136.2,449.1 134,443.1 132.4,437 C131.7,437.2 131.1,437.3 130.4,437.4 C132,443.4 134.1,449.2 136.5,454.9 Z" id="Path" fill="#FFFFFF" fill-rule="nonzero"></path>
            <path d="M139.2,456 C139,455.6 138.9,455.3 138.7,454.9 L136.5,454.9 C136.8,455.6 137.1,456.2 137.4,456.8 L137.4,456.9 L139.6,456.9 L139.2,456 Z" id="Path" fill="#FFFFFF" fill-rule="nonzero"></path>
            <path d="M132.4,437 L131.9,435.1 C131.3,435.3 130.6,435.4 129.9,435.5 C130.1,436.2 130.3,436.8 130.4,437.5 C131.1,437.4 131.7,437.2 132.4,437 Z" id="Path" fill="#FFFFFF" fill-rule="nonzero"></path>
            <path d="M105.1,436.9 C105.2,436.9 105.3,436.9 105.5,436.9 C106.8,436.9 108.4,435.4 111.1,427.2 C111.8,425.1 112.5,422.7 113.2,420.2 C112.8,419 112.5,417.7 112.1,416.4 C109.4,427 106.8,433.5 105.5,434.7 C104.5,432.5 105,420.5 108.6,402.5 C109.1,399.7 109.7,397.1 110.3,394.6 C110.9,384.6 113.3,375.8 117,369.8 C115.9,370.7 114.5,373.1 112.5,379.1 C107.8,394.2 104.7,409.9 103.3,425.6 C102.6,435.1 103.7,436.6 105.1,436.9 Z" id="Path" fill="#FFFFFF" fill-rule="nonzero"></path>
            <path d="M151.6,438.2 L148.4,449.1 C148.4,449.1 148.4,449.2 148.4,449.3 C149.2,446.3 150.3,442.8 151.7,439 C152.5,436.7 153.3,434.6 154.1,432.7 C153.4,432.6 152.8,432.3 152.4,431.7 C151.2,434.5 150.4,436.8 150,437.8 L151.6,438.2 Z" id="Path" fill="#FFFFFF" fill-rule="nonzero"></path>
            <path d="M148.5,462.6 C148.1,464.4 147.5,465.7 146.5,466.2 L146.5,466.2 C148.8,466.2 151.7,461.9 154.3,456.9 L152,456.9 C151,458.9 149.9,460.8 148.5,462.6 Z" id="Path" fill="#FFFFFF" fill-rule="nonzero"></path>
            <path d="M160.7,442.2 C161.6,439.7 162.4,437.2 163.2,434.8 C162.7,434 162.2,433.1 161.9,432.3 C161.1,435.1 160.1,438.2 158.9,441.6 C157.3,446.2 155.4,450.6 153.2,455 L155.4,455 C158.2,449 160.5,442.7 160.7,442.2 Z" id="Path" fill="#FFFFFF" fill-rule="nonzero"></path>
            <path d="M153.1,454.9 C152.7,455.6 152.4,456.3 152.1,456.9 L154.4,456.9 C154.7,456.2 155.1,455.6 155.4,454.9 L153.1,454.9 Z" id="Path" fill="#FFFFFF" fill-rule="nonzero"></path>
            <path d="M148.5,462.6 C147.6,463.7 147,464.3 146.6,464.3 L146.6,464.3 C146.4,464.1 146.3,463.8 146.3,463.5 C146.1,464.1 145.8,464.5 145.5,464.6 C145.2,464.7 144.9,464.5 144.5,464.2 C144.8,465.6 145.4,466 146,466.2 C146.2,466.3 146.4,466.3 146.6,466.3 C147.5,465.7 148.1,464.5 148.5,462.6 Z" id="Path" fill="#FFFFFF" fill-rule="nonzero"></path>
            <path d="M106.8,484 C104.5,484.4 102.1,484.5 99.8,484.1 C93.3,483.3 89.6,480.7 89.8,479.1 C90.2,477.6 91.4,476.5 92.8,476 C94.3,475.6 95.9,475.4 97.5,475.4 C98.6,475.4 99.6,475.5 100.7,475.6 C102.3,475.8 103.9,476.1 105.5,476.6 C105.5,475.9 105.5,475.3 105.5,474.5 C104,474 102.5,473.7 101,473.5 C98.1,473.1 95.2,473.2 92.4,473.9 C89.7,474.6 88.1,476 87.9,477.6 C87.4,481.3 93.6,485.1 99.6,485.8 C100.7,485.9 101.9,486 103.1,486 C104.8,486 106.6,485.8 108.3,485.4 L109,485.2 C108.9,485.2 108.8,485.2 108.6,485.2 C107.7,485.2 107.1,484.7 106.8,484 Z" id="Path" fill="#FFFFFF" fill-rule="nonzero"></path>
            <path d="M107.5,477.6 C107.5,476.9 107.4,476.2 107.4,475.4 C106.8,475.1 106.1,474.9 105.4,474.7 C105.4,475.4 105.4,476.1 105.4,476.8 C106.2,477 106.8,477.3 107.5,477.6 Z" id="Path" fill="#FFFFFF" fill-rule="nonzero"></path>
            <path d="M112.7,482 C112.8,481.4 112.7,480.8 112.4,480.3 C110.7,483 109.5,483.7 109,483.6 C108.9,483.6 108.9,483.5 108.8,483.5 C108.4,483.7 108,483.8 107.7,483.9 C107.4,484 107.1,484.1 106.8,484.1 C107.2,484.8 107.8,485.3 108.6,485.6 C108.7,485.6 108.8,485.6 109,485.6 C111.1,484.7 112.5,483.5 112.7,482 Z" id="Path" fill="#FFFFFF" fill-rule="nonzero"></path>
            <path d="M163.8,435.8 C165.2,437.7 166.7,438.7 168.2,438.7 C168.4,438.7 168.7,438.7 168.9,438.6 C172.5,437.7 172.9,430.9 171.4,425.1 C170.7,422.3 169.6,419.6 167.9,417.2 C167.2,416.2 166.3,415.4 165.3,414.8 C165.9,415.3 166.3,416.3 166.4,418.5 C167.9,420.7 168.9,423.1 169.5,425.6 C171.1,431.9 170,436.3 168.5,436.7 C167.7,436.9 166.6,436.1 165.5,434.6 C164.9,433.8 164.4,433 164,432.1 C163.7,433 163.5,433.9 163.2,434.8 C163.3,435.2 163.6,435.5 163.8,435.8 Z" id="Path" fill="#FFFFFF" fill-rule="nonzero"></path>
            <path d="M163.9,432.1 C163.4,431.1 163,430 162.7,429 C162.4,430 162.1,431.2 161.8,432.3 C162.2,433.2 162.6,434 163.1,434.8 C163.4,433.9 163.7,433 163.9,432.1 Z" id="Path" fill="#FFFFFF" fill-rule="nonzero"></path>
            <path d="M146.4,449.1 C146.1,446.4 145.7,443.4 145,440.1 L147,453.8 L148.4,449.1 C148.2,447.6 148,446 147.8,444.4 C147.3,446 146.9,447.6 146.4,449.1 Z" id="Path" fill="#FFFFFF" fill-rule="nonzero"></path>
            <path d="M149.9,438.3 C149.9,438.2 150,438 150.1,437.8 L149.7,437.7 L147.8,444.2 L147.8,444.4 C148.4,442.5 149.1,440.4 149.9,438.3 Z" id="Path" fill="#FFFFFF" fill-rule="nonzero"></path>
            <path d="M146.9,438.6 L146.9,438.6 C147,439.3 147.1,440.1 147.2,440.8 L146.9,438.6 Z" id="Path" fill="#FFFFFF" fill-rule="nonzero"></path>
            <path d="M147.8,444.4 L147.8,444.2 L147.8,444.4 L147.2,440.8 C147.1,440 146.9,439.3 146.8,438.6 L144.9,438.9 L145.1,440.1 C145.7,443.4 146.2,446.4 146.5,449.1 C146.9,447.6 147.3,446 147.8,444.4 Z" id="Path" fill="#FFFFFF" fill-rule="nonzero"></path>
            <path d="M150.1,437.8 C150,438.1 149.9,438.3 149.9,438.3 C149.1,440.4 148.5,442.4 147.9,444.4 C148.1,446 148.4,447.6 148.5,449.1 L151.7,438.2 L150.1,437.8 Z" id="Path" fill="#FFFFFF" fill-rule="nonzero"></path>
            <rect id="Rectangle" stroke="#E2E2E4" stroke-width="1.9999977" transform="translate(27.955050, 316.236650) rotate(-81.378859) translate(-27.955050, -316.236650) " x="22.2550566" y="302.236666" width="11.3999869" height="27.9999678"></rect>
            <path d="M42.5,322.6 C42.3,322.6 42,322.6 41.8,322.5 L42,321.2 C43.5,321.5 44.9,320.5 45.1,319 C45.1,319 45.1,319 45.1,319 C45.3,317.5 44.4,316.1 42.9,315.9 L43.1,314.6 C45.3,315.1 46.6,317.2 46.2,319.3 C45.9,321.2 44.4,322.5 42.5,322.6 L42.5,322.6 Z" id="Path" fill="#E2E2E4" fill-rule="nonzero"></path>
            <path d="M14.2,316.6 L2.1,304.9" id="Path" stroke="#E2E2E4" stroke-width="2"></path>
            <path d="M14.2,311.6 L2.1,299.9" id="Path" stroke="#E2E2E4" stroke-width="2"></path>
            <path d="M60.9,317.2 C61.9,316.8 98.6,314.1 98.6,314.1" id="Path" stroke="#E2E2E4" fill="#E2E2E4" fill-rule="nonzero"></path>
            <path d="M60.6,322.6 C61.9,323.1 98.3,327.1 98.3,327.1" id="Path" stroke="#E2E2E4" fill="#E2E2E4" fill-rule="nonzero"></path>
            <path d="M57.9,328.1 L97.6,342.6" id="Path" stroke="#E2E2E4"></path>
            <circle id="Oval" stroke="#E2E2E4" cx="380" cy="428.1" r="7.1"></circle>
            <circle id="Oval" stroke="#E2E2E4" cx="379.9" cy="427.9" r="4.8"></circle>
            <path d="M419.2,416.7 C420.5,417.4 421.8,418.1 423,418.7 L423,398.1 C421.7,397.7 420.4,397.2 419.2,396.6 L419.2,416.7 Z" id="Path"></path>
            <path d="M415.3,417.5 L340.8,417.5 L340.8,302.6 L419.2,302.6 L419.2,393.8 C420.4,394.4 421.7,395 423,395.5 L423,295.3 L336.8,295.3 L336.8,439.1 L423,439.1 L423,421.6 L422.8,421.5 C420.5,420.2 417.9,418.9 415.3,417.5 Z" id="Path"></path>
            <path d="M425.7,328.2 L426,329 L426,292.3 L333.8,292.3 L333.8,442.1 L423.3,442.1 C423.2,441.4 423,440.7 422.9,440 C422.6,438.4 425,437.8 425.3,439.3 C425.5,440.2 425.7,441.1 425.9,442 L426,442 L426,399 C425,398.7 424,398.5 423,398.1 L423,418.7 L424.1,419.3 C424.7,419.7 424.8,420.5 424.5,421 C424.2,421.5 423.6,421.7 423,421.5 L423,439 L336.8,439 L336.8,295.3 L423,295.3 L423,395.5 C424,395.9 425,396.2 426,396.5 L426,335.8 C425.1,333.5 424.2,331.2 423.3,328.9 C422.7,327.4 425.1,326.7 425.7,328.2 Z" id="Path" fill="#FFFFFF" fill-rule="nonzero"></path>
            <path d="M340.8,302.6 L340.8,417.5 L415.3,417.5 C414.1,416.9 412.8,416.2 411.6,415.5 L342.8,415.5 L342.8,304.6 L417.2,304.6 L417.2,392.7 C417.9,393.1 418.5,393.5 419.2,393.8 L419.2,302.6 L340.8,302.6 L340.8,302.6 Z" id="Path" fill="#FFFFFF" fill-rule="nonzero"></path>
            <path d="M430.4,400 C432,400.2 432.7,397.8 431.1,397.6 C429.4,397.3 427.7,397 426,396.5 L426,399.1 C427.5,399.4 428.9,399.7 430.4,400 Z" id="Path" fill="#FFFFFF" fill-rule="nonzero"></path>
            <path d="M419.2,393.8 L419.2,396.7 C420.4,397.3 421.7,397.8 423,398.2 L423,395.5 C421.7,395 420.4,394.4 419.2,393.8 Z" id="Path" fill="#FFFFFF" fill-rule="nonzero"></path>
            <path d="M419.2,417.5 L415.3,417.5 C417.9,418.9 420.5,420.2 422.9,421.6 L423.1,421.7 L423.1,418.8 C421.9,418.1 420.6,417.4 419.3,416.8 L419.3,417.5 L419.2,417.5 Z" id="Path" fill="#FFFFFF" fill-rule="nonzero"></path>
            <path d="M423,398.2 C424,398.5 425,398.8 426,399.1 L426,396.5 C425,396.2 424,395.9 423,395.5 L423,398.2 Z" id="Path" fill="#FFFFFF" fill-rule="nonzero"></path>
            <path d="M424.1,419.4 L423,418.8 L423,421.7 C423.6,421.9 424.4,421.6 424.6,420.9 C424.8,420.3 424.6,419.7 424.1,419.4 Z" id="Path" fill="#FFFFFF" fill-rule="nonzero"></path>
            <path d="M411.6,415.5 C412.8,416.2 414.1,416.9 415.3,417.5 L419.2,417.5 L419.2,416.8 L416.8,415.5 L411.6,415.5 Z" id="Path" fill="#FFFFFF" fill-rule="nonzero"></path>
            <path d="M417.2,395.7 C417.9,396 418.5,396.3 419.2,396.6 L419.2,393.7 C418.5,393.3 417.9,393 417.2,392.6 L417.2,395.7 Z" id="Path" fill="#FFFFFF" fill-rule="nonzero"></path>
            <path d="M481.4,488.1 C475.7,473.5 468.5,459.6 461.4,445.7 C457.7,438.5 454.2,431.3 450.8,424 C447.6,416.9 443.8,409.4 442.5,401.6 C441.5,395.7 442.2,389.4 442.3,383.5 C442.3,378.1 441.5,372.7 440,367.5 C436.4,354.3 430.9,341.7 426,329 L426,335.8 C430.2,346.4 434.6,357.1 437.6,368.2 C439.2,374.1 439.9,380.2 439.8,386.3 C439.7,391.6 439.2,397.1 440.2,402.4 C441.4,409.2 444.4,415.8 447.2,422.1 C450.5,429.4 453.9,436.6 457.5,443.7 C465,458.6 472.9,473.2 478.9,488.8 C479.6,490.2 482,489.6 481.4,488.1 Z" id="Path" fill="#FFFFFF" fill-rule="nonzero"></path>
            <path d="M425.7,328.2 C425.1,326.7 422.7,327.3 423.3,328.9 C424.2,331.2 425.1,333.5 426,335.8 L426,329 L425.7,328.2 Z" id="Path" fill="#FFFFFF" fill-rule="nonzero"></path>
            <path d="M429.5,487.2 C429.6,488.8 432.1,488.8 432,487.2 C431,472.1 428.9,457 425.9,442.1 L423.4,442.1 C426.4,457 428.5,472.1 429.5,487.2 Z" id="Path" fill="#FFFFFF" fill-rule="nonzero"></path>
            <path d="M422.9,440.1 C423.1,440.8 423.2,441.5 423.3,442.2 L425.9,442.2 C425.7,441.3 425.5,440.4 425.3,439.5 C425,437.8 422.6,438.5 422.9,440.1 Z" id="Path" fill="#FFFFFF" fill-rule="nonzero"></path>
            <path d="M424.9,405.4 C424,405.2 423.1,404.8 422.4,404.2 L419.8,408.5 C422.6,409.8 425.4,411 428.3,412 C431.3,413.1 432.6,408.2 429.6,407.2 C427.1,406.3 424.6,405.3 422.3,404.2 C421.1,403.5 419.6,403.9 418.9,405.1 C418.2,406.3 418.6,407.8 419.8,408.5 C420.9,409.3 422.2,409.8 423.5,410.2 C426.6,411 428,406.1 424.9,405.4 L424.9,405.4 Z" id="Path" fill="#FFFFFF" fill-rule="nonzero"></path>
            <path d="M430,406.4 C428.7,405.3 427.3,404.3 426,403.2 C425.2,402.6 423.9,401.7 423.8,400.5 L420.6,402.9 L429,405.2 C432.1,406.1 433.4,401.2 430.3,400.4 L421.9,398.1 C420.6,397.7 419.2,398.5 418.8,399.9 C418.7,400.1 418.7,400.3 418.7,400.5 C419,405 423.2,407.4 426.4,409.9 C427.4,410.8 428.9,410.8 429.9,409.9 C430.9,408.9 430.9,407.4 430,406.4 L430,406.4 Z" id="Path" fill="#FFFFFF" fill-rule="nonzero"></path>
            <path d="M429.7,406.9 C426.9,406.8 421.5,403.7 421.1,408.5 C420.7,412.5 425.2,414.2 427.4,416.7 L429.8,412.5 C425.9,411.7 422,410.7 418.1,409.6 C415.8,409 414.4,411.4 415.3,413.3 C416.3,415.4 418.8,416.6 420.8,417.9 C423.1,419.4 425.4,421.1 428.1,421.8 C431.2,422.6 432.6,417.8 429.4,417 C427.4,416.5 425.7,415.1 424,414 C422.7,413.1 420.3,412.2 419.6,410.7 L416.8,414.4 C420.7,415.5 424.6,416.5 428.5,417.3 C429.8,417.7 431.2,416.9 431.6,415.6 C431.9,414.7 431.6,413.7 430.9,413.1 C430.1,412.3 429.3,411.5 428.4,410.9 C427.9,410.5 426.3,408.8 425.9,409.4 L424.4,410.5 C423.6,410.6 423.6,410.5 424.4,410.9 C425,411.2 425.6,411.3 426.3,411.4 C427.4,411.6 428.6,411.8 429.7,411.8 C433,412 433,407 429.7,406.9 L429.7,406.9 Z" id="Path" fill="#FFFFFF" fill-rule="nonzero"></path>
            <path d="M342.8,315.1 L417.4,315.1" id="Path" stroke="#E2E2E4"></path>
            <path d="M363.1,322.7 C362.9,322.5 362.7,322.3 362.5,322.2 C362.3,322.1 362,322 361.7,322 C361.4,322 361.1,322.1 360.8,322.2 C360.5,322.3 360.3,322.5 360.1,322.7 C359.9,322.9 359.8,323.2 359.7,323.4 C359.6,323.7 359.5,324 359.5,324.3 C359.5,324.6 359.5,324.9 359.7,325.1 C359.8,325.4 359.9,325.6 360.1,325.8 C360.3,326 360.5,326.2 360.8,326.3 C361.1,326.4 361.4,326.5 361.7,326.5 C362,326.5 362.3,326.4 362.5,326.3 C362.7,326.2 363,326 363.1,325.8 L363.7,326.3 C363.6,326.4 363.6,326.5 363.5,326.6 C363.4,326.7 363.2,326.8 363.1,326.9 C362.9,327 362.7,327.1 362.5,327.2 C362.2,327.3 361.9,327.3 361.7,327.3 C361.3,327.3 360.9,327.2 360.5,327 C360.2,326.8 359.8,326.6 359.6,326.3 C359.4,326 359.2,325.7 359,325.4 C358.9,325.1 358.8,324.7 358.8,324.4 C358.8,324 358.9,323.6 359,323.2 C359.3,322.5 359.8,321.9 360.5,321.6 C360.9,321.4 361.3,321.4 361.7,321.4 C362.1,321.4 362.4,321.5 362.8,321.6 C363.1,321.7 363.4,322 363.7,322.3 L363.1,322.7 Z" id="Path" fill="#E2E2E4" fill-rule="nonzero"></path>
            <path d="M364.4,325.3 C364.4,325 364.4,324.8 364.6,324.5 C364.7,324.3 364.8,324.1 365,323.9 C365.2,323.7 365.4,323.6 365.6,323.5 C366.1,323.3 366.7,323.3 367.2,323.5 C367.4,323.6 367.6,323.7 367.8,323.9 C368,324.1 368.1,324.3 368.2,324.5 C368.3,324.7 368.4,325 368.4,325.3 C368.4,325.6 368.4,325.8 368.2,326.1 C368.1,326.3 368,326.5 367.8,326.7 C367,327.5 365.8,327.5 365,326.7 C365,326.7 365,326.7 365,326.7 C364.8,326.5 364.7,326.3 364.6,326.1 C364.4,325.8 364.4,325.5 364.4,325.3 Z M365.1,325.3 C365.1,325.5 365.1,325.7 365.2,325.8 C365.3,326 365.3,326.1 365.5,326.2 C365.6,326.3 365.7,326.4 365.9,326.5 C366.2,326.6 366.6,326.6 366.9,326.5 C367,326.4 367.2,326.3 367.3,326.2 C367.4,326.1 367.5,325.9 367.5,325.8 C367.6,325.5 367.6,325.1 367.5,324.7 C367.4,324.5 367.4,324.4 367.3,324.3 C367.2,324.2 367.1,324.1 366.9,324 C366.6,323.9 366.2,323.9 365.9,324 C365.8,324.1 365.6,324.2 365.5,324.3 C365.4,324.4 365.3,324.6 365.2,324.7 C365.2,324.9 365.1,325.1 365.1,325.3 Z" id="Shape" fill="#E2E2E4" fill-rule="nonzero"></path>
            <path d="M369.3,323.4 L370,323.4 L370,324 L370,324 C370.1,323.8 370.3,323.6 370.5,323.5 C370.7,323.4 371,323.3 371.3,323.3 C371.5,323.3 371.7,323.3 371.8,323.4 C372,323.5 372.1,323.5 372.2,323.7 C372.3,323.8 372.4,324 372.5,324.2 C372.6,324.4 372.6,324.6 372.6,324.8 L372.6,327.2 L371.9,327.2 L371.9,325 C371.9,324.8 371.9,324.7 371.8,324.5 C371.8,324.4 371.7,324.3 371.6,324.2 C371.5,324.1 371.4,324.1 371.3,324 C371.2,324 371.1,324 371,324 C370.9,324 370.7,324 370.6,324.1 C370.5,324.1 370.4,324.2 370.3,324.3 C370.2,324.4 370.1,324.5 370.1,324.7 C370,324.9 370,325.1 370,325.3 L370,327.2 L369.3,327.2 L369.3,323.4 Z" id="Path" fill="#E2E2E4" fill-rule="nonzero"></path>
            <path d="M374,324 L373.2,324 L373.2,323.4 L374,323.4 L374,322.6 C374,322.2 374.1,321.8 374.3,321.5 C374.6,321.2 374.9,321.1 375.3,321.1 L375.6,321.1 C375.7,321.1 375.8,321.1 375.9,321.1 L375.8,321.7 C375.7,321.7 375.7,321.7 375.6,321.6 L375.4,321.6 C375.3,321.6 375.2,321.6 375.1,321.7 C375,321.7 375,321.8 374.9,321.9 C374.9,322 374.8,322.1 374.8,322.2 C374.8,322.3 374.8,322.4 374.8,322.6 L374.8,323.5 L375.6,323.5 L375.6,324.1 L374.7,324.1 L374.7,327.2 L374,327.2 L374,324 Z" id="Path" fill="#E2E2E4" fill-rule="nonzero"></path>
            <path d="M376.2,322 C376.2,321.9 376.3,321.7 376.4,321.6 C376.5,321.5 376.6,321.4 376.8,321.5 C376.9,321.5 377.1,321.6 377.2,321.6 C377.3,321.7 377.4,321.8 377.4,322 C377.4,322.3 377.2,322.5 376.9,322.5 C376.5,322.5 376.2,322.3 376.2,322 C376.2,322 376.2,322 376.2,322 L376.2,322 Z M376.4,323.4 L377.1,323.4 L377.1,327.2 L376.4,327.2 L376.4,323.4 Z" id="Shape" fill="#E2E2E4" fill-rule="nonzero"></path>
            <path d="M382,327.1 L381.3,327.1 L381.3,326.6 L381.3,326.6 C381.2,326.8 381,327 380.7,327.1 C380.5,327.2 380.2,327.3 380,327.3 C379.7,327.3 379.5,327.3 379.2,327.2 C379,327.1 378.8,327 378.6,326.8 C378.4,326.6 378.3,326.4 378.2,326.2 C378,325.7 378,325.1 378.2,324.6 C378.3,324.4 378.4,324.2 378.6,324 C378.8,323.8 379,323.7 379.2,323.6 C379.5,323.5 379.7,323.4 380,323.5 C380.3,323.5 380.5,323.6 380.8,323.7 C381,323.8 381.2,324 381.3,324.2 L381.3,324.2 L381.3,321.4 L382,321.4 L382,327.1 L382,327.1 Z M380,326.6 C380.2,326.6 380.4,326.6 380.5,326.5 C380.6,326.4 380.8,326.3 380.9,326.2 C381,326.1 381.1,325.9 381.2,325.8 C381.3,325.5 381.3,325.1 381.2,324.7 C381.1,324.5 381.1,324.4 380.9,324.3 C380.8,324.2 380.7,324.1 380.5,324 C380.3,323.9 380.2,323.9 380,323.9 C379.8,323.9 379.7,323.9 379.5,324 C379.4,324.1 379.2,324.2 379.1,324.3 C379,324.4 378.9,324.6 378.8,324.7 C378.7,325 378.7,325.4 378.8,325.8 C378.9,326 378.9,326.1 379.1,326.2 C379.2,326.3 379.3,326.4 379.5,326.5 C379.7,326.5 379.9,326.6 380,326.6 L380,326.6 Z" id="Shape" fill="#E2E2E4" fill-rule="nonzero"></path>
            <path d="M383.6,325.5 C383.6,325.7 383.6,325.8 383.7,326 C383.8,326.1 383.9,326.3 384,326.4 C384.1,326.5 384.3,326.6 384.4,326.6 C384.6,326.7 384.7,326.7 384.9,326.7 C385.1,326.7 385.3,326.7 385.5,326.5 C385.7,326.4 385.8,326.3 386,326.1 L386.5,326.5 C386.1,327 385.5,327.3 384.8,327.3 C384.5,327.3 384.3,327.3 384,327.2 C383.8,327.1 383.6,327 383.4,326.8 C383.2,326.6 383.1,326.4 383,326.2 C382.8,325.7 382.8,325.1 383,324.6 C383.1,324.4 383.2,324.2 383.4,324 C383.8,323.6 384.3,323.4 384.8,323.4 C385.1,323.4 385.4,323.5 385.6,323.6 C385.8,323.7 386,323.9 386.2,324.1 C386.3,324.3 386.5,324.5 386.5,324.7 C386.6,324.9 386.6,325.2 386.6,325.4 L386.6,325.7 L383.6,325.7 L383.6,325.5 Z M385.9,324.9 C385.9,324.8 385.9,324.6 385.8,324.5 C385.8,324.4 385.7,324.3 385.6,324.2 C385.5,324.1 385.4,324 385.3,324 C385.2,323.9 385,323.9 384.8,323.9 C384.6,323.9 384.5,323.9 384.3,324 C384.2,324.1 384,324.2 383.9,324.3 C383.8,324.4 383.7,324.5 383.7,324.7 C383.6,324.8 383.6,324.9 383.6,325.1 L385.9,325.1 L385.9,324.9 Z" id="Shape" fill="#E2E2E4" fill-rule="nonzero"></path>
            <path d="M387.5,323.4 L388.2,323.4 L388.2,324 L388.2,324 C388.3,323.8 388.5,323.6 388.7,323.5 C388.9,323.4 389.2,323.3 389.5,323.3 C389.7,323.3 389.9,323.3 390,323.4 C390.2,323.4 390.3,323.5 390.4,323.7 C390.5,323.8 390.6,324 390.7,324.2 C390.8,324.4 390.8,324.6 390.8,324.8 L390.8,327.2 L390.1,327.2 L390.1,325 C390.1,324.8 390.1,324.7 390,324.5 C389.9,324.3 389.8,324.1 389.5,324 C389.4,324 389.3,324 389.2,324 C389.1,324 388.9,324 388.8,324.1 C388.7,324.2 388.6,324.2 388.5,324.3 C388.4,324.4 388.3,324.5 388.3,324.7 C388.2,324.9 388.2,325.1 388.2,325.3 L388.2,327.2 L387.5,327.2 L387.5,323.4 Z" id="Path" fill="#E2E2E4" fill-rule="nonzero"></path>
            <path d="M394.6,324.4 C394.5,324.3 394.3,324.2 394.2,324.1 C394,324 393.9,324 393.7,324 C393.5,324 393.3,324 393.2,324.1 C393.1,324.2 392.9,324.3 392.8,324.4 C392.7,324.5 392.6,324.7 392.6,324.8 C392.5,325 392.5,325.1 392.5,325.3 C392.5,325.6 392.6,326 392.8,326.2 C392.9,326.3 393,326.4 393.2,326.5 C393.4,326.6 393.5,326.6 393.7,326.6 C393.9,326.6 394.1,326.6 394.2,326.5 C394.4,326.4 394.5,326.3 394.6,326.2 L395.1,326.7 C394.9,326.9 394.7,327.1 394.4,327.1 C393.9,327.3 393.3,327.3 392.8,327.1 C392.6,327 392.4,326.9 392.2,326.7 C392,326.5 391.9,326.3 391.8,326.1 C391.7,325.8 391.7,325.6 391.7,325.3 C391.7,325 391.7,324.8 391.8,324.5 C391.9,324.3 392,324.1 392.2,323.9 C392.4,323.7 392.6,323.6 392.8,323.5 C393.1,323.4 393.3,323.3 393.6,323.4 C393.9,323.4 394.1,323.5 394.4,323.5 C394.6,323.6 394.9,323.8 395.1,324 L394.6,324.4 Z" id="Path" fill="#E2E2E4" fill-rule="nonzero"></path>
            <path d="M396.3,325.5 C396.3,325.7 396.3,325.8 396.4,326 C396.5,326.1 396.6,326.3 396.7,326.4 C396.8,326.5 397,326.6 397.1,326.6 C397.3,326.7 397.4,326.7 397.6,326.7 C397.8,326.7 398,326.7 398.2,326.5 C398.4,326.4 398.5,326.3 398.7,326.1 L399.2,326.5 C398.8,327 398.2,327.3 397.5,327.3 C397.2,327.3 397,327.3 396.7,327.2 C396.5,327.1 396.3,327 396.1,326.8 C395.9,326.6 395.8,326.4 395.7,326.2 C395.6,325.9 395.6,325.7 395.6,325.4 C395.6,325.1 395.6,324.9 395.7,324.6 C395.8,324.4 395.9,324.2 396.1,324 C396.3,323.8 396.5,323.7 396.7,323.6 C396.9,323.5 397.2,323.4 397.5,323.5 C397.8,323.5 398.1,323.6 398.3,323.7 C398.5,323.8 398.7,324 398.9,324.2 C399.1,324.4 399.2,324.6 399.2,324.8 C399.3,325 399.3,325.3 399.3,325.5 L399.3,325.8 L396.3,325.8 L396.3,325.5 Z M398.6,324.9 C398.6,324.8 398.6,324.6 398.5,324.5 C398.5,324.4 398.4,324.3 398.3,324.2 C398.2,324.1 398.1,324 398,324 C397.9,323.9 397.7,323.9 397.5,323.9 C397.3,323.9 397.2,323.9 397,324 C396.9,324.1 396.7,324.2 396.6,324.3 C396.5,324.4 396.4,324.5 396.4,324.7 C396.3,324.8 396.3,324.9 396.3,325.1 L398.6,325.1 L398.6,324.9 Z" id="Shape" fill="#E2E2E4" fill-rule="nonzero"></path>
            <path d="M373.4,336.8 C373.2,336.8 372.9,336.8 372.7,336.7 C372.5,336.6 372.3,336.5 372.1,336.4 C371.9,336.3 371.8,336.1 371.7,335.9 C371.6,335.7 371.6,335.4 371.6,335.2 C371.6,335 371.6,334.9 371.7,334.7 C371.8,334.6 371.8,334.4 371.9,334.3 C372,334.2 372.1,334.1 372.2,334 C372.3,333.9 372.5,333.9 372.6,333.8 L372.6,333.8 C372.5,333.8 372.4,333.7 372.3,333.7 C372.2,333.6 372.1,333.5 372,333.4 C371.9,333.3 371.8,333.1 371.8,333 C371.7,332.8 371.7,332.7 371.7,332.5 C371.7,332.3 371.7,332.1 371.8,331.9 C371.9,331.7 372,331.6 372.2,331.5 C372.4,331.4 372.5,331.3 372.7,331.2 C373.1,331.1 373.5,331.1 374,331.2 C374.2,331.3 374.4,331.4 374.5,331.5 C374.6,331.6 374.8,331.8 374.8,331.9 C374.9,332.1 374.9,332.3 374.9,332.5 C374.9,332.7 374.9,332.9 374.8,333 C374.8,333.1 374.7,333.3 374.6,333.4 C374.5,333.5 374.4,333.6 374.3,333.7 C374.2,333.8 374.1,333.8 374,333.8 L374,333.8 C374.2,333.8 374.3,333.9 374.4,334 C374.5,334.1 374.6,334.2 374.7,334.3 C374.8,334.4 374.9,334.6 374.9,334.7 C375,334.9 375,335 375,335.2 C375,335.4 375,335.7 374.8,335.9 C374.7,336.1 374.6,336.3 374.4,336.4 C374.2,336.5 374,336.7 373.8,336.7 C373.9,336.7 373.7,336.8 373.4,336.8 Z M373.4,336.1 C373.7,336.1 374,336 374.2,335.8 C374.4,335.6 374.5,335.3 374.5,335 C374.5,334.8 374.5,334.7 374.4,334.5 C374.3,334.4 374.3,334.3 374.2,334.2 C374.1,334.1 374,334 373.9,334 C373.8,334 373.6,333.9 373.5,333.9 C373.2,333.9 372.9,334 372.7,334.2 C372.5,334.4 372.4,334.7 372.4,334.9 C372.4,335.1 372.4,335.2 372.5,335.3 C372.5,335.4 372.6,335.5 372.7,335.6 C372.8,335.7 372.9,335.8 373,335.8 C373.2,336.1 373.3,336.1 373.4,336.1 Z M372.6,332.5 C372.6,332.6 372.6,332.7 372.7,332.8 C372.7,332.9 372.8,333 372.9,333.1 C373,333.2 373.1,333.3 373.2,333.3 C373.3,333.4 373.4,333.4 373.6,333.4 C373.7,333.4 373.9,333.4 374,333.3 C374.1,333.3 374.2,333.2 374.3,333.1 C374.4,333 374.4,332.9 374.5,332.8 C374.5,332.7 374.5,332.6 374.5,332.5 C374.5,332.3 374.4,332 374.3,331.9 C374.1,331.7 373.9,331.6 373.7,331.6 C373.5,331.6 373.2,331.7 373.1,331.9 C372.6,332 372.5,332.2 372.6,332.5 L372.6,332.5 Z" id="Shape" fill="#E2E2E4" fill-rule="nonzero"></path>
            <path d="M376,335.9 L378.3,333.7 C378.4,333.6 378.5,333.5 378.5,333.5 L378.7,333.2 C378.8,333.1 378.8,333 378.8,332.9 C378.8,332.8 378.8,332.7 378.8,332.6 C378.8,332.5 378.8,332.3 378.7,332.2 C378.7,332.1 378.6,332 378.5,331.9 C378.4,331.8 378.3,331.8 378.2,331.7 C378.1,331.7 377.9,331.6 377.8,331.6 C377.3,331.6 376.9,332 376.8,332.5 L376,332.4 C376,332.2 376.1,332 376.2,331.8 C376.3,331.6 376.4,331.5 376.6,331.3 C376.8,331.2 377,331.1 377.2,331 C377.4,330.9 377.7,330.9 377.9,330.9 C378.1,330.9 378.4,330.9 378.6,331 C378.8,331.1 379,331.2 379.2,331.3 C379.4,331.4 379.5,331.6 379.6,331.8 C379.7,332 379.7,332.2 379.7,332.5 C379.7,332.7 379.7,332.9 379.6,333 C379.5,333.2 379.5,333.3 379.4,333.5 C379.3,333.6 379.2,333.8 379.1,333.9 L378.7,334.3 L376.9,336.1 L379.7,336.1 L379.7,336.8 L376,336.8 L376,335.9 Z" id="Path" fill="#E2E2E4" fill-rule="nonzero"></path>
            <path d="M380.4,332.3 C380.4,331.7 380.7,331.2 381.3,331 C381.5,330.9 381.7,330.9 381.8,330.9 C382,330.9 382.2,330.9 382.3,331 C382.5,331.1 382.6,331.2 382.8,331.3 C382.9,331.4 383,331.6 383.1,331.8 C383.2,332 383.2,332.2 383.2,332.3 C383.2,332.5 383.2,332.7 383.1,332.8 C383,333.1 382.7,333.4 382.3,333.6 C382,333.7 381.6,333.7 381.2,333.6 C381,333.5 380.9,333.4 380.7,333.3 C380.6,333.2 380.5,333 380.4,332.8 C380.4,332.7 380.4,332.5 380.4,332.3 Z M381,332.3 C381,332.5 381.1,332.7 381.2,332.9 C381.3,333 381.6,333.1 381.8,333.1 C382,333.1 382.2,333 382.4,332.9 C382.6,332.8 382.6,332.6 382.6,332.3 C382.6,332.1 382.5,331.9 382.4,331.7 C382.3,331.6 382,331.5 381.8,331.5 C381.6,331.5 381.4,331.6 381.2,331.7 C381.1,331.9 381,332.1 381,332.3 Z M381.9,336.9 L381.4,336.6 L384.9,330.7 L385.4,330.9 L381.9,336.9 Z M383.7,335.4 C383.7,335.2 383.7,335 383.8,334.9 C383.9,334.6 384.2,334.3 384.5,334.2 C384.7,334.1 384.9,334.1 385,334.1 C385.2,334.1 385.4,334.1 385.5,334.2 C385.7,334.3 385.8,334.4 385.9,334.5 C386,334.6 386.1,334.8 386.2,334.9 C386.3,335.3 386.3,335.6 386.2,336 C386,336.3 385.8,336.6 385.4,336.8 C385.2,336.9 385,336.9 384.9,336.9 C384.7,336.9 384.5,336.9 384.4,336.8 C384.2,336.7 384.1,336.6 384,336.5 C383.9,336.4 383.8,336.2 383.7,336.1 C383.8,335.8 383.7,335.6 383.7,335.4 L383.7,335.4 Z M384.4,335.4 C384.4,335.6 384.5,335.8 384.6,336 C384.9,336.3 385.4,336.3 385.7,336 C386,335.7 386,335.2 385.7,334.9 C385.4,334.6 384.9,334.6 384.6,334.9 C384.4,335 384.3,335.2 384.4,335.4 L384.4,335.4 Z" id="Shape" fill="#E2E2E4" fill-rule="nonzero"></path>
            <path d="M263.7,486.9 L491.7,486.9 L491.7,258.9 L263.7,258.9 L263.7,486.9 Z M342.7,304.6 L417.1,304.6 L417.1,415.5 L342.7,415.5 L342.7,304.6 Z" id="Shape"></path>
            <path d="M260.7,255.9 L260.7,489.9 L494.7,489.9 L494.7,255.9 L260.7,255.9 Z M491.7,486.9 L263.7,486.9 L263.7,258.9 L491.7,258.9 L491.7,486.9 Z" id="Shape" fill="#FFFFFF" fill-rule="nonzero"></path>
            <path d="M396.2,403.2 C394,400.1 392.4,396.7 391.2,393.1 L350.5,393.1 L350.5,341.5 L410,341.5 L410,387.3 C412.2,389.3 414.6,391.1 417.2,392.7 L417.2,304.6 L342.8,304.6 L342.8,415.5 L411.6,415.5 C405.7,412.2 400,408.5 396.2,403.2 Z" id="Path"></path>
            <path d="M389.3,379 C392.1,371.6 400.5,376.7 403.7,380.6 C405.3,382.6 407.1,384.6 409,386.4 L409,342.6 L351.6,342.6 L351.6,392.2 L391,392.2 C390.9,391.9 390.8,391.6 390.7,391.3 C389.7,387.7 387.9,382.6 389.3,379 Z" id="Path"></path>
            <path d="M394,393.5 C394,393.4 393.9,393.3 393.9,393.1 L391.3,393.1 C392.4,396.7 394.1,400.1 396.3,403.2 C400.1,408.4 405.8,412.2 411.6,415.4 L416.8,415.4 C411,412.3 404.9,409 400.6,404.5 C397.6,401.4 395.4,397.6 394,393.5 Z" id="Path" fill="#FFFFFF" fill-rule="nonzero"></path>
            <path d="M391.3,382 C392.4,374.2 398.4,378.5 400.5,380.7 C401.6,381.9 402.5,383.3 403.6,384.6 C405.2,386.6 407,388.5 409,390.2 L409,386.4 C407.1,384.6 405.3,382.7 403.7,380.6 C400.5,376.7 392.2,371.6 389.3,379 C387.9,382.6 389.7,387.7 390.7,391.2 C390.8,391.5 390.9,391.8 391,392.1 L393.6,392.1 C392.4,389 390.9,384.9 391.3,382 Z" id="Path" fill="#FFFFFF" fill-rule="nonzero"></path>
            <path d="M410,391 L410.4,391.4 C412.5,393.1 414.8,394.5 417.2,395.8 L417.2,392.7 C414.6,391.2 412.2,389.4 410,387.3 L410,391 L410,391 Z" id="Path" fill="#FFFFFF" fill-rule="nonzero"></path>
            <path d="M351.5,392.1 L351.5,342.5 L409,342.5 L409,386.3 L410,387.2 L410,341.4 L350.6,341.4 L350.6,393 L391.3,393 C391.2,392.7 391.1,392.3 391,392 L351.5,392.1 Z" id="Path" fill="#FFFFFF" fill-rule="nonzero"></path>
            <path d="M393.5,392.1 L391,392.1 C391.1,392.4 391.2,392.8 391.3,393.1 L393.9,393.1 C393.8,392.8 393.7,392.5 393.5,392.1 Z" id="Path" fill="#FFFFFF" fill-rule="nonzero"></path>
            <path d="M409,390.2 C409.3,390.5 409.7,390.8 410,391 L410,387.3 L409,386.4 L409,390.2 Z" id="Path" fill="#FFFFFF" fill-rule="nonzero"></path>
            <path d="M377.9,386.6 C369.1,386.6 361.9,378.3 361.9,368 C361.9,357.7 369.1,349.4 377.9,349.4 C386.7,349.4 393.9,357.7 393.9,368 C393.9,378.3 386.7,386.6 377.9,386.6 Z M377.9,350.8 C369.9,350.8 363.4,358.5 363.4,367.9 C363.4,377.3 369.9,385 377.9,385 C385.9,385 392.4,377.3 392.4,367.9 C392.4,358.5 385.9,350.8 377.9,350.8 Z" id="Shape" fill="#E2E2E4" fill-rule="nonzero"></path>
            <circle id="Oval" fill="#E2E2E4" fill-rule="nonzero" cx="369.8" cy="367.5" r="1"></circle>
            <circle id="Oval" fill="#E2E2E4" fill-rule="nonzero" cx="386" cy="367.5" r="1"></circle>
            <path d="M373.3,381 C373.8,380.5 374.4,380.2 375,380 C375.6,379.8 376.3,379.6 376.9,379.5 C377.6,379.4 378.3,379.5 378.9,379.7 C379.1,379.8 379.2,379.8 379.4,379.9 L379.9,380.2 C380,380.3 380.2,380.5 380.3,380.6 C380.4,380.8 380.5,380.9 380.5,381.1 C379.9,380.9 379.3,380.8 378.7,380.9 C378.1,380.9 377.6,381 377,381 C376.4,381 375.8,381.1 375.2,381.1 C374.6,381.1 373.9,381.1 373.3,381 Z" id="Path" fill="#E2E2E4" fill-rule="nonzero"></path>
            <path d="M384.3,377.9 L370.1,377.9 L370.9,376.8 C372.4,374.5 374.3,373.3 376.4,373.2 C380.2,373 383.3,376.6 383.4,376.8 L384.3,377.9 Z M373,376.5 L381,376.5 C379.8,375.3 378.1,374.7 376.4,374.6 C375,374.7 373.8,375.4 373,376.5 Z" id="Shape" fill="#E2E2E4" fill-rule="nonzero"></path>
            <circle id="Oval" fill="#E51C20" fill-rule="nonzero" cx="370.3" cy="401.1" r="2.2"></circle>
        </g>
    </g>
</svg>