<?xml version="1.0" encoding="UTF-8"?>
<svg width="235px" height="234px" viewBox="0 0 235 234" version="1.1" xmlns="http://www.w3.org/2000/svg" xmlns:xlink="http://www.w3.org/1999/xlink">
    <!-- Generator: Sketch 56.2 (81672) - https://sketch.com -->
    <title>verbod</title>
    <desc>Created with Sketch.</desc>
    <g id="Page-1" stroke="none" stroke-width="1" fill="none" fill-rule="evenodd">
        <g id="recnition-animatie-inverted">
            <g id="verbod" transform="translate(0.200000, 0.000000)">
                <path d="M66.8,210.9 L18.1,210.9 L23.9,154.7 L59.5,154.7 L66.8,210.9 Z M20.3,208.9 L64.5,208.9 L57.7,156.7 L25.7,156.7 L20.3,208.9 Z" id="Shape" fill="#E2E2E4" fill-rule="nonzero"></path>
                <path d="M9,144.5 C16.6,113.3 33.4,91.7 52.9,91.7 C72.9,91.7 90,114.4 97.4,146.8" id="Path" stroke="#E2E2E4" stroke-width="3"></path>
                <ellipse id="Oval" stroke="#E2E2E4" stroke-width="3" cx="53.2" cy="57.6" rx="24.3" ry="28.5"></ellipse>
                <path d="M214.7,53.6 C202.1,53.6 191.9,65.7 191.9,80.6 C191.9,95.5 202.1,107.6 214.7,107.6 C221.1,107.6 226.8,104.5 231,99.5 L231,61.7 C226.8,56.7 221.1,53.6 214.7,53.6 Z" id="Path"></path>
                <path d="M234,95 L234,66.2 C233.1,64.6 232.1,63.1 231,61.7 L231,99.5 C232.1,98.1 233.1,96.6 234,95 Z" id="Path" fill="#FFFFFF" fill-rule="nonzero"></path>
                <path d="M214.7,107.6 C202.1,107.6 191.9,95.5 191.9,80.6 C191.9,65.7 202.1,53.6 214.7,53.6 C221.1,53.6 226.8,56.7 231,61.7 L231,57.3 C226.7,53 220.8,50.6 214.7,50.5 C200.5,50.5 188.9,64 188.9,80.5 C188.9,97 200.5,110.5 214.7,110.5 C220.8,110.4 226.6,108 231,103.7 L231,99.4 C226.8,104.5 221.1,107.6 214.7,107.6 Z" id="Path" fill="#FFFFFF" fill-rule="nonzero"></path>
                <path d="M231,57.3 L231,61.7 C232.1,63.1 233.1,64.6 234,66.2 L234,60.7 C233.1,59.5 232.1,58.4 231,57.3 Z" id="Path" fill="#FFFFFF" fill-rule="nonzero"></path>
                <path d="M231,99.5 L231,103.9 C232.1,102.9 233.1,101.7 234,100.5 L234,95 C233.1,96.6 232.1,98.1 231,99.5 Z" id="Path" fill="#FFFFFF" fill-rule="nonzero"></path>
                <circle id="Oval" fill="#E2E2E4" fill-rule="nonzero" cx="41.5" cy="56.8" r="1.4"></circle>
                <circle id="Oval" fill="#E2E2E4" fill-rule="nonzero" cx="63.6" cy="56.8" r="1.4"></circle>
                <circle id="Oval" fill="#E2E2E4" fill-rule="nonzero" cx="198.2" cy="73.8" r="1.4"></circle>
                <path d="M47,78.3 C47.8,77.6 48.7,77.1 49.7,76.8 C50.7,76.4 51.7,76.2 52.7,76.1 C53.8,76 54.8,76.1 55.9,76.3 C56.2,76.4 56.4,76.5 56.7,76.6 L57.4,77 C57.6,77.2 57.8,77.4 58,77.6 C58.2,77.8 58.3,78.1 58.4,78.3 C57.5,77.9 56.6,77.8 55.6,77.8 C54.7,77.8 53.8,77.9 52.8,78 C51.8,78.1 50.9,78.2 49.9,78.3 C49,78.4 48,78.4 47,78.3 Z" id="Path" fill="#E2E2E4" fill-rule="nonzero"></path>
                <path d="M202.5,96.1 C202.2,96.8 201.8,97.5 201.2,98 C200.6,98.5 200,99 199.3,99.3 C198.5,99.6 197.7,99.8 196.9,99.7 C196,99.6 195.2,99 194.9,98.2 C195.5,98.4 196.2,98.3 196.8,98.1 C197.4,97.9 197.9,97.7 198.5,97.5 C199.1,97.3 199.7,97 200.4,96.8 C201,96.5 201.7,96.3 202.5,96.1 Z" id="Path" fill="#E2E2E4" fill-rule="nonzero"></path>
                <path d="M44.2,72.3 L62.2,72.3 C62.2,72.3 52.2,60.3 44.2,72.3 Z" id="Path" stroke="#E2E2E4" stroke-width="2"></path>
                <polygon id="Path" fill="#1CF9EC" fill-rule="nonzero" points="26.4 203.7 27.1 203.7 27.5 205.5 27.5 205.5 28.1 203.7 28.7 203.7 29.3 205.6 29.3 205.6 29.8 203.7 30.4 203.7 29.6 206.6 29 206.6 28.4 204.6 28.4 204.6 27.8 206.6 27.3 206.6"></polygon>
                <polygon id="Path" fill="#1CF9EC" fill-rule="nonzero" points="30.7 203.7 31.3 203.7 31.3 206.6 30.7 206.6"></polygon>
                <polygon id="Path" fill="#1CF9EC" fill-rule="nonzero" points="31.9 203.7 32.7 203.7 33.9 205.7 33.9 205.7 33.9 203.7 34.5 203.7 34.5 206.6 33.7 206.6 32.5 204.6 32.5 204.6 32.5 206.6 31.8 206.6"></polygon>
                <polygon id="Path" fill="#1CF9EC" fill-rule="nonzero" points="35.2 203.7 35.8 203.7 35.8 204.9 36.9 203.7 37.7 203.7 36.4 205 37.8 206.5 36.9 206.5 35.7 205.1 35.7 206.5 35.1 206.5"></polygon>
                <polygon id="Path" fill="#1CF9EC" fill-rule="nonzero" points="38.1 203.7 40 203.7 40 204.3 38.7 204.3 38.7 204.8 39.9 204.8 39.9 205.4 38.7 205.4 38.7 206 40.1 206 40.1 206.6 38.1 206.6"></polygon>
                <polygon id="Path" fill="#1CF9EC" fill-rule="nonzero" points="40.6 203.7 41.2 203.7 41.2 206 42.4 206 42.4 206.6 40.6 206.6"></polygon>
                <polygon id="Path" fill="#1CF9EC" fill-rule="nonzero" points="42.1 203.7 42.8 203.7 43.5 205.6 43.5 205.6 44.2 203.7 44.9 203.7 43.7 206.5 43.2 206.5"></polygon>
                <polygon id="Path" fill="#1CF9EC" fill-rule="nonzero" points="45.2 203.7 47.1 203.7 47.1 204.3 45.8 204.3 45.8 204.8 47 204.8 47 205.4 45.8 205.4 45.8 206 47.2 206 47.2 206.6 45.2 206.6"></polygon>
                <path d="M47.7,203.7 L48.8,203.7 C48.9,203.7 49.1,203.7 49.2,203.7 C49.3,203.7 49.4,203.8 49.5,203.8 C49.6,203.9 49.7,204 49.7,204.1 C49.8,204.2 49.8,204.4 49.8,204.5 C49.8,204.7 49.8,204.9 49.7,205 C49.6,205.1 49.4,205.2 49.2,205.3 L49.9,206.5 L49.1,206.5 L48.5,205.4 L48.2,205.4 L48.2,206.5 L47.8,206.5 L47.7,203.7 Z M48.4,204.9 L49,204.9 C49.1,204.9 49.1,204.9 49.2,204.9 C49.3,204.9 49.3,204.8 49.3,204.8 C49.3,204.7 49.3,204.7 49.3,204.6 C49.3,204.5 49.3,204.5 49.3,204.4 C49.3,204.4 49.2,204.3 49.2,204.3 L49.1,204.3 L48.5,204.3 L48.4,204.9 Z" id="Shape" fill="#1CF9EC" fill-rule="nonzero"></path>
                <path d="M50.3,203.7 L51.4,203.7 C51.5,203.7 51.7,203.7 51.8,203.7 C51.9,203.7 52,203.7 52.1,203.8 C52.2,203.9 52.3,203.9 52.3,204 C52.4,204.1 52.4,204.2 52.4,204.4 C52.4,204.5 52.4,204.7 52.3,204.8 C52.2,204.9 52.1,205 51.9,205 L51.9,205 C52,205 52.1,205 52.2,205.1 C52.3,205.1 52.3,205.2 52.4,205.2 C52.5,205.3 52.5,205.3 52.5,205.4 C52.5,205.5 52.5,205.6 52.5,205.7 C52.5,205.8 52.5,206 52.4,206.1 C52.3,206.2 52.3,206.3 52.1,206.3 C52,206.4 51.9,206.4 51.8,206.4 C51.7,206.4 51.5,206.4 51.4,206.4 L50.2,206.4 L50.3,203.7 Z M51,204.8 L51.4,204.8 L51.5,204.8 L51.6,204.8 C51.6,204.8 51.7,204.7 51.7,204.7 C51.7,204.7 51.7,204.6 51.7,204.6 C51.7,204.6 51.7,204.5 51.7,204.5 C51.7,204.5 51.6,204.4 51.6,204.4 C51.6,204.4 51.5,204.4 51.5,204.4 L50.9,204.4 L51,204.8 Z M51,206 L51.6,206 L51.7,206 C51.7,206 51.8,206 51.8,205.9 C51.8,205.9 51.9,205.8 51.9,205.8 C51.9,205.7 51.9,205.7 51.9,205.6 C51.9,205.5 51.9,205.5 51.9,205.4 C51.9,205.4 51.8,205.3 51.8,205.3 L51.6,205.3 L51,205.3 L51,206 Z" id="Shape" fill="#1CF9EC" fill-rule="nonzero"></path>
                <path d="M52.8,205.1 C52.8,204.9 52.8,204.7 52.9,204.5 C53,204.3 53.1,204.2 53.2,204 C53.3,203.9 53.5,203.8 53.7,203.7 C53.9,203.6 54.1,203.6 54.3,203.6 C54.5,203.6 54.7,203.6 54.9,203.7 C55.1,203.8 55.2,203.9 55.4,204 C55.5,204.1 55.7,204.3 55.7,204.5 C55.8,204.7 55.8,204.9 55.8,205.1 C55.8,205.3 55.8,205.5 55.7,205.7 C55.6,205.9 55.5,206 55.4,206.2 C55.3,206.3 55.1,206.4 54.9,206.5 C54.7,206.6 54.5,206.6 54.3,206.6 C54.1,206.6 53.9,206.6 53.7,206.5 C53.5,206.4 53.4,206.3 53.2,206.2 C53.1,206.1 53,205.9 52.9,205.7 C52.8,205.5 52.8,205.3 52.8,205.1 Z M53.5,205.1 C53.5,205.2 53.5,205.4 53.6,205.5 C53.6,205.6 53.7,205.7 53.8,205.8 C53.9,205.9 54,206 54.1,206 C54.2,206 54.3,206.1 54.5,206.1 C54.6,206.1 54.7,206.1 54.9,206 C55,206 55.1,205.9 55.2,205.8 C55.3,205.7 55.3,205.6 55.4,205.5 C55.4,205.4 55.5,205.3 55.5,205.1 C55.5,205 55.5,204.9 55.4,204.7 C55.3,204.5 55.2,204.3 54.9,204.2 C54.8,204.2 54.7,204.1 54.5,204.1 C54.4,204.1 54.3,204.1 54.1,204.2 C53.9,204.3 53.7,204.5 53.6,204.7 C53.5,204.8 53.5,205 53.5,205.1 L53.5,205.1 Z" id="Shape" fill="#1CF9EC" fill-rule="nonzero"></path>
                <path d="M56.3,203.7 L57.2,203.7 C57.4,203.7 57.6,203.7 57.8,203.8 C58,203.8 58.2,203.9 58.3,204 C58.5,204.1 58.6,204.3 58.7,204.5 C58.9,204.9 58.9,205.4 58.7,205.8 C58.6,206 58.5,206.1 58.3,206.2 C58.1,206.3 58,206.4 57.8,206.5 C57.6,206.6 57.4,206.6 57.2,206.6 L56.2,206.6 L56.3,203.7 Z M56.9,205.9 L57.2,205.9 C57.3,205.9 57.5,205.9 57.6,205.9 C57.7,205.9 57.8,205.8 57.9,205.8 C58,205.7 58.1,205.6 58.1,205.5 C58.2,205.4 58.2,205.2 58.2,205.1 C58.2,205 58.2,204.9 58.1,204.7 C58.1,204.6 58,204.5 57.9,204.4 C57.8,204.3 57.7,204.3 57.6,204.3 C57.5,204.3 57.3,204.3 57.2,204.3 L56.8,204.3 L56.8,205.9 L56.9,205.9 Z" id="Shape" fill="#1CF9EC" fill-rule="nonzero"></path>
                <rect id="Rectangle" fill="#E2E2E4" fill-rule="nonzero" x="24.5" y="199.3" width="35.3" height="1"></rect>
                <rect id="Rectangle" fill="#E2E2E4" fill-rule="nonzero" x="27.4" y="196.8" width="25.9" height="1"></rect>
                <rect id="Rectangle" fill="#E2E2E4" fill-rule="nonzero" x="25.4" y="193.8" width="18.5" height="1"></rect>
                <rect id="Rectangle" fill="#E2E2E4" fill-rule="nonzero" x="45.8" y="193.8" width="10.1" height="1"></rect>
                <rect id="Rectangle" fill="#E2E2E4" fill-rule="nonzero" x="26.5" y="191.1" width="31.4" height="1"></rect>
                <rect id="Rectangle" fill="#E2E2E4" fill-rule="nonzero" x="27.4" y="186" width="25.9" height="1"></rect>
                <rect id="Rectangle" fill="#E2E2E4" fill-rule="nonzero" x="25.4" y="183" width="18.5" height="1"></rect>
                <rect id="Rectangle" fill="#E2E2E4" fill-rule="nonzero" x="45.8" y="183" width="10.1" height="1"></rect>
                <rect id="Rectangle" fill="#E2E2E4" fill-rule="nonzero" x="45.8" y="177.6" width="10.1" height="1"></rect>
                <rect id="Rectangle" fill="#E2E2E4" fill-rule="nonzero" x="26.4" y="177.6" width="17.8" height="1"></rect>
                <rect id="Rectangle" fill="#E2E2E4" fill-rule="nonzero" x="26.5" y="180.3" width="31.4" height="1"></rect>
                <path d="M231,122 L231,144.1 L232.5,144.1 L232.5,147.1 L231,147.1 L231,228.8 C232.1,227.9 233.1,226.9 234,225.9 L234,124.9 C233,123.9 232,122.9 231,122 Z" id="Path" fill="#FFFFFF" fill-rule="nonzero"></path>
                <path d="M234,234 L234,230.1 C232.5,231.5 230.8,232.9 229,234 L234,234 Z" id="Path" fill="#FFFFFF" fill-rule="nonzero"></path>
                <path d="M208.9,234 L222.3,234 C224.4,233.3 226.4,232.3 228.2,231 L203,231 C204.8,232.2 206.8,233.2 208.9,234 Z" id="Path" fill="#FFFFFF" fill-rule="nonzero"></path>
                <path d="M3,231 L3,147.2 L1.5,147.2 L1.5,144.2 L3,144.2 L3,3 L231,3 L231,57.4 C232.1,58.4 233.1,59.6 234,60.8 L234,0 L0,0 L0,234 L202.2,234 C200.8,233.1 199.5,232.1 198.2,231 L3,231 Z" id="Path" fill="#FFFFFF" fill-rule="nonzero"></path>
                <path d="M234,120.8 L234,100.5 C233.1,101.7 232.1,102.8 231,103.9 L231,118.3 C232,119 233,119.9 234,120.8 Z" id="Path" fill="#FFFFFF" fill-rule="nonzero"></path>
                <rect id="Rectangle" fill="#FFFFFF" fill-rule="nonzero" x="231" y="144.2" width="1.5" height="3"></rect>
                <rect id="Rectangle" fill="#FFFFFF" fill-rule="nonzero" x="1.5" y="144.2" width="1.5" height="3"></rect>
                <path d="M231,231 L231,228.9 C230.1,229.7 229.2,230.4 228.2,231 L231,231 Z" id="Path" fill="#FFFFFF" fill-rule="nonzero"></path>
                <path d="M231,228.9 L231,231 L228.2,231 C226.4,232.3 224.4,233.3 222.3,234 L229,234 C230.8,232.9 232.5,231.6 234,230.1 L234,226 C233.1,227 232,227.9 231,228.9 Z" id="Path" fill="#FFFFFF" fill-rule="nonzero"></path>
                <path d="M231,122 C232.1,122.9 233.1,123.9 234,124.9 L234,120.8 C233,119.9 232,119.1 231,118.3 L231,122 Z" id="Path" fill="#FFFFFF" fill-rule="nonzero"></path>
                <path d="M203,231 L198.2,231 C199.5,232.1 200.8,233.1 202.2,234 L208.9,234 C206.8,233.2 204.8,232.2 203,231 Z" id="Path" fill="#FFFFFF" fill-rule="nonzero"></path>
                <path d="M163.5,138 C162.6,137.2 161.6,136.5 160.5,135.9 C160,136.4 159.6,136.9 159.3,137.5 C159.6,137.6 159.8,137.8 160.1,137.9 L163.5,138 Z" id="Path"></path>
                <path d="M160.2,138 L158.1,138 C158,138.6 157.9,139.2 157.9,139.8 L157.9,139.8 C157.9,139.2 158,138.6 158.1,138 L160.2,138 Z" id="Path"></path>
                <polygon id="Path" points="184.8 138 185.5 138 185.5 138"></polygon>
                <path d="M214.7,50.6 C220.8,50.7 226.6,53.1 231,57.4 L231,3 L3,3 L3,144.2 L129,144.2 L111.7,138.7 L112,137.8 L132.3,144.2 L141.8,144.2 C143.7,137.2 151,133 158,134.9 C158.2,135 158.4,135 158.6,135.1 C160,133.4 162,132.5 164.2,132.5 L178.9,132.5 C182,132.5 184.8,134.5 185.8,137.5 C192.7,122.5 203.5,112.8 215.7,112.8 C221.3,112.9 226.7,114.8 231.1,118.3 L231.1,103.9 C226.7,108.2 220.9,110.6 214.8,110.7 C200.6,110.7 189,97.2 189,80.7 C189,64.2 200.5,50.6 214.7,50.6 Z M140.9,134.8 L111.2,113.2 L111.8,112.4 L141.5,134 L140.9,134.8 Z" id="Shape"></path>
                <path d="M178,175.5 C178,173.6 178.1,171.8 178.2,170 L148.2,170 L148.2,159.3 C144,157 141.3,152.5 141.3,147.7 C141.3,147.5 141.3,147.4 141.3,147.2 L3,147.2 L3,231 L198.2,231 C186.2,220.5 178,199.5 178,175.5 Z M107.9,161.8 L107.7,160.8 L136.4,155.5 L136.6,156.5 L107.9,161.8 Z" id="Shape"></path>
                <path d="M141.8,144.2 L132.3,144.2 L134.4,144.9 L134.1,145.9 L129.1,144.3 L3.1,144.3 L3.1,147.3 L141.4,147.3 C141.3,146.2 141.5,145.2 141.8,144.2 Z" id="Path" fill="#FFFFFF" fill-rule="nonzero"></path>
                <path d="M185.7,137.5 C185.8,137.7 185.8,137.8 185.9,138 L186.9,138 C187,138.6 187.1,139.2 187.1,139.8 L187.1,139.8 C187.1,139.2 187,138.6 186.9,138 L188.7,138 C195,124.5 204.7,115.8 215.6,115.8 C221.1,115.8 226.3,118.1 231,122 L231,118.3 C226.6,114.8 221.2,112.9 215.6,112.8 C203.4,112.8 192.6,122.5 185.7,137.5 Z" id="Path" fill="#FFFFFF" fill-rule="nonzero"></path>
                <path d="M178,175.5 C178,199.6 186.2,220.5 198.2,231 L203,231 C190.1,222.3 181,200.7 181,175.5 C181,173.6 181.1,171.8 181.2,170 L178.2,170 C178.1,171.7 178,173.6 178,175.5 Z" id="Path" fill="#FFFFFF" fill-rule="nonzero"></path>
                <path d="M159.8,140 C159.8,139.9 159.8,139.9 159.8,139.8 L159.8,139.8 C159.8,139.2 159.9,138.6 160.1,138 L158,138 C157.9,138.6 157.8,139.2 157.8,139.8 C157.8,139.9 157.8,139.9 157.8,140 L159.8,140 Z" id="Path" fill="#FFFFFF" fill-rule="nonzero"></path>
                <path d="M185.1,139 C185.2,138.7 185.4,138.3 185.5,138 L184.8,138 C184.9,138.3 185,138.6 185.1,139 Z" id="Path" fill="#FFFFFF" fill-rule="nonzero"></path>
                <path d="M185.2,139.8 L185.2,139.8 C185.2,139.9 185.2,139.9 185.2,140 L187.2,140 C187.2,139.9 187.2,139.9 187.2,139.8 C187.2,139.2 187.1,138.6 187,138 L185.6,138 C185.5,138.3 185.3,138.7 185.2,139 C185.1,139.2 185.2,139.5 185.2,139.8 Z" id="Path" fill="#FFFFFF" fill-rule="nonzero"></path>
                <rect id="Rectangle" fill="#FFFFFF" fill-rule="nonzero" transform="translate(126.323685, 123.647095) rotate(-53.892167) translate(-126.323685, -123.647095) " x="125.823691" y="105.297307" width="1" height="36.6995761"></rect>
                <rect id="Rectangle" fill="#FFFFFF" fill-rule="nonzero" transform="translate(117.949450, 143.944700) rotate(-82.299345) translate(-117.949450, -143.944700) " x="117.449441" y="125.594361" width="1.0000185" height="36.7006789"></rect>
                <polygon id="Path" fill="#FFFFFF" fill-rule="nonzero" points="134.3 144.8 132.2 144.2 128.9 144.2 134 145.8"></polygon>
                <rect id="Rectangle" fill="#FFFFFF" fill-rule="nonzero" transform="translate(122.206840, 164.588580) rotate(-10.521106) translate(-122.206840, -164.588580) " x="107.606658" y="164.088574" width="29.200365" height="1.0000125"></rect>
                <path d="M157.4,136.8 C154.5,136 151.4,136.4 148.8,137.9 L157,137.9 C157.1,137.6 157.3,137.2 157.4,136.8 Z" id="Path"></path>
                <path d="M148.2,138.4 C146.2,139.8 144.7,141.8 143.9,144.2 L148.2,144.2 L148.2,138.4 Z" id="Path"></path>
                <path d="M148.2,156.9 L148.2,147.1 L143.3,147.1 C143.3,147.3 143.3,147.4 143.3,147.6 C143.3,151.4 145.1,154.8 148.2,156.9 Z" id="Path"></path>
                <path d="M160.2,138 L160.2,138 C159.9,137.8 159.7,137.7 159.4,137.6 C159.3,137.7 159.3,137.9 159.2,138 L160.2,138 Z" id="Path"></path>
                <path d="M183.8,138 C183,135.9 181,134.5 178.8,134.5 L164.1,134.5 C162.8,134.5 161.5,135 160.5,135.9 C161.6,136.5 162.6,137.2 163.5,138 L183.8,138 Z" id="Path"></path>
                <path d="M165.3,140 L184.7,140 L185.1,139 C185,138.7 185,138.3 184.8,138 L163.4,138 C164.1,138.6 164.7,139.2 165.3,140 Z" id="Path" fill="#FFFFFF" fill-rule="nonzero"></path>
                <path d="M184.7,140 L185.2,140 C185.2,139.9 185.2,139.9 185.2,139.8 C185.2,139.5 185.2,139.3 185.1,139 L184.7,140 Z" id="Path" fill="#FFFFFF" fill-rule="nonzero"></path>
                <path d="M185.1,139 L185.1,139 C185,138.7 185,138.3 184.8,138 L184.8,138 C184.9,138.3 185,138.6 185.1,139 Z" id="Path" fill="#FFFFFF" fill-rule="nonzero"></path>
                <path d="M185.2,139.8 L185.2,139.8 C185.2,139.5 185.2,139.3 185.1,139 L185.1,139 C185.1,139.2 185.2,139.5 185.2,139.8 Z" id="Path" fill="#FFFFFF" fill-rule="nonzero"></path>
                <path d="M160.2,138 C160,138.6 159.9,139.2 159.9,139.8 C159.9,139.9 159.9,139.9 159.9,140 L162.8,140 C162,139.2 161.1,138.5 160.2,138 L160.2,138 Z" id="Path" fill="#FFFFFF" fill-rule="nonzero"></path>
                <path d="M160.2,138 C160,138.6 159.9,139.2 159.9,139.8 L159.9,139.8 C159.8,139.1 159.9,138.5 160.2,138 Z" id="Path" fill="#FFFFFF" fill-rule="nonzero"></path>
                <path d="M192.9,140 L192.9,168 L181.3,168 C181.3,168.7 181.2,169.3 181.2,170 L194.9,170 L194.9,138 L188.7,138 C188.4,138.6 188.1,139.3 187.8,140 L192.9,140 Z" id="Path" fill="#FFFFFF" fill-rule="nonzero"></path>
                <path d="M150.2,160.2 C149.5,160 148.8,159.7 148.2,159.3 L148.2,169.9 L178.2,169.9 C178.2,169.2 178.3,168.6 178.3,167.9 L150.2,167.9 L150.2,160.2 Z" id="Path" fill="#FFFFFF" fill-rule="nonzero"></path>
                <path d="M187.2,139.8 L187.2,139.8 C187.2,139.9 187.2,139.9 187.2,140 L187.9,140 C188.2,139.3 188.5,138.6 188.8,138 L187,138 C187.1,138.5 187.2,139.1 187.2,139.8 Z" id="Path" fill="#FFFFFF" fill-rule="nonzero"></path>
                <path d="M178.3,167.9 C178.3,168.6 178.2,169.2 178.2,169.9 L181.2,169.9 C181.2,169.2 181.3,168.6 181.3,167.9 L178.3,167.9 Z" id="Path" fill="#FFFFFF" fill-rule="nonzero"></path>
                <path d="M187.2,140 C187.2,139.9 187.2,139.9 187.2,139.8 L187.2,139.8 C187.2,139.8 187.2,139.9 187.2,140 Z" id="Path" fill="#FFFFFF" fill-rule="nonzero"></path>
                <path d="M150.2,144.2 L150.2,140 L157.9,140 C157.9,139.9 157.9,139.9 157.9,139.8 L157.9,139.8 C157.9,139.2 158,138.6 158.1,138 L148.9,138 C148.7,138.1 148.4,138.3 148.2,138.4 L148.2,144.2 L150.2,144.2 Z" id="Path" fill="#FFFFFF" fill-rule="nonzero"></path>
                <path d="M148.2,156.9 C148.8,157.3 149.5,157.7 150.2,158 L150.2,147.1 L148.2,147.1 L148.2,156.9 Z" id="Path" fill="#FFFFFF" fill-rule="nonzero"></path>
                <rect id="Rectangle" fill="#FFFFFF" fill-rule="nonzero" x="148.2" y="144.2" width="2" height="3"></rect>
                <path d="M157.8,139.8 L157.8,139.8 C157.8,139.9 157.8,139.9 157.8,140 L157.8,140 C157.8,139.9 157.8,139.8 157.8,139.8 Z" id="Path" fill="#FFFFFF" fill-rule="nonzero"></path>
                <path d="M164.1,134.5 L178.8,134.5 C181,134.5 183,135.9 183.8,138 L185.5,138 C185.6,137.8 185.6,137.6 185.7,137.5 C184.7,134.5 181.9,132.5 178.8,132.5 L164.1,132.5 C161.9,132.5 159.9,133.5 158.5,135.1 C159.2,135.3 159.9,135.6 160.5,135.9 C161.5,135 162.8,134.5 164.1,134.5 Z" id="Path" fill="#FFFFFF" fill-rule="nonzero"></path>
                <path d="M185.9,138 C185.9,137.8 185.8,137.7 185.7,137.5 C185.6,137.7 185.6,137.8 185.5,138 L185.9,138 Z" id="Path" fill="#FFFFFF" fill-rule="nonzero"></path>
                <path d="M158.1,138 L159.2,138 C159.3,137.9 159.3,137.7 159.4,137.6 C158.8,137.3 158.1,137.1 157.5,136.9 C157.3,137.3 157.2,137.6 157.1,138 L158.1,138 Z" id="Path" fill="#FFFFFF" fill-rule="nonzero"></path>
                <path d="M148.2,138.4 L148.2,138 L148.9,138 C151.5,136.5 154.6,136.1 157.5,136.9 C157.8,136.3 158.2,135.7 158.6,135.1 C151.7,132.9 144.2,136.7 142,143.6 C141.9,143.8 141.9,144 141.8,144.2 L143.9,144.2 C144.6,141.8 146.1,139.8 148.2,138.4 Z" id="Path" fill="#FFFFFF" fill-rule="nonzero"></path>
                <path d="M143.3,147.7 C143.3,147.5 143.3,147.4 143.3,147.2 L141.3,147.2 C141.3,147.4 141.3,147.5 141.3,147.7 C141.3,152.5 143.9,157 148.2,159.3 L148.2,156.9 C145.1,154.8 143.3,151.4 143.3,147.7 Z" id="Path" fill="#FFFFFF" fill-rule="nonzero"></path>
                <path d="M143.3,147.2 C143.3,146.2 143.5,145.2 143.8,144.2 L141.8,144.2 C141.5,145.2 141.4,146.2 141.3,147.2 L143.3,147.2 Z" id="Path" fill="#FFFFFF" fill-rule="nonzero"></path>
                <path d="M165.3,140 C164.8,139.3 164.2,138.6 163.5,138 L160.2,138 C161.1,138.5 162,139.2 162.7,140 L165.3,140 Z" id="Path" fill="#FFFFFF" fill-rule="nonzero"></path>
                <path d="M148.2,138 L148.2,138.4 C148.4,138.2 148.7,138.1 148.9,138 L148.2,138 Z" id="Path" fill="#FFFFFF" fill-rule="nonzero"></path>
                <path d="M150.2,158 C149.5,157.7 148.8,157.3 148.2,156.9 L148.2,159.3 C148.8,159.7 149.5,159.9 150.2,160.2 L150.2,158 Z" id="Path" fill="#FFFFFF" fill-rule="nonzero"></path>
                <path d="M159.3,137.5 C159.6,136.9 160,136.3 160.5,135.9 C159.9,135.6 159.2,135.3 158.5,135.1 C158,135.6 157.7,136.2 157.4,136.9 C158.1,137 158.7,137.2 159.3,137.5 Z" id="Path" fill="#FFFFFF" fill-rule="nonzero"></path>
                <path d="M210,142.9 C205.2,146.5 204.3,154.5 204.3,154.5 L202,154.5 C201.1,152.1 199.7,149.9 197.9,148.1 L200.5,148.1 C201.3,149.3 202,150.5 202.6,151.8 C202.6,151.8 204.3,145.3 208.7,141.9 L210,142.9 Z" id="Path" fill="#E2E2E4" fill-rule="nonzero"></path>
            </g>
        </g>
    </g>
</svg>