<svg xmlns="http://www.w3.org/2000/svg" viewBox="0 0 471.99 471.99"><title>horeca_cartoon03Asset 3</title><g id="Layer_2" data-name="Layer 2"><g id="_3" data-name="3"><g id="Layer_1-2" data-name="Layer 1-2"><polygon points="381.2 153.89 346.96 203.99 364.07 203.99 364.07 277.7 381.2 277.7 398.33 277.7 398.33 203.99 415.44 203.99 381.2 153.89" style="fill:#fff"/><path d="M322.84,314.9h5.39a15.92,15.92,0,0,1,3.7.43,8.5,8.5,0,0,1,3.07,1.41,7.11,7.11,0,0,1,2.11,2.54,8.42,8.42,0,0,1,.76,3.76,7.82,7.82,0,0,1-.74,3.47,7.24,7.24,0,0,1-2,2.52,8.67,8.67,0,0,1-2.89,1.54,11.12,11.12,0,0,1-3.47.53h-5.84Zm3.57,12.9h1.82a9.72,9.72,0,0,0,2.28-.25,4.74,4.74,0,0,0,1.86-.83,4.18,4.18,0,0,0,1.23-1.54,5.21,5.21,0,0,0,.44-2.3,4.42,4.42,0,0,0-.44-2.12,4.27,4.27,0,0,0-1.21-1.46,5.32,5.32,0,0,0-1.77-.87,8.38,8.38,0,0,0-2.12-.27h-2.11Z" style="fill:#fff"/><path d="M345.55,314.9h3l7,16.2h-4.06l-1.4-3.42h-6.34l-1.35,3.42h-3.94Zm1.37,4.72-2,5h4Z" style="fill:#fff"/><path d="M358.21,318.05H353.6V314.9h12.82v3.15h-4.63V331.1h-3.55Z" style="fill:#fff"/><path d="M371.43,314.9h3l7,16.2h-4l-1.4-3.42h-6.34l-1.36,3.42h-3.93Zm1.38,4.72-2,5h3.91Z" style="fill:#fff"/><path d="M383.06,314.9h6.05a15.11,15.11,0,0,1,2.12.15,6.08,6.08,0,0,1,1.9.59,3.58,3.58,0,0,1,1.37,1.25A3.75,3.75,0,0,1,395,319a3.38,3.38,0,0,1-.76,2.26,4.26,4.26,0,0,1-2.11,1.31h0a4.35,4.35,0,0,1,1.45.44,3.78,3.78,0,0,1,1.13.85,3.41,3.41,0,0,1,.71,1.2,4.09,4.09,0,0,1,.26,1.46,3.93,3.93,0,0,1-.55,2.12,4.49,4.49,0,0,1-1.42,1.39,6.06,6.06,0,0,1-2,.74,9.51,9.51,0,0,1-2.12.24H383Zm3.58,6.47h2.58a2.82,2.82,0,0,0,.82,0,2.65,2.65,0,0,0,.72-.29,1.68,1.68,0,0,0,.51-.55,1.71,1.71,0,0,0,.19-.83,1.55,1.55,0,0,0-.21-.84,1.9,1.9,0,0,0-.55-.51,2.74,2.74,0,0,0-.79-.27h-3.27Zm0,6.71h3.21a3.84,3.84,0,0,0,.83,0,2.41,2.41,0,0,0,.76-.32,2,2,0,0,0,.57-.59,1.72,1.72,0,0,0,.21-.89,1.42,1.42,0,0,0-.28-.93,1.63,1.63,0,0,0-.74-.55,3,3,0,0,0-.93-.25h-3.63Z" style="fill:#fff"/><path d="M403.24,314.9h3l7,16.2h-4l-1.4-3.42h-6.34l-1.35,3.42h-3.94Zm1.37,4.72-2,5h4Z" style="fill:#fff"/><path d="M422.88,318.86a2.69,2.69,0,0,0-1.18-.81,4,4,0,0,0-1.42-.27,3.57,3.57,0,0,0-.8,0,2.46,2.46,0,0,0-.76.27,1.56,1.56,0,0,0-.6.51,1.28,1.28,0,0,0-.23.78,1.23,1.23,0,0,0,.55,1.12,4.8,4.8,0,0,0,1.38.68l1.79.55a7.72,7.72,0,0,1,1.8.76,4.66,4.66,0,0,1,1.4,1.36,4.31,4.31,0,0,1,.55,2.28,5.3,5.3,0,0,1-.51,2.35,5,5,0,0,1-1.38,1.67,5.94,5.94,0,0,1-2,1,9.07,9.07,0,0,1-5.33-.17,7.56,7.56,0,0,1-2.52-1.56l2.56-2.79a3.88,3.88,0,0,0,1.37,1.14,4,4,0,0,0,1.74.4,4.51,4.51,0,0,0,.89-.11,2.28,2.28,0,0,0,.78-.31,1.51,1.51,0,0,0,.8-1.27,1.35,1.35,0,0,0-.57-1.16,4.6,4.6,0,0,0-1.39-.72L418,324a8.14,8.14,0,0,1-1.84-.8,4.68,4.68,0,0,1-1.4-1.33,3.68,3.68,0,0,1-.57-2.12,4.64,4.64,0,0,1,.53-2.28,5,5,0,0,1,1.37-1.65,6.09,6.09,0,0,1,2-1,8.42,8.42,0,0,1,5,0,5.9,5.9,0,0,1,2.3,1.29Z" style="fill:#fff"/><path d="M428.15,314.9h11v3.3H431.7v3h7v3.27h-7v3.3h7.87v3.3H428.15Z" style="fill:#fff"/><path d="M330.64,244.57l-10.77-10.78a2.11,2.11,0,0,0-2.94,2.94l7.32,7.29H280.62a2.12,2.12,0,0,0,0,4.23h44.73l-8.46,8.46a2.11,2.11,0,0,0,2.94,2.92c3.57-3.55,7.13-7.13,10.7-10.7a5.12,5.12,0,0,0,0-4.23Z" style="fill:#fff"/><path d="M350.39,292.38v7.23a5.21,5.21,0,0,0,.15,1.12,3.07,3.07,0,0,0,.51,1.08,2.73,2.73,0,0,0,.88.81,2.84,2.84,0,0,0,1.4.31,2.71,2.71,0,0,0,1.37-.31,2.52,2.52,0,0,0,1-.89,2.86,2.86,0,0,0,.49-1.08,4.25,4.25,0,0,0,.14-1.12v-7.15h1.48v7.4a5,5,0,0,1-.33,1.84,4.44,4.44,0,0,1-1,1.44,4,4,0,0,1-1.41.93,4.86,4.86,0,0,1-3.56,0,4.2,4.2,0,0,1-1.43-.93,4.38,4.38,0,0,1-1-1.44,4.62,4.62,0,0,1-.33-1.84v-7.4Z" style="fill:#fff"/><path d="M360.6,292.38h4.11a4.64,4.64,0,0,1,1.84.32,2.76,2.76,0,0,1,1.73,1.82,4.33,4.33,0,0,1,0,2.26,2.84,2.84,0,0,1-.59,1,3.18,3.18,0,0,1-1.14.78,4.64,4.64,0,0,1-1.84.29h-2.52V304H360.6Zm1.59,5.14h2.12a6.76,6.76,0,0,0,.9,0,3.35,3.35,0,0,0,.81-.27,1.51,1.51,0,0,0,.57-.58,1.91,1.91,0,0,0,.21-1,1.84,1.84,0,0,0-.21-.95,1.42,1.42,0,0,0-.57-.57,3.38,3.38,0,0,0-.81-.28,6.76,6.76,0,0,0-.9,0h-2.12Z" style="fill:#fff"/><path d="M370.35,292.38h1.59v10.17h5.35V304h-6.94Z" style="fill:#fff"/><path d="M384.25,304.33a6.3,6.3,0,0,1-2.46-.47,5.56,5.56,0,0,1-1.92-1.29,6,6,0,0,1-1.25-1.94,6.43,6.43,0,0,1-.44-2.41,6.5,6.5,0,0,1,.44-2.43,6,6,0,0,1,1.25-1.93,5.56,5.56,0,0,1,1.92-1.29,6.38,6.38,0,0,1,4.89,0,5.47,5.47,0,0,1,1.92,1.29,6,6,0,0,1,1.25,1.93,6.5,6.5,0,0,1,.44,2.43,6.43,6.43,0,0,1-.44,2.41,6,6,0,0,1-1.25,1.94,5.56,5.56,0,0,1-1.92,1.29A6.15,6.15,0,0,1,384.25,304.33Zm0-1.48a4.09,4.09,0,0,0,1.79-.38,4.36,4.36,0,0,0,2.27-2.45,5.38,5.38,0,0,0,0-3.6,4.31,4.31,0,0,0-.89-1.48,4.22,4.22,0,0,0-1.38-1,4.45,4.45,0,0,0-3.61,0,4.22,4.22,0,0,0-1.38,1,4.44,4.44,0,0,0-.88,1.48,5.22,5.22,0,0,0,0,3.6,4.16,4.16,0,0,0,.88,1.45,4,4,0,0,0,1.38,1A4.22,4.22,0,0,0,384.25,302.85Z" style="fill:#fff"/><path d="M396.22,292.38h1.43l5,11.65h-1.84l-1.16-2.87h-5.54L392.94,304H391.1Zm2.83,7.4-2.12-5.35h0l-2.11,5.35Z" style="fill:#fff"/><path d="M403.89,292.38H408a7.59,7.59,0,0,1,2.12.3,5.55,5.55,0,0,1,1.6.74,5.13,5.13,0,0,1,1.15,1.08,7.29,7.29,0,0,1,.72,1.24,6.48,6.48,0,0,1,.35,1.29,5.29,5.29,0,0,1,.13,1.19,5.88,5.88,0,0,1-.42,2.11,5.34,5.34,0,0,1-1.21,1.86,6.23,6.23,0,0,1-2,1.31,7.15,7.15,0,0,1-2.74.49h-3.79Zm1.57,10.17h2a6.15,6.15,0,0,0,1.9-.27,4.23,4.23,0,0,0,1.56-.81,3.74,3.74,0,0,0,1.08-1.35,4.47,4.47,0,0,0,.4-1.9,4.77,4.77,0,0,0-.19-1.31,3.72,3.72,0,0,0-.67-1.42,3.78,3.78,0,0,0-1.4-1.14,4.84,4.84,0,0,0-2.3-.49h-2.37Z" style="fill:#fff"/></g><rect x="4.83" y="4.83" width="462.33" height="462.33" style="fill:none;stroke:#fff;stroke-miterlimit:10;stroke-width:9.665337324142456px"/><path d="M125.82,186.85c-5.81-25.64-19-42.18-33.65-42.18-14.22,0-27.27,15.88-33.26,40.46l-2.32-.55c6.26-25.64,20.21-42.31,35.54-42.31,15.78,0,29.88,17.27,35.9,44Z" style="fill:#fff"/><path d="M92.34,140.39c-11.13,0-20.2-10.55-20.2-23.52s9.07-23.5,20.2-23.5,20.2,10.56,20.2,23.5S103.48,140.39,92.34,140.39Zm0-44.67c-9.84,0-17.8,9.5-17.8,21.15S82.5,138,92.34,138s17.85-9.5,17.85-21.17S102.18,95.72,92.34,95.72Z" style="fill:#fff"/><circle cx="83.25" cy="116.27" r="1.12" style="fill:#fff"/><circle cx="100.5" cy="116.27" r="1.12" style="fill:#fff"/><path d="M87.53,133.11a7.3,7.3,0,0,1,2.14-1.21,9.11,9.11,0,0,1,2.36-.55,6.89,6.89,0,0,1,2.56.18c.21.08.41.13.62.22l.57.33a5.34,5.34,0,0,1,.49.45,3.56,3.56,0,0,1,.31.58,4.44,4.44,0,0,0-2.22-.33c-.72,0-1.44.09-2.18.16s-1.49.15-2.26.2A15.89,15.89,0,0,1,87.53,133.11Z" style="fill:#fff"/><path d="M83.84,123.38h17.21l-.8,1.28c-1.91,2.86-4.17,4.38-6.72,4.53-4.67.24-8.46-4.26-8.63-4.45ZM98,124.92H87.4a9.2,9.2,0,0,0,6,2.56A6.58,6.58,0,0,0,98,124.92Z" style="fill:#fff"/><path d="M149.64,184.38h-7.45l1.62.51-.23.75-4-1.28H41v2.34H149.28A11.43,11.43,0,0,1,149.64,184.38Z" style="fill:#fff"/><path d="M150.13,184.38h-1.44l.32.51v.75l-.76-1.28H129.16v2.34h20.89C150.13,185.92,150.13,185.07,150.13,184.38Z" style="fill:#fff"/><path d="M150.68,186.7H40V82.3H150.68ZM42,185.36H148.62V83.65H42Z" style="fill:#fff"/><path d="M239.59,186.85c-5.81-25.64-19-42.18-33.66-42.18-14.21,0-27.26,15.88-33.25,40.46l-2.32-.55c6.25-25.64,20.2-42.31,35.54-42.31,15.78,0,29.88,17.27,35.89,44Z" style="fill:#fff"/><path d="M206.1,140.39c-11.13,0-20.19-10.55-20.19-23.52s9.06-23.5,20.19-23.5,20.21,10.56,20.21,23.5S217.24,140.39,206.1,140.39Zm0-44.67c-9.83,0-17.79,9.5-17.79,21.15s8,21.17,17.79,21.17S224,128.54,224,116.87,216,95.72,206.1,95.72Z" style="fill:#fff"/><circle cx="197.01" cy="116.27" r="1.12" style="fill:#fff"/><circle cx="214.27" cy="116.27" r="1.12" style="fill:#fff"/><path d="M201.29,133.11a7.57,7.57,0,0,1,2.14-1.21,9.2,9.2,0,0,1,2.36-.55,7,7,0,0,1,2.57.18c.2.08.41.13.61.22l.58.33a5.34,5.34,0,0,1,.49.45,2.89,2.89,0,0,1,.3.58,4.4,4.4,0,0,0-2.21-.33c-.72,0-1.44.09-2.18.16s-1.49.15-2.26.2A16,16,0,0,1,201.29,133.11Z" style="fill:#fff"/><path d="M197.6,123.38h17.22l-.81,1.28c-1.91,2.86-4.17,4.38-6.72,4.53-4.66.24-8.46-4.26-8.62-4.45Zm14.19,1.54H201.17a9.18,9.18,0,0,0,6.05,2.56A6.56,6.56,0,0,0,211.79,124.92Z" style="fill:#fff"/><path d="M263.41,184.38H256l1.62.51-.24.75-4-1.28H154.77v2.34H263.05A10.77,10.77,0,0,1,263.41,184.38Z" style="fill:#fff"/><path d="M263.9,184.38h-1.44l.32.51v.75l-.77-1.28H242.92v2.34h20.9C263.9,185.92,263.9,185.07,263.9,184.38Z" style="fill:#fff"/><path d="M264.45,186.7H153.73V82.3H264.45Zm-108.66-1.34H262.38V83.65H155.79Z" style="fill:#fff"/><path d="M239.59,403c-5.81-25.64-19-42.17-33.66-42.17-14.21,0-27.26,15.88-33.25,40.46l-2.32-.55c6.25-25.65,20.2-42.31,35.54-42.31,15.78,0,29.88,17.27,35.89,44Z" style="fill:#fff"/><path d="M206.1,356.54C195,356.54,185.91,346,185.91,333s9.06-23.5,20.19-23.5,20.21,10.55,20.21,23.5S217.24,356.54,206.1,356.54Zm0-44.66c-9.83,0-17.79,9.5-17.79,21.15s8,21.17,17.79,21.17S224,344.7,224,333,216,311.88,206.1,311.88Z" style="fill:#fff"/><circle cx="197.01" cy="332.43" r="1.12" style="fill:#fff"/><circle cx="214.27" cy="332.43" r="1.12" style="fill:#fff"/><path d="M201.29,349.26a7.54,7.54,0,0,1,2.14-1.2,9.22,9.22,0,0,1,2.36-.56,7.41,7.41,0,0,1,2.57.18c.2.08.41.13.61.22l.58.34c.17.15.35.29.49.44a3.55,3.55,0,0,1,.3.58,4.29,4.29,0,0,0-2.21-.32c-.72,0-1.44.09-2.18.15s-1.49.16-2.26.21A17.48,17.48,0,0,1,201.29,349.26Z" style="fill:#fff"/><path d="M197.6,339.53h17.22l-.81,1.29c-1.91,2.85-4.17,4.38-6.72,4.52-4.66.24-8.46-4.26-8.62-4.45Zm14.19,1.54H201.17a9.14,9.14,0,0,0,6.05,2.57A6.61,6.61,0,0,0,211.79,341.07Z" style="fill:#fff"/><path d="M263.41,400.54H256l1.62.51-.24.74-4-1.28H154.77v2.35H263.05A10.58,10.58,0,0,1,263.41,400.54Z" style="fill:#fff"/><path d="M263.9,400.54h-1.44l.32.51v.74l-.77-1.28H242.92v2.35h20.9C263.9,402.08,263.9,401.23,263.9,400.54Z" style="fill:#fff"/><path d="M264.45,402.86H153.73V298.46H264.45Zm-108.66-1.35H262.38V299.81H155.79Z" style="fill:#fff"/><path d="M125.82,403c-5.81-25.64-19-42.17-33.65-42.17-14.22,0-27.27,15.88-33.26,40.46l-2.32-.55c6.26-25.65,20.21-42.31,35.54-42.31,15.78,0,29.88,17.27,35.9,44Z" style="fill:#fff"/><path d="M92.34,356.54c-11.13,0-20.2-10.55-20.2-23.51s9.07-23.5,20.2-23.5,20.2,10.55,20.2,23.5S103.48,356.54,92.34,356.54Zm0-44.66c-9.84,0-17.8,9.5-17.8,21.15s8,21.17,17.8,21.17,17.85-9.5,17.85-21.17S102.18,311.88,92.34,311.88Z" style="fill:#fff"/><circle cx="83.25" cy="332.43" r="1.12" style="fill:#fff"/><circle cx="100.5" cy="332.43" r="1.12" style="fill:#fff"/><path d="M87.53,349.26a7.27,7.27,0,0,1,2.14-1.2A9.12,9.12,0,0,1,92,347.5a7.34,7.34,0,0,1,2.56.18c.21.08.41.13.62.22l.57.34c.17.15.35.29.49.44a4.63,4.63,0,0,1,.31.58,4.32,4.32,0,0,0-2.22-.32c-.72,0-1.44.09-2.18.15s-1.49.16-2.26.21A17.34,17.34,0,0,1,87.53,349.26Z" style="fill:#fff"/><path d="M83.84,339.53h17.21l-.8,1.29c-1.91,2.85-4.17,4.38-6.72,4.52-4.67.24-8.46-4.26-8.63-4.45ZM98,341.07H87.4a9.16,9.16,0,0,0,6,2.57A6.63,6.63,0,0,0,98,341.07Z" style="fill:#fff"/><path d="M149.64,400.54h-7.45l1.62.51-.23.74-4-1.28H41v2.35H149.28A11.22,11.22,0,0,1,149.64,400.54Z" style="fill:#fff"/><path d="M150.13,400.54h-1.44l.32.51v.74l-.76-1.28H129.16v2.35h20.89C150.13,402.08,150.13,401.23,150.13,400.54Z" style="fill:#fff"/><path d="M150.68,402.86H40V298.46H150.68ZM42,401.51H148.62V299.81H42Z" style="fill:#fff"/><path d="M125.82,295.11c-5.81-25.65-19-42.18-33.65-42.18-14.22,0-27.27,15.88-33.26,40.46l-2.32-.55c6.26-25.65,20.21-42.31,35.54-42.31,15.78,0,29.88,17.27,35.9,44Z" style="fill:#fff"/><path d="M92.34,248.64c-11.13,0-20.2-10.55-20.2-23.51s9.07-23.5,20.2-23.5,20.2,10.55,20.2,23.5S103.48,248.64,92.34,248.64Zm0-44.66c-9.84,0-17.8,9.5-17.8,21.15s8,21.17,17.8,21.17,17.85-9.5,17.85-21.17S102.18,204,92.34,204Z" style="fill:#fff"/><circle cx="83.25" cy="224.53" r="1.12" style="fill:#fff"/><circle cx="100.5" cy="224.53" r="1.12" style="fill:#fff"/><path d="M87.53,241.36a7.27,7.27,0,0,1,2.14-1.2,9.11,9.11,0,0,1,2.36-.55,7.11,7.11,0,0,1,2.56.17c.21.08.41.13.62.22l.57.34c.17.15.35.29.49.44a4.63,4.63,0,0,1,.31.58,4.32,4.32,0,0,0-2.22-.32c-.72,0-1.44.09-2.18.15s-1.49.16-2.26.21A17.34,17.34,0,0,1,87.53,241.36Z" style="fill:#fff"/><path d="M83.84,231.63h17.21l-.8,1.29c-1.91,2.85-4.17,4.38-6.72,4.52-4.67.25-8.46-4.25-8.63-4.45ZM98,233.17H87.4a9.16,9.16,0,0,0,6,2.57A6.63,6.63,0,0,0,98,233.17Z" style="fill:#fff"/><path d="M149.64,292.64h-7.45l1.62.51-.23.74-4-1.28H41V295H149.28A11.32,11.32,0,0,1,149.64,292.64Z" style="fill:#fff"/><path d="M150.13,292.64h-1.44l.32.51v.74l-.76-1.28H129.16V295h20.89C150.13,294.18,150.13,293.33,150.13,292.64Z" style="fill:#fff"/><path d="M150.68,295H40V190.56H150.68ZM42,293.61H148.62V191.91H42Z" style="fill:#fff"/><path d="M239.75,293.06c-6.74-25.41-20.54-41.46-35.17-40.92-14.21.51-26.67,16.87-31.76,41.64l-2.34-.46c5.32-25.85,18.65-43,34-43.58,15.78-.58,30.5,16.17,37.49,42.67Z" style="fill:#e94c3d"/><path d="M205.84,248.45c-11.12,0-20.19-10.55-20.19-23.51s9.07-23.5,20.19-23.5,20.21,10.55,20.21,23.5S217,248.45,205.84,248.45Zm0-44.67c-9.83,0-17.79,9.5-17.79,21.16s8,21.16,17.79,21.16,17.86-9.5,17.86-21.16S215.69,203.78,205.84,203.78Z" style="fill:#e94c3d"/><circle cx="196.75" cy="224.34" r="1.12" style="fill:#e94c3d"/><circle cx="214.01" cy="224.34" r="1.12" style="fill:#e94c3d"/><path d="M201,241.17a7.3,7.3,0,0,1,2.14-1.21,9.53,9.53,0,0,1,2.36-.55,6.92,6.92,0,0,1,2.56.18c.21.08.41.13.62.22l.57.33c.17.16.35.3.49.45a4,4,0,0,1,.31.58,4.34,4.34,0,0,0-2.22-.32c-.72,0-1.44.09-2.18.15s-1.49.16-2.26.21A17.31,17.31,0,0,1,201,241.17Z" style="fill:#e94c3d"/><path d="M214.56,237.26H197.34l.81-1.28c1.91-2.86,4.17-4.39,6.72-4.53,4.67-.24,8.46,4.26,8.63,4.45Zm-14.19-1.54H211a9.15,9.15,0,0,0-6.05-2.56A6.56,6.56,0,0,0,200.37,235.72Z" style="fill:#e94c3d"/><path d="M264.29,294.77H153.37V190.37H264.29Zm-108.85-1.35H262.22V191.71H155.44Z" style="fill:#e94c3d"/></g></g></svg>