<svg xmlns="http://www.w3.org/2000/svg" viewBox="0 0 461.73 471.88"><title>horeca_cartoon04Asset 4</title><g id="Layer_2" data-name="Layer 2"><g id="_4" data-name="4"><rect x="4.78" y="4.78" width="452.18" height="462.33" style="fill:none;stroke:#fff;stroke-miterlimit:10;stroke-width:9.558648614927575px"/><g id="Layer_1-2" data-name="Layer 1-2"><path d="M144.57,359.88c-29.56,22.69-35,73.15-35,73.15h-14c-11.83-28.22-25.23-40.51-25.23-40.51h16.1s9.13,12.7,13.07,23.28c0,0,10.34-40.93,37.7-62.13Z" style="fill:#fff;stroke:#fff;stroke-miterlimit:10;stroke-width:1.9928983625663799px"/><ellipse cx="247.79" cy="337.89" rx="13.41" ry="13.71" style="fill:none;stroke:#fff;stroke-miterlimit:10;stroke-width:2.802236313409363px"/><path d="M338.64,323.24v0c-.12-.19-.25-.37-.38-.55l-.08-.07-.4-.39c-.24-.13-.49-.3-.74-.41a7.53,7.53,0,0,1-1.66-1.08,10.67,10.67,0,0,1-1.33-.4l.88.5a2.55,2.55,0,0,1,.82,3.46,2.43,2.43,0,0,1-3,1v35.24H162.82V70.68H332.73V272.46c2,.74,3.94,1.39,5.92,2V152.3q-2.73-6.93-5.35-13.89c-1.14-3,3.63-4.35,4.75-1.35l.6,1.53V64.64H156.91v302H333.38c-.27-1.39-.53-2.79-.82-4.16-.65-3.18,4.1-4.51,4.75-1.35.37,1.84.72,3.67,1.1,5.51h.24V323.24Z" style="fill:#fff;stroke:#fff;stroke-miterlimit:10;stroke-width:1.9928983625663799px"/><path d="M170.67,85.37V316.93H317.42c-2.43-1.31-4.87-2.66-7.29-4H174.61V89.4H321.36V267c1.3.76,2.6,1.51,3.94,2.19V85.37Z" style="fill:#fff;stroke:#fff;stroke-miterlimit:10;stroke-width:1.9928983625663799px"/><path d="M347.34,281.61c3.11.48,4.45-4.38,1.32-4.86a79.53,79.53,0,0,1-10-2.24v5.24A84.38,84.38,0,0,0,347.34,281.61Z" style="fill:#fff;stroke:#fff;stroke-miterlimit:10;stroke-width:1.9928983625663799px"/><path d="M325.3,269.17V275c2.47,1.11,5,2,7.53,3v-5.54A71.79,71.79,0,0,1,325.3,269.17Z" style="fill:#fff;stroke:#fff;stroke-miterlimit:10;stroke-width:1.9928983625663799px"/><path d="M325.3,316.93h-7.88c5.14,2.78,10.23,5.46,15,8.24l.29.15v-5.75c-2.44-1.37-4.94-2.74-7.53-4Z" style="fill:#fff;stroke:#fff;stroke-miterlimit:10;stroke-width:1.9928983625663799px"/><path d="M332.73,278c2,.66,3.94,1.23,5.92,1.75v-5.28c-2-.58-3.95-1.23-5.92-2Z" style="fill:#fff;stroke:#fff;stroke-miterlimit:10;stroke-width:1.9928983625663799px"/><path d="M334.92,320.82l-2.19-1.25v5.75a2.45,2.45,0,0,0,3.2-1.42A2.55,2.55,0,0,0,334.92,320.82Z" style="fill:#fff;stroke:#fff;stroke-miterlimit:10;stroke-width:1.9928983625663799px"/><path d="M310.17,312.9c2.42,1.37,4.86,2.72,7.29,4h7.84v-1.49l-4.75-2.54Z" style="fill:#fff;stroke:#fff;stroke-miterlimit:10;stroke-width:1.9928983625663799px"/><path d="M321.36,273.12c1.3.67,2.62,1.29,3.94,1.9v-5.85c-1.34-.68-2.64-1.43-3.94-2.19Z" style="fill:#fff;stroke:#fff;stroke-miterlimit:10;stroke-width:1.9928983625663799px"/><path d="M447.81,459.16c-11.13-29.4-25.38-57.35-39.41-85.42-7.22-14.43-14.23-29-20.82-43.71C381.2,315.7,373.79,300.65,371.3,285c-2-11.95-.51-24.5-.47-36.55a123.28,123.28,0,0,0-4.55-32.25c-7-26.59-18-51.91-27.59-77.56V152.3c8.29,21.42,17,42.88,22.88,65.18a129.77,129.77,0,0,1,4.29,36.44c-.17,10.7-1.1,21.76.73,32.38,2.39,13.75,8.32,27,13.8,39.7,6.44,14.71,13.28,29.22,20.4,43.59,14.82,29.94,30.33,59.57,42.21,90.92C444.19,463.49,449,462.2,447.81,459.16Z" style="fill:#fff;stroke:#fff;stroke-miterlimit:10;stroke-width:1.9928983625663799px"/><path d="M338.05,137.06c-1.12-3-5.91-1.69-4.75,1.35q2.61,7,5.35,13.89V138.59Z" style="fill:#fff;stroke:#fff;stroke-miterlimit:10;stroke-width:1.9928983625663799px"/><path d="M345.52,457.47c.22,3.2,5.15,3.22,4.93,0a702.89,702.89,0,0,0-12-90.86h-5A692.56,692.56,0,0,1,345.52,457.47Z" style="fill:#fff;stroke:#fff;stroke-miterlimit:10;stroke-width:1.9928983625663799px"/><path d="M332.56,362.45c.29,1.37.55,2.76.82,4.16h5c-.38-1.84-.73-3.67-1.1-5.51C336.66,357.94,331.91,359.27,332.56,362.45Z" style="fill:#fff;stroke:#fff;stroke-miterlimit:10;stroke-width:1.9928983625663799px"/><path d="M275.58,268.59a2.22,2.22,0,0,0-.26-.73h-5.2A74.45,74.45,0,0,0,280,288.24c7.45,10.56,18.65,18.13,30.26,24.66h10.28C309,306.72,297.12,300.07,288.64,291A62.56,62.56,0,0,1,275.58,268.59Z" style="fill:#fff;stroke:#fff;stroke-miterlimit:10;stroke-width:1.9928983625663799px"/><path d="M270.29,245.54c2.13-15.78,14-7,18.12-2.58,2.22,2.37,3.94,5.2,6,7.75A90.86,90.86,0,0,0,305,261.94v-7.62a122.86,122.86,0,0,1-10.46-11.63c-6.31-7.94-22.71-18.13-28.33-3.28C263.46,246.74,267,257,269,264c.18.63.38,1.25.56,1.86h5.08C272.4,259.62,269.53,251.26,270.29,245.54Z" style="fill:#fff;stroke:#fff;stroke-miterlimit:10;stroke-width:1.9928983625663799px"/><path d="M307,263.63l.85.75a81.94,81.94,0,0,0,13.42,8.74V267A85.38,85.38,0,0,1,307,256.18Z" style="fill:#fff;stroke:#fff;stroke-miterlimit:10;stroke-width:1.9928983625663799px"/><path d="M191.83,265.85V165.94H305v88.38c.65.65,1.3,1.29,2,1.9v-92.3H189.86V267.86h80.26c-.22-.66-.42-1.33-.63-2Z" style="fill:#e94c3d"/><path d="M274.61,265.85h-5.08c.21.68.41,1.35.63,2h5.16C275.1,267.22,274.87,266.55,274.61,265.85Z" style="fill:#fff;stroke:#fff;stroke-miterlimit:10;stroke-width:1.9928983625663799px"/><path d="M305,261.94c.63.56,1.3,1.13,2,1.69v-7.45c-.67-.61-1.32-1.25-2-1.9Z" style="fill:#fff;stroke:#fff;stroke-miterlimit:10;stroke-width:1.9928983625663799px"/><path d="M243.75,254.68c-17.35,0-31.54-16.82-31.54-37.48s14.09-37.48,31.54-37.48,31.43,16.81,31.43,37.48S261.07,254.68,243.75,254.68Zm0-72c-15.77,0-28.58,15.5-28.58,34.54s12.81,34.54,28.58,34.54,28.56-15.49,28.56-34.54-12.82-34.54-28.56-34.54Z" style="fill:#e94c3d"/><ellipse cx="227.96" cy="216.22" rx="1.75" ry="1.79" style="fill:#e94c3d"/><ellipse cx="259.85" cy="216.22" rx="1.75" ry="1.79" style="fill:#e94c3d"/><path d="M234.64,243.36a10.37,10.37,0,0,1,3.33-2,13.85,13.85,0,0,1,3.75-.94,10.49,10.49,0,0,1,3.94.34,8,8,0,0,1,1,.38l.93.57a9.43,9.43,0,0,1,.77.78,5.7,5.7,0,0,1,.45,1,7.23,7.23,0,0,0-3.45-.4c-1.1,0-2.22.18-3.39.28s-2.32.22-3.54.28A22.36,22.36,0,0,1,234.64,243.36Z" style="fill:#e94c3d"/><path d="M256.48,237.25h-28L230,235c3-4.68,6.66-7.16,10.76-7.38,7.45-.42,13.52,6.93,13.8,7.26Zm-22.39-2.94h15.77a13.53,13.53,0,0,0-9-3.77A9.8,9.8,0,0,0,234.09,234.31Z" style="fill:#e94c3d"/></g><text/><text transform="translate(189.86 135.36) scale(0.88 1)" style="font-size:22.552453994750977px;fill:#e94c3d;font-family:Poppins-SemiBold, Poppins;font-weight:600">92% MATCH</text></g></g></svg>