<svg xmlns="http://www.w3.org/2000/svg" viewBox="0 0 471.64 471.64"><title>horeca_cartoon01Asset 1</title><g id="Layer_2" data-name="Layer 2"><g id="_1" data-name="1"><rect x="4.83" y="4.83" width="461.98" height="461.98" style="fill:none;stroke:#fff;stroke-miterlimit:10;stroke-width:9.658130081157397px"/><g id="Layer_1-2" data-name="Layer 1-2"><path d="M364.74,194.09c-24.2,0-43.9-23-43.9-51.18s19.7-51.17,43.9-51.17,43.89,23,43.89,51.17S389,194.09,364.74,194.09Zm0-98.34c-22.05,0-39.89,21.16-39.89,47.16s17.9,47.17,39.89,47.17,39.88-21.16,39.88-47.17S386.72,95.75,364.74,95.75Z" style="fill:#fff;stroke:#fff;stroke-miterlimit:10;stroke-width:2.0041875320771187px"/><circle cx="342.69" cy="141.58" r="2.47" style="fill:#fff;stroke:#fff;stroke-miterlimit:10;stroke-width:2.0041875320771187px"/><circle cx="387.24" cy="141.58" r="2.47" style="fill:#fff;stroke:#fff;stroke-miterlimit:10;stroke-width:2.0041875320771187px"/><path d="M352.13,178.64a15,15,0,0,1,4.65-2.95,19.77,19.77,0,0,1,5.25-1.28,14.75,14.75,0,0,1,5.57.46,12.32,12.32,0,0,1,1.36.52l1.29.79c.38.36.76.7,1.08,1.06a7.22,7.22,0,0,1,.62,1.32,10,10,0,0,0-4.81-.56c-1.54,0-3.11.24-4.73.4s-3.25.3-5,.36A29.65,29.65,0,0,1,352.13,178.64Z" style="fill:#fff;stroke:#fff;stroke-miterlimit:10;stroke-width:2.0041875320771187px"/><path d="M343.33,157.39l39.11-.51-2,3.15c-4.16,6.43-9.17,9.88-14.88,10.21-10.39.72-19-9.21-19.35-9.64Zm31.31,3.6-22,.29c3,2.46,7.7,5.35,12.63,5A13.75,13.75,0,0,0,374.64,161Z" style="fill:#fff;stroke:#fff;stroke-miterlimit:10;stroke-width:2.0041875320771187px"/><path d="M332.59,313.6c-.66,2.65-1.32,5.17-2,7.66a87.69,87.69,0,0,0,5.54,13.47c.68-1.71,1.34-3.38,2-5A96.08,96.08,0,0,1,332.59,313.6Z" style="fill:#fff;stroke:#fff;stroke-miterlimit:10;stroke-width:2.0041875320771187px"/><path d="M341.19,219.49a3.36,3.36,0,0,1,1.7.88c5.59-8.5,12.45-13.51,19.84-13.51,5.41,0,10.54,2.68,15.11,7.47a3.32,3.32,0,0,1,3.75-1.76c-5.53-6.17-12-9.68-18.86-9.68-9.44,0-18,6.51-24.55,17.48A3.43,3.43,0,0,1,341.19,219.49Z" style="fill:#fff;stroke:#fff;stroke-miterlimit:10;stroke-width:2.0041875320771187px"/><path d="M396.54,315.53q-1.2-3.58-2.4-7.44a107.35,107.35,0,0,1-4.43,15.75c.64,2.15,1.24,4.25,1.82,6.32A98.24,98.24,0,0,0,396.54,315.53Z" style="fill:#fff;stroke:#fff;stroke-miterlimit:10;stroke-width:2.0041875320771187px"/><path d="M340.5,334.43q-1.22-2.25-2.34-4.69c-.68,1.61-1.35,3.28-2,5,.82,1.56,1.64,3,2.52,4.45C339.26,337.53,339.88,336,340.5,334.43Z" style="fill:#fff;stroke:#fff;stroke-miterlimit:10;stroke-width:2.0041875320771187px"/><path d="M389.71,323.84c-.76,2-1.57,4-2.43,6,.52,2,1.06,3.84,1.59,5.85.92-1.73,1.82-3.57,2.66-5.49C391,328,390.35,326,389.71,323.84Z" style="fill:#fff;stroke:#fff;stroke-miterlimit:10;stroke-width:2.0041875320771187px"/><path d="M330.66,304.56q-1.11,4.79-2.22,9.1c.64,2.63,1.36,5.15,2.14,7.6.69-2.49,1.35-5,2-7.66C331.85,310.72,331.21,307.69,330.66,304.56Z" style="fill:#fff;stroke:#fff;stroke-miterlimit:10;stroke-width:2.0041875320771187px"/><path d="M340.34,223.79c0,.17.14.35.2.55q1.13-2.06,2.35-3.89a3.45,3.45,0,0,0-4.71,0c-7.3,12-12.21,29.62-13.39,49.74C331,243.1,337.4,226.46,340.34,223.79Z" style="fill:#fff;stroke:#fff;stroke-miterlimit:10;stroke-width:2.0041875320771187px"/><path d="M403.22,277.79c6.83,27,9.78,47.3,10,57.54,1.12-2.45,2.32-4.89,3.54-7.28-.14-1.42-.3-2.88-.5-4.53a392.71,392.71,0,0,0-9.22-46.71,394.63,394.63,0,0,0-14-45.5c-5.65-14.41-8.95-18.22-11.44-18.78,10,11.16,17.14,31.11,18.92,55C401.41,270.81,402.31,274.22,403.22,277.79Z" style="fill:#fff;stroke:#fff;stroke-miterlimit:10;stroke-width:2.0041875320771187px"/><path d="M396.54,315.53c1.44,4.29,2.89,8.31,4.31,11.9,3.71,9.48,6.41,14.35,8.52,16.76l1.8-4.19c-2.94-4.55-7.67-15.66-12.88-32.07C397.76,310.54,397.2,313.08,396.54,315.53Z" style="fill:#fff;stroke:#fff;stroke-miterlimit:10;stroke-width:2.0041875320771187px"/><path d="M398.29,308c-.89-2.77-1.77-5.63-2.67-8.7-.4,3.05-.9,6-1.48,8.88q1.2,3.86,2.4,7.44C397.2,313.08,397.76,310.54,398.29,308Z" style="fill:#fff;stroke:#fff;stroke-miterlimit:10;stroke-width:2.0041875320771187px"/><path d="M380.05,212.57a3.31,3.31,0,0,0-2.21,1.76,41.92,41.92,0,0,1,3,3.53,7.1,7.1,0,0,1,.28-1.1c3.29,2.75,11.24,21,19.4,50.77-1.78-23.89-8.9-43.84-18.92-55A3.34,3.34,0,0,0,380.05,212.57Z" style="fill:#fff;stroke:#fff;stroke-miterlimit:10;stroke-width:2.0041875320771187px"/><path d="M412.76,342a20.39,20.39,0,0,0,.52-6.65L411.17,340A9.59,9.59,0,0,0,412.76,342Z" style="fill:#fff;stroke:#fff;stroke-miterlimit:10;stroke-width:2.0041875320771187px"/><path d="M433.72,309.51a3.59,3.59,0,0,0-1.56-.16,7.61,7.61,0,0,1,2.86.91A3.69,3.69,0,0,0,433.72,309.51Z" style="fill:#fff;stroke:#fff;stroke-miterlimit:10;stroke-width:2.0041875320771187px"/><path d="M423.38,324.34a32.33,32.33,0,0,1,.3-5,19.88,19.88,0,0,1,1.06-4.3,85.28,85.28,0,0,0-8,13c.3,3.21.44,5.83.46,8C419.45,331.46,421.57,327.55,423.38,324.34Z" style="fill:#fff;stroke:#fff;stroke-miterlimit:10;stroke-width:2.0041875320771187px"/><path d="M432,313.36h-1c-1,.28-2,1.51-2.58,3.39A10.17,10.17,0,0,1,432,313.36Z" style="fill:#fff;stroke:#fff;stroke-miterlimit:10;stroke-width:2.0041875320771187px"/><path d="M412.76,342a9.59,9.59,0,0,1-1.59-2l-1.8,4.19a5.07,5.07,0,0,0,3.43,2c1.52-3.71,3-7.11,4.48-10.2,0-2.19-.16-4.81-.46-8-1.22,2.39-2.42,4.83-3.54,7.28A20.45,20.45,0,0,1,412.76,342Z" style="fill:#fff;stroke:#fff;stroke-miterlimit:10;stroke-width:2.0041875320771187px"/><path d="M432.16,309.35a6.09,6.09,0,0,0-2.17.12,8.05,8.05,0,0,0-5.25,5.56C427.35,311.68,429.87,309.53,432.16,309.35Z" style="fill:#fff;stroke:#fff;stroke-miterlimit:10;stroke-width:2.0041875320771187px"/><path d="M432.32,313.24h0a1.7,1.7,0,0,0-.34.12,2.09,2.09,0,0,1,.54.16A2.83,2.83,0,0,0,432.32,313.24Z" style="fill:#fff;stroke:#fff;stroke-miterlimit:10;stroke-width:2.0041875320771187px"/><path d="M423.38,324.34a67,67,0,0,1,5-7.61c.64-1.89,1.54-3.11,2.58-3.39h1a1.7,1.7,0,0,1,.34-.12h0a1.67,1.67,0,0,1,.18.28,11.53,11.53,0,0,1,4.53,4l.12.18c0-4.41-1-6.43-2.13-7.43a7.61,7.61,0,0,0-2.86-.91c-2.29.18-4.81,2.33-7.42,5.68a19.88,19.88,0,0,0-1.06,4.3A32.38,32.38,0,0,0,423.38,324.34Z" style="fill:#fff;stroke:#fff;stroke-miterlimit:10;stroke-width:2.0041875320771187px"/><path d="M364.07,351.8c-.54-2-1.1-4.11-1.62-6.21-.12-.44-.24-.9-.34-1.36-.32,2.48-.7,5-1.1,7.55a16.45,16.45,0,0,0,1.72,0A4.31,4.31,0,0,0,364.07,351.8Z" style="fill:#fff;stroke:#fff;stroke-miterlimit:10;stroke-width:2.0041875320771187px"/><path d="M362.73,355.89a20,20,0,0,0,2.45-.16c-.36-1.3-.75-2.61-1.11-4h-1.34a16.45,16.45,0,0,1-1.72,0c-.2,1.32-.42,2.65-.64,4A18.59,18.59,0,0,0,362.73,355.89Z" style="fill:#fff;stroke:#fff;stroke-miterlimit:10;stroke-width:2.0041875320771187px"/><path d="M334.73,428.94c-2.16,4.63-4,10-5.73,12.61a6.33,6.33,0,0,1,.58,3.43c-.38,3.06-3.06,5.55-7.59,7.07h.48c4.59,0,9.8-8.4,15.89-21.46a255.35,255.35,0,0,0,13.07-35.76h-4.17A249.22,249.22,0,0,1,334.73,428.94Z" style="fill:#fff;stroke:#fff;stroke-miterlimit:10;stroke-width:2.0041875320771187px"/><path d="M354.93,381.48c2-7.83,3.89-16.79,5.44-25.75a19.41,19.41,0,0,1-3.85-.82c-1.32,7.65-3.11,16.19-5.47,25.61-.87,3.51-1.81,6.94-2.75,10.3h4.17C353.31,387.76,354.15,384.65,354.93,381.48Z" style="fill:#fff;stroke:#fff;stroke-miterlimit:10;stroke-width:2.0041875320771187px"/><path d="M348.3,390.82l-1.14,4h4.27c.4-1.32.76-2.66,1.14-4Z" style="fill:#fff;stroke:#fff;stroke-miterlimit:10;stroke-width:2.0041875320771187px"/><path d="M327.72,374.67a323.16,323.16,0,0,1,10.92-35.49c-.88-1.41-1.7-2.89-2.52-4.45a336.31,336.31,0,0,0-12.29,39c-1.44,5.81-2.73,11.54-3.85,17.11h4Q325.67,382.93,327.72,374.67Z" style="fill:#fff;stroke:#fff;stroke-miterlimit:10;stroke-width:2.0041875320771187px"/><path d="M319.36,425.1a235.28,235.28,0,0,1,4-30.27h-4a237.9,237.9,0,0,0-4,30.06c0,2-.16,3.81-.18,5.56,1.38.42,2.75.88,4,1.4A61.61,61.61,0,0,1,319.36,425.1Z" style="fill:#fff;stroke:#fff;stroke-miterlimit:10;stroke-width:2.0041875320771187px"/><path d="M324.07,390.82h-4c-.26,1.35-.54,2.69-.78,4h4C323.53,393.51,323.81,392.15,324.07,390.82Z" style="fill:#fff;stroke:#fff;stroke-miterlimit:10;stroke-width:2.0041875320771187px"/><path d="M361,351.78a15.67,15.67,0,0,1-3.83-.88c-.22,1.3-.44,2.65-.66,4a19.41,19.41,0,0,0,3.85.82C360.59,354.43,360.81,353.1,361,351.78Z" style="fill:#fff;stroke:#fff;stroke-miterlimit:10;stroke-width:2.0041875320771187px"/><path d="M394.58,361.08l-.36-2.46,3.8-.54c-1.36-7.12-2.9-14-4.48-20.35-.63-2.44-1.29-5-2-7.57-.84,2-1.74,3.76-2.66,5.49l.78,3.06C391.69,346.83,393.31,354.29,394.58,361.08Z" style="fill:#fff;stroke:#fff;stroke-miterlimit:10;stroke-width:2.0041875320771187px"/><path d="M400,369.3c-.34-2.23-.72-4.49-1.12-6.74l1,7.06Z" style="fill:#fff;stroke:#fff;stroke-miterlimit:10;stroke-width:2.0041875320771187px"/><path d="M393.19,409.24c-2-1.6-5.31-5.67-9.56-14.41h-4.44c6,13,11.3,19.3,15.87,19.3a4.47,4.47,0,0,0,2.34-.6,4.1,4.1,0,0,1-1.2-.22C395.08,412.91,393.84,412,393.19,409.24Z" style="fill:#fff;stroke:#fff;stroke-miterlimit:10;stroke-width:2.0041875320771187px"/><path d="M377.48,390.82h4.39a269,269,0,0,1-12.67-35.95,21.76,21.76,0,0,1-4,.86A277.25,277.25,0,0,0,377.48,390.82Z" style="fill:#fff;stroke:#fff;stroke-miterlimit:10;stroke-width:2.0041875320771187px"/><path d="M382.77,393c-.34-.7-.66-1.44-1-2.19h-4.29c.58,1.35,1.16,2.65,1.77,3.89v.12h4.44A17.21,17.21,0,0,1,382.77,393Z" style="fill:#fff;stroke:#fff;stroke-miterlimit:10;stroke-width:2.0041875320771187px"/><path d="M369.1,354.87c-.38-1.28-.74-2.55-1.08-3.85a16.56,16.56,0,0,1-4,.78c.36,1.32.75,2.63,1.11,4A22.58,22.58,0,0,0,369.1,354.87Z" style="fill:#fff;stroke:#fff;stroke-miterlimit:10;stroke-width:2.0041875320771187px"/><path d="M314.39,354.65a2.89,2.89,0,0,0,.72,0c2.57,0,5.81-3.07,11.26-19.46,1.41-4.21,2.83-8.94,4.21-14-.78-2.45-1.5-5-2.14-7.6-5.43,21.31-10.62,34.35-13.21,36.76-2-4.33-1-28.42,6.19-64.62,1.11-5.57,2.25-10.82,3.37-15.73,1.18-20,6-37.66,13.39-49.74-2.23,1.76-5,6.63-9,18.54a395.23,395.23,0,0,0-11.7,46.09A400.86,400.86,0,0,0,310.7,332C309.34,351,311.7,354.07,314.39,354.65Z" style="fill:#fff;stroke:#fff;stroke-miterlimit:10;stroke-width:2.0041875320771187px"/><path d="M407.64,357.31l-6.35,21.79a1.71,1.71,0,0,0,0,.32c1.64-6,3.81-12.93,6.58-20.56,1.64-4.55,3.28-8.72,4.89-12.59a5.07,5.07,0,0,1-3.43-2c-2.33,5.57-4,10.18-4.83,12.22Z" style="fill:#fff;stroke:#fff;stroke-miterlimit:10;stroke-width:2.0041875320771187px"/><path d="M401.53,406.18c-.78,3.62-2,6.19-4,7.29h0c4.67,0,10.51-8.7,15.64-18.7h-4.49A82.58,82.58,0,0,1,401.53,406.18Z" style="fill:#fff;stroke:#fff;stroke-miterlimit:10;stroke-width:2.0041875320771187px"/><path d="M425.8,365.33c1.83-5.05,3.47-10,4.91-14.83a40.47,40.47,0,0,1-2.68-5.09c-1.59,5.55-3.55,11.74-6,18.56a249,249,0,0,1-11.34,26.85h4.41C420.87,378.84,425.42,366.35,425.8,365.33Z" style="fill:#fff;stroke:#fff;stroke-miterlimit:10;stroke-width:2.0041875320771187px"/><path d="M410.67,390.82c-.72,1.43-1.4,2.75-2,4h4.49c.68-1.32,1.34-2.66,2-4Z" style="fill:#fff;stroke:#fff;stroke-miterlimit:10;stroke-width:2.0041875320771187px"/><path d="M401.53,406.18c-1.74,2.2-3.06,3.32-3.81,3.32h0a2.71,2.71,0,0,1-.68-1.62c-.48,1.28-1,2-1.66,2.16s-1.12-.12-2-.86c.65,2.75,1.89,3.67,3,4a4.1,4.1,0,0,0,1.2.22C399.35,412.43,400.65,409.86,401.53,406.18Z" style="fill:#fff;stroke:#fff;stroke-miterlimit:10;stroke-width:2.0041875320771187px"/><path d="M317.74,449.05a45.54,45.54,0,0,1-14,.28c-13-1.61-20.41-6.9-20-10a9.13,9.13,0,0,1,6-6.14,35.86,35.86,0,0,1,9.34-1.12,51.17,51.17,0,0,1,6.43.42,49.28,49.28,0,0,1,9.6,2.11v-4.19a54.64,54.64,0,0,0-9-1.91,46.38,46.38,0,0,0-17.33.82c-5.4,1.47-8.58,4.13-9,7.5-.9,7.4,11.44,15,23.53,16.45a55,55,0,0,0,6.91.45,40.51,40.51,0,0,0,10.4-1.25l1.41-.44h-.73A5.77,5.77,0,0,1,317.74,449.05Z" style="fill:#fff;stroke:#fff;stroke-miterlimit:10;stroke-width:2.0041875320771187px"/><path d="M319.36,436.24c0-1.32-.14-2.79-.16-4.43-1.26-.52-2.63-1-4-1.4v4.19A32.51,32.51,0,0,1,319.36,436.24Z" style="fill:#fff;stroke:#fff;stroke-miterlimit:10;stroke-width:2.0041875320771187px"/><path d="M329.58,445a6.33,6.33,0,0,0-.58-3.43c-3.49,5.37-5.81,6.75-6.75,6.53a1.1,1.1,0,0,1-.42-.24,17,17,0,0,1-2.31.78c-.56.16-1.16.31-1.78.43a5.78,5.78,0,0,0,3.52,2.92H322C326.52,450.53,329.2,448,329.58,445Z" style="fill:#fff;stroke:#fff;stroke-miterlimit:10;stroke-width:2.0041875320771187px"/><path d="M432.06,352.48c2.82,3.81,5.89,5.86,8.75,5.86a6.26,6.26,0,0,0,1.49-.18c7.23-1.85,8-15.36,5-27.16a46.17,46.17,0,0,0-7-15.85,16.85,16.85,0,0,0-5.23-4.89c1.12,1,2,3,2.13,7.43A43,43,0,0,1,443.38,332c3.21,12.67,1,21.53-2,22.29-1.55.38-3.85-1.23-6-4.17a34.68,34.68,0,0,1-3-5.05c-.48,1.78-1,3.59-1.57,5.45A12.9,12.9,0,0,0,432.06,352.48Z" style="fill:#fff;stroke:#fff;stroke-miterlimit:10;stroke-width:2.0041875320771187px"/><path d="M432.28,345.05a48.7,48.7,0,0,1-2.47-6.3c-.52,2-1.12,4.33-1.78,6.66a40.47,40.47,0,0,0,2.68,5.09C431.27,348.64,431.8,346.83,432.28,345.05Z" style="fill:#fff;stroke:#fff;stroke-miterlimit:10;stroke-width:2.0041875320771187px"/><path d="M397.3,379q-.9-8-2.72-18l4,27.38,2.74-9.36c-.36-3.07-.78-6.21-1.26-9.4C399,372.91,398.12,376.11,397.3,379Z" style="fill:#fff;stroke:#fff;stroke-miterlimit:10;stroke-width:2.0041875320771187px"/><path d="M404.14,357.49a6.64,6.64,0,0,1,.4-1.08l-.74-.22L400,369.3v.4C401.27,365.73,402.63,361.64,404.14,357.49Z" style="fill:#fff;stroke:#fff;stroke-miterlimit:10;stroke-width:2.0041875320771187px"/><path d="M398.18,358.08H398c.29,1.48.57,3,.83,4.48Z" style="fill:#fff;stroke:#fff;stroke-miterlimit:10;stroke-width:2.0041875320771187px"/><path d="M400,369.7v-.4l-.1.32-1-7.06c-.26-1.5-.54-3-.83-4.48l-3.8.54.36,2.46q1.83,9.93,2.72,18C398.12,376.11,399,372.91,400,369.7Z" style="fill:#fff;stroke:#fff;stroke-miterlimit:10;stroke-width:2.0041875320771187px"/><path d="M404.54,356.41c-.22.56-.34.94-.4,1.08-1.51,4.15-2.87,8.24-4.11,12.21.48,3.19.9,6.33,1.26,9.4l6.35-21.79Z" style="fill:#fff;stroke:#fff;stroke-miterlimit:10;stroke-width:2.0041875320771187px"/></g><path d="M10.5,196.44v8.72A47.19,47.19,0,0,0,43.15,218.7c28.49,0,51.68-27,51.68-60.12S71.64,98.45,43.15,98.45A47.33,47.33,0,0,0,10.5,112v8.86c8.31-10.06,19.86-16.31,32.65-16.31,25.19,0,45.67,24.29,45.67,54.11s-20.48,54.11-45.67,54.11C30.36,212.77,18.81,206.46,10.5,196.44Z" style="fill:#fff;stroke:#fff;stroke-miterlimit:10;stroke-width:3.2193766937191324px"/><path d="M4.48,118.72V129.8a56.67,56.67,0,0,1,6-9V112A60.92,60.92,0,0,0,4.48,118.72Z" style="fill:#fff;stroke:#fff;stroke-miterlimit:10;stroke-width:3.2193766937191324px"/><path d="M4.48,187.44V198.5a58.12,58.12,0,0,0,6,6.72v-8.78A55.39,55.39,0,0,1,4.48,187.44Z" style="fill:#fff;stroke:#fff;stroke-miterlimit:10;stroke-width:3.2193766937191324px"/><circle cx="76.13" cy="144.93" r="2.87" style="fill:#fff;stroke:#fff;stroke-miterlimit:10;stroke-width:3.2193766937191324px"/><path d="M71.91,191c1.3.48,2.52,1,3.7,1.46a31.69,31.69,0,0,0,3.51,1.22,6.89,6.89,0,0,0,3.87.12,4.56,4.56,0,0,1-4,3,9.12,9.12,0,0,1-4.89-.68,13.08,13.08,0,0,1-3.87-2.53,10.32,10.32,0,0,1-2.62-3.83A24,24,0,0,1,71.91,191Z" style="fill:#fff;stroke:#fff;stroke-miterlimit:10;stroke-width:3.2193766937191324px"/><path d="M10.5,234.16a76.24,76.24,0,0,0-6,5.05v8.25a75.31,75.31,0,0,1,6-5.83Z" style="fill:#fff;stroke:#fff;stroke-miterlimit:10;stroke-width:3.2193766937191324px"/><path d="M54.65,466H68.12a67.76,67.76,0,0,0,8-6H66.59A50.29,50.29,0,0,1,54.65,466Z" style="fill:#fff;stroke:#fff;stroke-miterlimit:10;stroke-width:3.2193766937191324px"/><polygon points="101.61 273.58 101.61 273.58 103.01 273.58 101.61 273.58" style="fill:#fff;stroke:#fff;stroke-miterlimit:10;stroke-width:3.2193766937191324px"/><path d="M41.3,223.19a51.1,51.1,0,0,0-30.8,11v7.47c9.3-7.95,19.74-12.46,30.8-12.46,21.81,0,41.17,17.33,53.87,44.41H98.8a14.66,14.66,0,0,0-.48,3.61h0a14.66,14.66,0,0,1,.48-3.61h2a7.18,7.18,0,0,1,.34-1C87.38,242.53,65.59,223.15,41.3,223.19Z" style="fill:#fff;stroke:#fff;stroke-miterlimit:10;stroke-width:3.2193766937191324px"/><path d="M116.38,337.69h-6c.2,3.65.32,7.34.32,11.07,0,50.52-18.34,93.79-44.1,111.27h9.54c24.05-21.09,40.51-63,40.51-111.27C116.64,345,116.52,341.28,116.38,337.69Z" style="fill:#fff;stroke:#fff;stroke-miterlimit:10;stroke-width:3.2193766937191324px"/><path d="M64.75,227.84l-4.47,4.47q3.9,3.45,7.66,7.19c33.91,34,49.3,76.67,41.85,107.56l7.1-7.09c3.76-32.05-12.12-72.45-44.52-104.89C69.83,232.53,67.27,230.14,64.75,227.84Z" style="fill:#fff;stroke:#fff;stroke-miterlimit:10;stroke-width:3.2193766937191324px"/><rect x="108.07" y="49.1" width="22.83" height="56.12" transform="translate(25.29 183.73) rotate(-81.38)" style="fill:#fff;stroke:#fff;stroke-miterlimit:10;stroke-width:2.0041875320771187px"/><path d="M148.77,90a8.08,8.08,0,0,1-1.39-.13l.44-2.52a5.48,5.48,0,0,0,4-.9A5.38,5.38,0,0,0,154,83a5.26,5.26,0,0,0-.91-4,5.34,5.34,0,0,0-3.5-2.22l.44-2.53A8,8,0,0,1,148.77,90Z" style="fill:#fff;stroke:#fff;stroke-miterlimit:10;stroke-width:2.0041875320771187px"/><line x1="112.59" y1="66.11" x2="112.26" y2="3.17" style="fill:#fff;stroke:#fff;stroke-miterlimit:10;stroke-width:3.7366789890560552px"/><line x1="122.36" y1="69.52" x2="122.36" y2="3.17" style="fill:#fff;stroke:#fff;stroke-miterlimit:10;stroke-width:3.9368890777549783px"/><path d="M185.54,79.16c2-.88,75.5-6.21,75.5-6.21" style="fill:#fff;stroke:#fff;stroke-miterlimit:10;stroke-width:2.0041875320771187px"/><path d="M185,90c2.67,1,75.5,9,75.5,9" style="fill:#fff;stroke:#fff;stroke-miterlimit:10;stroke-width:2.0041875320771187px"/><line x1="179.53" y1="101.01" x2="259.04" y2="130.13" style="fill:#fff;stroke:#fff;stroke-miterlimit:10;stroke-width:2.0041875320771187px"/></g></g></svg>