<svg xmlns="http://www.w3.org/2000/svg" viewBox="0 0 473.34 473.34"><title>horeca_cartoon02Asset 2</title><g id="Layer_2" data-name="Layer 2"><g id="_2" data-name="2"><text transform="translate(221.9 385.03)" style="font-size:35.54062271118164px;fill:#fff;font-family:Poppins-SemiBold, Poppins;font-weight:600">12 uur</text><rect x="4.85" y="4.85" width="463.64" height="463.64" style="fill:none;stroke:#fff;stroke-miterlimit:10;stroke-width:9.69289688601948px"/><g id="Layer_1-2" data-name="Layer 1-2"><path d="M314.65,308.13c-16.59-63.32-51.12-103.43-88-102.3C190.83,206.93,159.17,247.45,146,309l-5.89-1.19c13.8-64.26,47.66-106.79,86.29-108,39.75-1.22,76.6,40.64,93.79,106.68Z" style="fill:#fff;stroke:#fff;stroke-miterlimit:10;stroke-width:3.210457147248452px"/><path d="M230.11,195.08c-28.05,0-50.89-26.59-50.89-59.25S202.06,76.6,230.11,76.6,281,103.19,281,135.83,258.18,195.08,230.11,195.08Zm0-112.56c-24.79,0-44.85,23.94-44.85,53.31s20.06,53.34,44.85,53.34,45-23.94,45-53.34S254.92,82.52,230.11,82.52Z" style="fill:#fff;stroke:#fff;stroke-miterlimit:10;stroke-width:3.2309656286731596px"/><circle cx="207.2" cy="134.31" r="2.81" style="fill:#fff;stroke:#fff;stroke-miterlimit:10;stroke-width:3.2309656286731596px"/><circle cx="250.69" cy="134.31" r="2.81" style="fill:#fff;stroke:#fff;stroke-miterlimit:10;stroke-width:3.2309656286731596px"/><path d="M218,176.73a19,19,0,0,1,5.39-3,24,24,0,0,1,6-1.39,17.59,17.59,0,0,1,6.46.46c.52.19,1,.32,1.55.55l1.46.84c.42.38.87.74,1.22,1.13a8.11,8.11,0,0,1,.78,1.45,11,11,0,0,0-5.59-.81c-1.81,0-3.62.23-5.49.39s-3.75.39-5.69.52A42,42,0,0,1,218,176.73Z" style="fill:#fff;stroke:#fff;stroke-miterlimit:10;stroke-width:3.2309656286731596px"/><path d="M208.59,152.49l43.39-.55-2,3.26c-4.73,7.26-10.36,11.18-16.79,11.62-11.75.76-21.46-10.46-21.88-10.94Zm35.82,3.42-26.79.35A23.09,23.09,0,0,0,233,162.52,16.59,16.59,0,0,0,244.41,155.91Z" style="fill:#fff;stroke:#fff;stroke-miterlimit:10;stroke-width:3.2309656286731596px"/><path d="M377.23,309.54H98.2V49.4h279ZM103.4,306.19H372V52.75H103.4Z" style="fill:#fff;stroke:#fff;stroke-miterlimit:10;stroke-width:2.594532331582842px"/></g><path d="M165.39,335.29A35.66,35.66,0,1,0,201.05,371,35.65,35.65,0,0,0,165.39,335.29Zm0,64.42A28.76,28.76,0,1,1,194.15,371,28.75,28.75,0,0,1,165.39,399.71Zm8.89-15-12.21-8.88a1.72,1.72,0,0,1-.71-1.39V350.82a1.74,1.74,0,0,1,1.73-1.73h4.6a1.73,1.73,0,0,1,1.72,1.73v20.37l9.61,7a1.72,1.72,0,0,1,.37,2.42l-2.7,3.72a1.74,1.74,0,0,1-2.41.38Z" style="fill:#fff"/></g></g></svg>