<svg xmlns="http://www.w3.org/2000/svg" viewBox="0 0 773.5 396.11"><title>logo_whiteAsset 10</title><g id="Layer_2" data-name="Layer 2"><g id="NITION"><path d="M264.11,68.94h52.81q16.89,0,27.57,7.79Q357.39,85.58,358,102q-.37,24.12-26.18,32.8l31.37,52.53H338.73l-27.94-50.58H284.62v50.58H264.11Zm20.51,51.88h31q11.5-.16,17.27-5.85a17,17,0,0,0,5.66-13q-.19-9.26-6.78-13.39-5.19-3.66-15-3.66H284.62Z" style="fill:#2d2926"/><path d="M380,68.94h86.41v17h-65.9v33.77H456.8V135.6H400.55v34.75h65.9v17H380Z" style="fill:#2d2926"/><path d="M577,154.19q-4.46,16.49-17,25.33-12.9,8.78-30.54,8.77-16-.33-26.64-6.82Q492,175.22,487.06,167c-1-1.79-1.89-3.49-2.69-5.12a30.56,30.56,0,0,1-1.86-6.33q-1.39-7.14-1.39-27.44,0-20.62,1.39-27.61a30.21,30.21,0,0,1,4.55-11.28Q492,81,502.84,74.62q10.68-6.5,26.64-6.66,19.59.17,31.93,10.15A43.42,43.42,0,0,1,577,103H555.28a26.07,26.07,0,0,0-9.09-12.18q-6.87-4.78-16.71-5A31.78,31.78,0,0,0,517,88.42a25.67,25.67,0,0,0-8.54,6.09,18.72,18.72,0,0,0-5.29,9.83q-1.48,6.33-1.48,23.79t1.48,23.62a18.76,18.76,0,0,0,5.29,10,23.77,23.77,0,0,0,8.54,5.93,26.93,26.93,0,0,0,12.44,2.68q17.26,0,25.8-16.16Z" style="fill:#2d2926"/></g><g id="REC"><path d="M0,269.44H17.56l55.71,89.27h.34V269.44H92.26V395.07H74.62L19,305.8h-.33v89.27H0Z" style="fill:#2d2926"/><path d="M152.84,269.44H171.5V395.07H152.84Z" style="fill:#2d2926"/><path d="M252.84,286.41H219.16v-17h86.1v17H271.58V395.07H252.84Z" style="fill:#2d2926"/><path d="M353,269.44h18.66V395.07H353Z" style="fill:#2d2926"/><path d="M427.93,332.25q0-21.88,1.27-29.29a35.15,35.15,0,0,1,4.13-12q4.47-8.7,14.35-15.51,9.7-6.9,24.23-7.07,14.68.18,24.48,7.07t14,15.51a29.32,29.32,0,0,1,4.31,12q1.1,7.41,1.09,29.29,0,21.56-1.09,29.13a29.44,29.44,0,0,1-4.31,12.15q-4.31,8.7-14,15.34-9.79,6.88-24.48,7.24-14.52-.35-24.23-7.24-9.87-6.63-14.35-15.34c-.9-1.9-1.71-3.71-2.45-5.43a36.42,36.42,0,0,1-1.68-6.72Q427.93,353.8,427.93,332.25Zm18.74,0q0,18.54,1.35,25.08a21.12,21.12,0,0,0,4.81,10.6,22,22,0,0,0,7.77,6.29,21.49,21.49,0,0,0,11.31,2.84,22.57,22.57,0,0,0,11.56-2.84,20.77,20.77,0,0,0,7.43-6.29,22.25,22.25,0,0,0,5-10.6q1.28-6.56,1.27-25.08T495.88,307a26.31,26.31,0,0,0-12.41-16.89,26.55,26.55,0,0,0-11.56-2.67,25.23,25.23,0,0,0-11.31,2.67,23.66,23.66,0,0,0-7.77,6.46A21,21,0,0,0,448,307Q446.67,313.73,446.67,332.25Z" style="fill:#2d2926"/><path d="M572.16,269.44h17.56l55.71,89.27h.34V269.44h18.65V395.07H646.78L591.15,305.8h-.34v89.27H572.16Z" style="fill:#2d2926"/><text/></g><g id="Red_dot" data-name="Red dot"><circle cx="134.5" cy="125.5" r="72" style="fill:#e94b3c"/></g><g id="Outlines"><polyline points="8.5 208.5 8.5 8.5 208.5 8.5" style="fill:none;stroke:#2d2926;stroke-miterlimit:10;stroke-width:17px"/><polyline points="656.5 33.5 656.5 233.5 456.5 233.5" style="fill:none;stroke:#2d2926;stroke-miterlimit:10;stroke-width:17px"/></g></g></svg>