<?xml version="1.0" encoding="UTF-8"?>
<svg width="665px" height="388px" viewBox="0 0 665 388" version="1.1" xmlns="http://www.w3.org/2000/svg" xmlns:xlink="http://www.w3.org/1999/xlink">
    <!-- Generator: Sketch 56.2 (81672) - https://sketch.com -->
    <title>Untitled 4</title>
    <desc>Created with Sketch.</desc>
    <g id="Page-1" stroke="none" stroke-width="1" fill="none" fill-rule="evenodd">
        <g id="logo_black" transform="translate(0.000000, 5.000000)">
            <g id="NITION" transform="translate(264.000000, 53.000000)" fill="#2D2926" fill-rule="nonzero">
                <path d="M0.11,1.94 L52.92,1.94 C64.18,1.94 73.37,4.53666667 80.49,9.73 C89.09,15.63 93.5933333,24.0533333 94,35 C93.7533333,51.08 85.0266667,62.0133333 67.82,67.8 L99.19,120.33 L74.73,120.33 L46.79,69.75 L20.62,69.75 L20.62,120.33 L0.11,120.33 L0.11,1.94 Z M20.62,53.82 L51.62,53.82 C59.2866667,53.7133333 65.0433333,51.7633333 68.89,47.97 C72.5799583,44.6678054 74.6467091,39.9208514 74.55,34.97 C74.4233333,28.7966667 72.1633333,24.3333333 67.77,21.58 C64.31,19.14 59.31,17.92 52.77,17.92 L20.62,17.92 L20.62,53.82 Z" id="Shape"></path>
                <polygon id="Path" points="116 1.94 202.41 1.94 202.41 18.94 136.51 18.94 136.51 52.71 192.8 52.71 192.8 68.6 136.55 68.6 136.55 103.35 202.45 103.35 202.45 120.35 116 120.35"></polygon>
                <path d="M313,87.19 C310.026667,98.1833333 304.36,106.626667 296,112.52 C287.4,118.373333 277.22,121.296667 265.46,121.290011 C254.793333,121.07 245.913333,118.796667 238.82,114.47 C231.606667,110.303333 226.353333,105.48 223.06,100 C222.06,98.21 221.17,96.51 220.37,94.88 C219.523385,92.8433047 218.899751,90.7209396 218.51,88.55 C217.583333,83.79 217.12,74.6433333 217.12,61.11 C217.12,47.3633333 217.583333,38.16 218.51,33.5 C219.246231,29.4704094 220.794268,25.6326378 223.06,22.22 C226.353333,16.74 231.613333,11.8733333 238.84,7.62 C245.96,3.28666667 254.84,1.06666667 265.48,0.96 C278.54,1.06666667 289.183333,4.45 297.41,11.11 C305.340031,17.3439291 310.852213,26.1443275 313,36 L291.28,36 C289.526944,31.1273062 286.362447,26.8870891 282.19,23.82 C277.61,20.6333333 272.04,18.9666667 265.48,18.82 C261.187091,18.8348538 256.941693,19.7193116 253,21.42 C249.764515,22.8405749 246.857165,24.9138496 244.46,27.51 C241.738003,30.1724299 239.892601,33.6015984 239.17,37.34 C238.183333,41.56 237.69,49.49 237.69,61.13 C237.69,72.77 238.183333,80.6433333 239.17,84.75 C239.862314,88.5482648 241.709667,92.0404272 244.46,94.75 C246.834198,97.332639 249.75062,99.3577423 253,100.68 C256.873026,102.5543 261.13878,103.473288 265.44,103.36 C276.946667,103.36 285.546667,97.9733333 291.24,87.2 L313,87.19 Z" id="Path"></path>
            </g>
            <g id="REC" transform="translate(0.000000, 254.000000)" fill="#2D2926" fill-rule="nonzero">
                <polygon id="Path" points="0 1.44 17.56 1.44 73.27 90.71 73.61 90.71 73.61 1.44 92.26 1.44 92.26 127.07 74.62 127.07 19 37.8 18.67 37.8 18.67 127.07 0 127.07"></polygon>
                <polygon id="Path" points="152.84 1.44 171.5 1.44 171.5 127.07 152.84 127.07"></polygon>
                <polygon id="Path" points="252.84 18.41 219.16 18.41 219.16 1.41 305.26 1.41 305.26 18.41 271.58 18.41 271.58 127.07 252.84 127.07"></polygon>
                <polygon id="Path" points="353 1.44 371.66 1.44 371.66 127.07 353 127.07"></polygon>
                <path d="M427.93,64.25 C427.93,49.6633333 428.353333,39.9 429.2,34.96 C429.837188,30.7425514 431.23666,26.6762896 433.33,22.96 C436.31,17.16 441.093333,11.99 447.68,7.45 C454.146667,2.85 462.223333,0.493333333 471.91,0.38 C481.696667,0.5 489.856667,2.85666667 496.39,7.45 C502.923333,12.0433333 507.59,17.2133333 510.39,22.96 C512.689552,26.5954017 514.161009,30.6922634 514.7,34.96 C515.433333,39.9 515.796667,49.6633333 515.79009,64.25 C515.79009,78.6233333 515.426667,88.3333333 514.7,93.38 C514.178617,97.6986839 512.706663,101.84816 510.39,105.53 C507.516667,111.33 502.85,116.443333 496.39,120.87 C489.863333,125.456667 481.703333,127.87 471.91,128.11 C462.23,127.876667 454.153333,125.463333 447.68,120.87 C441.1,116.45 436.316667,111.336667 433.33,105.53 C432.43,103.63 431.62,101.82 430.88,100.1 C430.107772,97.9184622 429.545229,95.6682876 429.2,93.38 C428.353333,88.3266667 427.93,78.6166667 427.93,64.25 Z M446.67,64.25 C446.67,76.61 447.12,84.97 448.02,89.33 C448.598759,93.2441381 450.2654,96.9169843 452.83,99.93 C454.903008,102.595135 457.561639,104.74736 460.6,106.22 C464.036189,108.190981 467.950303,109.173835 471.91,109.06 C475.948047,109.164851 479.940235,108.184071 483.47,106.22 C486.409989,104.741544 488.956599,102.585665 490.9,99.93 C493.484021,96.9070029 495.210588,93.2466809 495.9,89.33 C496.753333,84.9566667 497.176667,76.5966667 497.170078,64.25 C497.163333,51.9033333 496.733333,43.4866667 495.88,39 C494.261136,31.8942065 489.767392,25.7782244 483.47,22.11 C479.8674,20.3594066 475.915404,19.4466186 471.91,19.4399961 C467.983601,19.4378203 464.110882,20.3520695 460.6,22.11 C457.575032,23.6786903 454.924596,25.8822708 452.83,28.57 C450.281361,31.5298326 448.608702,35.141807 448,39 C447.113333,43.4866667 446.67,51.9033333 446.67,64.25 Z" id="Shape"></path>
                <polygon id="Path" points="572.16 1.44 589.72 1.44 645.43 90.71 645.77 90.71 645.77 1.44 664.42 1.44 664.42 127.07 646.78 127.07 591.15 37.8 590.81 37.8 590.81 127.07 572.16 127.07"></polygon>
            </g>
            <g id="Outlines" transform="translate(5.000000, 0.000000)" stroke="#2D2926" stroke-width="11">
                <polyline id="Path" points="0.5 200.5 0.5 0.5 200.5 0.5"></polyline>
                <polyline id="Path" points="654.5 22.5 654.5 222.5 454.5 222.5"></polyline>
            </g>
        </g>
    </g>
</svg>