<svg xmlns="http://www.w3.org/2000/svg" viewBox="0 0 665 483.21"><title>logo_black_detailhandelAsset 13</title><g id="Layer_2" data-name="Layer 2"><g id="NITION"><path d="M264.11,68.94h52.81q16.89,0,27.57,7.79Q357.39,85.58,358,102q-.37,24.12-26.18,32.8l31.37,52.53H338.73l-27.94-50.58H284.62v50.58H264.11Zm20.51,51.88h31q11.5-.16,17.27-5.85a17,17,0,0,0,5.66-13q-.19-9.26-6.78-13.39-5.19-3.66-15-3.66H284.62Z" style="fill:#2d2926"/><path d="M380,68.94h86.41v17h-65.9v33.77H456.8V135.6H400.55v34.75h65.9v17H380Z" style="fill:#2d2926"/><path d="M577,154.19q-4.46,16.49-17,25.33-12.9,8.78-30.54,8.77-16-.33-26.64-6.82Q492,175.22,487.06,167c-1-1.79-1.89-3.49-2.69-5.12a30.56,30.56,0,0,1-1.86-6.33q-1.39-7.14-1.39-27.44,0-20.62,1.39-27.61a30.21,30.21,0,0,1,4.55-11.28Q492,81,502.84,74.62q10.68-6.5,26.64-6.66,19.59.17,31.93,10.15A43.42,43.42,0,0,1,577,103H555.28a26.07,26.07,0,0,0-9.09-12.18q-6.87-4.78-16.71-5A31.78,31.78,0,0,0,517,88.42a25.67,25.67,0,0,0-8.54,6.09,18.72,18.72,0,0,0-5.29,9.83q-1.48,6.33-1.48,23.79t1.48,23.62a18.76,18.76,0,0,0,5.29,10,23.77,23.77,0,0,0,8.54,5.93,26.93,26.93,0,0,0,12.44,2.68q17.26,0,25.8-16.16Z" style="fill:#2d2926"/></g><g id="REC"><path d="M0,269.44H17.56l55.71,89.27h.34V269.44H92.26V395.07H74.62L19,305.8h-.33v89.27H0Z" style="fill:#2d2926"/><path d="M152.84,269.44H171.5V395.07H152.84Z" style="fill:#2d2926"/><path d="M252.84,286.41H219.16v-17h86.1v17H271.58V395.07H252.84Z" style="fill:#2d2926"/><path d="M353,269.44h18.66V395.07H353Z" style="fill:#2d2926"/><path d="M427.93,332.25q0-21.88,1.27-29.29a35.15,35.15,0,0,1,4.13-12q4.47-8.7,14.35-15.51,9.7-6.9,24.23-7.07,14.68.18,24.48,7.07t14,15.51a29.32,29.32,0,0,1,4.31,12q1.1,7.41,1.09,29.29,0,21.56-1.09,29.13a29.44,29.44,0,0,1-4.31,12.15q-4.31,8.7-14,15.34-9.79,6.88-24.48,7.24-14.52-.35-24.23-7.24-9.87-6.63-14.35-15.34c-.9-1.9-1.71-3.71-2.45-5.43a36.42,36.42,0,0,1-1.68-6.72Q427.93,353.8,427.93,332.25Zm18.74,0q0,18.54,1.35,25.08a21.12,21.12,0,0,0,4.81,10.6,22,22,0,0,0,7.77,6.29,21.49,21.49,0,0,0,11.31,2.84,22.57,22.57,0,0,0,11.56-2.84,20.77,20.77,0,0,0,7.43-6.29,22.25,22.25,0,0,0,5-10.6q1.28-6.56,1.27-25.08T495.88,307a26.31,26.31,0,0,0-12.41-16.89,26.55,26.55,0,0,0-11.56-2.67,25.23,25.23,0,0,0-11.31,2.67,23.66,23.66,0,0,0-7.77,6.46A21,21,0,0,0,448,307Q446.67,313.73,446.67,332.25Z" style="fill:#2d2926"/><path d="M572.16,269.44h17.56l55.71,89.27h.34V269.44h18.65V395.07H646.78L591.15,305.8h-.34v89.27H572.16Z" style="fill:#2d2926"/></g><g id="Red_dot" data-name="Red dot"><circle cx="134.5" cy="125.5" r="72" style="fill:#2eaf4a"/></g><g id="Outlines"><polyline points="8.5 208.5 8.5 8.5 208.5 8.5" style="fill:none;stroke:#2d2926;stroke-miterlimit:10;stroke-width:17px"/><polyline points="656.5 33.5 656.5 233.5 456.5 233.5" style="fill:none;stroke:#2d2926;stroke-miterlimit:10;stroke-width:17px"/></g><g id="Ondertekst"><path d="M49.84,468.25a26.14,26.14,0,0,1-10.91,10.58,35.82,35.82,0,0,1-17,3.78H.48v-60H22a36.55,36.55,0,0,1,17,3.7,25.7,25.7,0,0,1,10.91,10.46,34.85,34.85,0,0,1,0,31.49ZM36,466.8q5.35-5.1,5.35-14.28T36,438.16q-5.34-5.1-15.1-5.1H12.54V471.9h8.38Q30.67,471.9,36,466.8Z" style="fill:#2eaf4a"/><path d="M106.82,461.36H72.08q.26,6.3,3.42,9.27a11.08,11.08,0,0,0,7.88,3,11.49,11.49,0,0,0,7-2A9.07,9.07,0,0,0,93.9,466h12.75a20.17,20.17,0,0,1-4,8.84A20.91,20.91,0,0,1,94.71,481a27.29,27.29,0,0,1-23.06-.72,20.74,20.74,0,0,1-8.38-8.38,26.13,26.13,0,0,1-3-12.83,26.44,26.44,0,0,1,3-12.88,20.42,20.42,0,0,1,8.38-8.37A25.64,25.64,0,0,1,84,434.93a25.07,25.07,0,0,1,12.28,2.89,20.4,20.4,0,0,1,8.13,7.95,23.26,23.26,0,0,1,2.44,15.59Zm-14.76-14a11.65,11.65,0,0,0-8.09-3,11.9,11.9,0,0,0-8.21,3q-3.33,3-3.68,8.75h23Q95.35,450.32,92.06,447.34Z" style="fill:#2eaf4a"/><path d="M141.12,472.33v10.28h-6.33q-7.95,0-12.19-3.82T118.36,466v-20.4h-6.58V435.52h6.58V423.88h12.07v11.64H141v10.12H130.43v20.57c0,2.27.45,3.85,1.37,4.76s2.45,1.36,4.62,1.36Z" style="fill:#2eaf4a"/><path d="M178.59,437.73a15.31,15.31,0,0,1,6.08,7.57v-9.78h12v47.09h-12v-9.86a15.54,15.54,0,0,1-6.08,7.61,18.07,18.07,0,0,1-10.26,2.85,20.4,20.4,0,0,1-10.78-2.89,19.6,19.6,0,0,1-7.49-8.37,32.18,32.18,0,0,1,0-25.76,19.6,19.6,0,0,1,7.49-8.37,20.4,20.4,0,0,1,10.78-2.89A18.28,18.28,0,0,1,178.59,437.73ZM163,449q-3.42,3.66-3.42,10t3.42,10a13,13,0,0,0,18.1-.09q3.54-3.69,3.55-9.9t-3.55-10a12,12,0,0,0-9-3.7A11.84,11.84,0,0,0,163,449Z" style="fill:#2eaf4a"/><path d="M208.28,417.29a8.85,8.85,0,0,1,10.78,0,6,6,0,0,1,2.05,4.72,5.92,5.92,0,0,1-2.05,4.63,8.85,8.85,0,0,1-10.78,0,5.92,5.92,0,0,1-2.05-4.63A6,6,0,0,1,208.28,417.29Zm11.38,18.23v47.09H207.59V435.52Z" style="fill:#2eaf4a"/><path d="M242.67,419.71v62.9H230.61v-62.9Z" style="fill:#2eaf4a"/><path d="M294.94,440.2q4.88,5.35,4.88,15v27.37h-12v-26q0-5.61-2.91-8.71a10.36,10.36,0,0,0-7.95-3.1,10.68,10.68,0,0,0-8.22,3.31q-3.08,3.31-3.08,9.52v25H253.62v-62.9h12.06V445a15.11,15.11,0,0,1,6.21-7.44,18.56,18.56,0,0,1,10-2.68Q290.07,434.84,294.94,440.2Z" style="fill:#2eaf4a"/><path d="M339.26,437.73a15.29,15.29,0,0,1,6.07,7.57v-9.78h12v47.09h-12v-9.86a15.52,15.52,0,0,1-6.07,7.61A18.1,18.1,0,0,1,329,483.21a20.45,20.45,0,0,1-10.78-2.89,19.58,19.58,0,0,1-7.48-8.37,32.07,32.07,0,0,1,0-25.76,19.58,19.58,0,0,1,7.48-8.37A20.45,20.45,0,0,1,329,434.93,18.31,18.31,0,0,1,339.26,437.73ZM323.69,449q-3.42,3.66-3.42,10t3.42,10a13,13,0,0,0,18.09-.09q3.56-3.69,3.55-9.9t-3.55-10a12,12,0,0,0-9-3.7A11.82,11.82,0,0,0,323.69,449Z" style="fill:#2eaf4a"/><path d="M409.58,440.2q4.88,5.35,4.88,15v27.37h-12v-26q0-5.61-2.91-8.71a10.36,10.36,0,0,0-7.95-3.1,10.68,10.68,0,0,0-8.22,3.31q-3.07,3.31-3.08,9.52v25H368.26V435.52h12.06V445a15.11,15.11,0,0,1,6.21-7.44,18.56,18.56,0,0,1,10-2.68Q404.71,434.84,409.58,440.2Z" style="fill:#2eaf4a"/><path d="M453.85,437.73A15.78,15.78,0,0,1,460,445.3V419.71h12v62.9H460v-9.86a16,16,0,0,1-6.12,7.61,17.87,17.87,0,0,1-10.22,2.85,20.43,20.43,0,0,1-10.78-2.89,19.58,19.58,0,0,1-7.48-8.37,32.07,32.07,0,0,1,0-25.76,19.58,19.58,0,0,1,7.48-8.37,20.43,20.43,0,0,1,10.78-2.89A18.08,18.08,0,0,1,453.85,437.73ZM438.33,449q-3.43,3.66-3.43,10t3.43,10a13,13,0,0,0,18.09-.09q3.56-3.69,3.55-9.9t-3.55-10a12,12,0,0,0-9-3.7A11.82,11.82,0,0,0,438.33,449Z" style="fill:#2eaf4a"/><path d="M527,461.36H492.31q.26,6.3,3.42,9.27a11.07,11.07,0,0,0,7.87,3,11.5,11.5,0,0,0,7-2,9.07,9.07,0,0,0,3.55-5.52h12.74a20,20,0,0,1-4,8.84,20.91,20.91,0,0,1-7.91,6.12,27.29,27.29,0,0,1-23.06-.72,20.68,20.68,0,0,1-8.38-8.38,26.14,26.14,0,0,1-3-12.83,26.44,26.44,0,0,1,3-12.88,20.36,20.36,0,0,1,8.38-8.37,25.64,25.64,0,0,1,12.32-2.89,25.07,25.07,0,0,1,12.28,2.89,20.46,20.46,0,0,1,8.13,7.95,22.94,22.94,0,0,1,2.86,11.51A22.14,22.14,0,0,1,527,461.36Zm-14.75-14a11.65,11.65,0,0,0-8.09-3,11.9,11.9,0,0,0-8.21,3q-3.35,3-3.68,8.75h23C515.5,452.24,514.48,449.32,512.29,447.34Z" style="fill:#2eaf4a"/><path d="M548.09,419.71v62.9H536v-62.9Z" style="fill:#2eaf4a"/><text/><text/><text/><text/></g></g></svg>