<svg xmlns="http://www.w3.org/2000/svg" viewBox="0 0 711.29 483.21"><title>logo_black_horecaAsset 11</title><g id="Layer_2" data-name="Layer 2"><g id="NITION"><path d="M310.4,68.94h52.81q16.91,0,27.57,7.79,12.9,8.85,13.46,25.25-.37,24.12-26.18,32.8l31.38,52.53H385l-27.94-50.58H330.91v50.58H310.4Zm20.51,51.88h31q11.52-.16,17.27-5.85a17,17,0,0,0,5.66-13q-.18-9.26-6.78-13.39-5.19-3.66-15-3.66H330.91Z" style="fill:#2d2926"/><path d="M426.33,68.94h86.42v17h-65.9v33.77h56.24V135.6H446.85v34.75h65.9v17H426.33Z" style="fill:#2d2926"/><path d="M623.3,154.19q-4.45,16.49-17,25.33-12.9,8.78-30.54,8.77-16-.33-26.64-6.82-10.86-6.25-15.78-14.45c-1-1.79-1.88-3.49-2.69-5.12a30,30,0,0,1-1.85-6.33q-1.39-7.14-1.4-27.44,0-20.62,1.4-27.61a30.2,30.2,0,0,1,4.54-11.28q4.92-8.2,15.78-14.62,10.68-6.5,26.64-6.66,19.59.17,31.93,10.15A43.49,43.49,0,0,1,623.3,103H601.58a26.09,26.09,0,0,0-9.1-12.18q-6.87-4.78-16.71-5a31.73,31.73,0,0,0-12.43,2.51,25.57,25.57,0,0,0-8.54,6.09,18.59,18.59,0,0,0-5.29,9.83q-1.5,6.33-1.49,23.79t1.49,23.62a18.63,18.63,0,0,0,5.29,10,23.69,23.69,0,0,0,8.54,5.93,26.89,26.89,0,0,0,12.43,2.68q17.26,0,25.81-16.16Z" style="fill:#2d2926"/></g><g id="REC"><path d="M46.29,269.44H63.85l55.71,89.27h.34V269.44h18.66V395.07H120.92L65.29,305.8H65v89.27H46.29Z" style="fill:#2d2926"/><path d="M199.13,269.44h18.66V395.07H199.13Z" style="fill:#2d2926"/><path d="M299.13,286.41H265.45v-17h86.1v17H317.87V395.07H299.13Z" style="fill:#2d2926"/><path d="M399.3,269.44H418V395.07H399.3Z" style="fill:#2d2926"/><path d="M474.22,332.25q0-21.88,1.27-29.29a35.15,35.15,0,0,1,4.14-12q4.47-8.7,14.35-15.51,9.7-6.9,24.22-7.07,14.68.18,24.48,7.07t14,15.51a29.32,29.32,0,0,1,4.3,12q1.1,7.41,1.1,29.29,0,21.56-1.1,29.13t-4.3,12.15q-4.31,8.7-14,15.34-9.79,6.88-24.48,7.24-14.52-.35-24.22-7.24-9.89-6.63-14.35-15.34-1.35-2.85-2.45-5.43a35.56,35.56,0,0,1-1.69-6.72Q474.22,353.8,474.22,332.25Zm18.74,0q0,18.54,1.35,25.08a21,21,0,0,0,4.82,10.6,21.86,21.86,0,0,0,7.76,6.29,21.49,21.49,0,0,0,11.31,2.84,22.61,22.61,0,0,0,11.57-2.84,20.85,20.85,0,0,0,7.43-6.29,22.34,22.34,0,0,0,5-10.6q1.26-6.56,1.26-25.08T542.18,307a26.31,26.31,0,0,0-12.41-16.89,26.59,26.59,0,0,0-11.57-2.67,25.23,25.23,0,0,0-11.31,2.67,23.52,23.52,0,0,0-7.76,6.46A20.93,20.93,0,0,0,494.31,307Q493,313.73,493,332.25Z" style="fill:#2d2926"/><path d="M618.45,269.44H636l55.72,89.27h.33V269.44h18.66V395.07H693.07L637.45,305.8h-.34v89.27H618.45Z" style="fill:#2d2926"/></g><g id="Red_dot" data-name="Red dot"><circle cx="180.79" cy="125.5" r="72" style="fill:#2eaf4a"/></g><g id="Outlines"><polyline points="54.79 208.5 54.79 8.5 254.79 8.5" style="fill:none;stroke:#2d2926;stroke-miterlimit:10;stroke-width:17px"/><polyline points="702.79 33.5 702.79 233.5 502.79 233.5" style="fill:none;stroke:#2d2926;stroke-miterlimit:10;stroke-width:17px"/></g><g id="Ondertekst"><path d="M96.13,468.25a26.09,26.09,0,0,1-10.91,10.58,35.82,35.82,0,0,1-17,3.78H46.77v-60H68.24a36.55,36.55,0,0,1,17,3.7,25.64,25.64,0,0,1,10.91,10.46,34.76,34.76,0,0,1,0,31.49ZM82.32,466.8q5.34-5.1,5.34-14.28t-5.34-14.36q-5.35-5.1-15.1-5.1H58.83V471.9h8.39Q77,471.9,82.32,466.8Z" style="fill:#2eaf4a"/><path d="M153.11,461.36H118.38q.25,6.3,3.42,9.27a11.05,11.05,0,0,0,7.87,3,11.47,11.47,0,0,0,7-2,9,9,0,0,0,3.55-5.52h12.75a20.27,20.27,0,0,1-4,8.84A20.94,20.94,0,0,1,141,481a27.27,27.27,0,0,1-23-.72,20.7,20.7,0,0,1-8.39-8.38,26.24,26.24,0,0,1-3-12.83,26.55,26.55,0,0,1,3-12.88,20.38,20.38,0,0,1,8.39-8.37,25.62,25.62,0,0,1,12.32-2.89,25,25,0,0,1,12.27,2.89,20.4,20.4,0,0,1,8.13,7.95,23,23,0,0,1,2.44,15.59Zm-14.76-14a11.63,11.63,0,0,0-8.08-3,11.94,11.94,0,0,0-8.22,3q-3.33,3-3.67,8.75h23Q141.65,450.32,138.35,447.34Z" style="fill:#2eaf4a"/><path d="M187.41,472.33v10.28h-6.33q-8,0-12.19-3.82T164.66,466v-20.4h-6.59V435.52h6.59V423.88h12.06v11.64h10.61v10.12H176.72v20.57c0,2.27.46,3.85,1.37,4.76s2.45,1.36,4.62,1.36Z" style="fill:#2eaf4a"/><path d="M224.89,437.73A15.29,15.29,0,0,1,231,445.3v-9.78h12v47.09H231v-9.86a15.52,15.52,0,0,1-6.07,7.61,18.12,18.12,0,0,1-10.27,2.85,20.43,20.43,0,0,1-10.78-2.89,19.6,19.6,0,0,1-7.49-8.37,32.18,32.18,0,0,1,0-25.76,19.6,19.6,0,0,1,7.49-8.37,20.43,20.43,0,0,1,10.78-2.89A18.34,18.34,0,0,1,224.89,437.73ZM209.31,449q-3.42,3.66-3.42,10t3.42,10a13,13,0,0,0,18.1-.09q3.56-3.69,3.55-9.9t-3.55-10a12,12,0,0,0-9-3.7A11.85,11.85,0,0,0,209.31,449Z" style="fill:#2eaf4a"/><path d="M254.57,417.29a8.85,8.85,0,0,1,10.78,0,6,6,0,0,1,2,4.72,5.92,5.92,0,0,1-2,4.63,8.85,8.85,0,0,1-10.78,0,5.92,5.92,0,0,1-2-4.63A6,6,0,0,1,254.57,417.29ZM266,435.52v47.09H253.89V435.52Z" style="fill:#2eaf4a"/><path d="M289,419.71v62.9H276.9v-62.9Z" style="fill:#2eaf4a"/><path d="M341.24,440.2q4.88,5.35,4.87,15v27.37h-12v-26q0-5.61-2.9-8.71a10.39,10.39,0,0,0-8-3.1,10.66,10.66,0,0,0-8.21,3.31q-3.09,3.31-3.08,9.52v25H299.91v-62.9H312V445a15,15,0,0,1,6.2-7.44,18.57,18.57,0,0,1,10-2.68Q336.36,434.84,341.24,440.2Z" style="fill:#2eaf4a"/><path d="M385.55,437.73a15.24,15.24,0,0,1,6.07,7.57v-9.78h12v47.09h-12v-9.86a15.46,15.46,0,0,1-6.07,7.61,18.08,18.08,0,0,1-10.27,2.85,20.45,20.45,0,0,1-10.78-2.89A19.64,19.64,0,0,1,357,472a32.07,32.07,0,0,1,0-25.76,19.64,19.64,0,0,1,7.48-8.37,20.45,20.45,0,0,1,10.78-2.89A18.29,18.29,0,0,1,385.55,437.73ZM370,449q-3.42,3.66-3.42,10t3.42,10a13,13,0,0,0,18.09-.09q3.56-3.69,3.55-9.9t-3.55-10a12,12,0,0,0-9-3.7A11.82,11.82,0,0,0,370,449Z" style="fill:#2eaf4a"/><path d="M455.87,440.2q4.89,5.35,4.88,15v27.37h-12v-26q0-5.61-2.91-8.71a10.36,10.36,0,0,0-7.95-3.1,10.66,10.66,0,0,0-8.21,3.31q-3.09,3.31-3.08,9.52v25H414.55V435.52h12.07V445a15,15,0,0,1,6.2-7.44,18.57,18.57,0,0,1,10-2.68Q451,434.84,455.87,440.2Z" style="fill:#2eaf4a"/><path d="M500.15,437.73a15.81,15.81,0,0,1,6.11,7.57V419.71h12v62.9h-12v-9.86a16.05,16.05,0,0,1-6.11,7.61,17.92,17.92,0,0,1-10.23,2.85,20.45,20.45,0,0,1-10.78-2.89,19.58,19.58,0,0,1-7.48-8.37,32.07,32.07,0,0,1,0-25.76,19.58,19.58,0,0,1,7.48-8.37,20.45,20.45,0,0,1,10.78-2.89A18.13,18.13,0,0,1,500.15,437.73ZM484.62,449q-3.42,3.66-3.42,10t3.42,10a13,13,0,0,0,18.09-.09q3.56-3.69,3.55-9.9t-3.55-10a12,12,0,0,0-9-3.7A11.82,11.82,0,0,0,484.62,449Z" style="fill:#2eaf4a"/><path d="M573.33,461.36H538.6q.25,6.3,3.42,9.27a11.07,11.07,0,0,0,7.87,3,11.5,11.5,0,0,0,7-2,9.07,9.07,0,0,0,3.55-5.52h12.74a20,20,0,0,1-4,8.84,20.91,20.91,0,0,1-7.91,6.12,27.29,27.29,0,0,1-23.06-.72,20.74,20.74,0,0,1-8.38-8.38,26.13,26.13,0,0,1-3-12.83,26.44,26.44,0,0,1,3-12.88,20.42,20.42,0,0,1,8.38-8.37,25.64,25.64,0,0,1,12.32-2.89,25.07,25.07,0,0,1,12.28,2.89,20.46,20.46,0,0,1,8.13,7.95,22.94,22.94,0,0,1,2.86,11.51A22.14,22.14,0,0,1,573.33,461.36Zm-14.75-14a11.65,11.65,0,0,0-8.09-3,11.9,11.9,0,0,0-8.21,3q-3.33,3-3.68,8.75h23C561.79,452.24,560.77,449.32,558.58,447.34Z" style="fill:#2eaf4a"/><path d="M594.38,419.71v62.9H582.32v-62.9Z" style="fill:#2eaf4a"/><text/><text/><text/><text/></g></g></svg>