<?xml version="1.0" encoding="UTF-8"?>
<svg width="235px" height="235px" viewBox="0 0 235 235" version="1.1" xmlns="http://www.w3.org/2000/svg" xmlns:xlink="http://www.w3.org/1999/xlink">
    <!-- Generator: Sketch 56.2 (81672) - https://sketch.com -->
    <title>recognice</title>
    <desc>Created with Sketch.</desc>
    <g id="Page-1" stroke="none" stroke-width="1" fill="none" fill-rule="evenodd">
        <g id="recnition-animatie-inverted" transform="translate(0.000000, -257.000000)">
            <g id="recognice" transform="translate(2.100000, 259.100000)">
                <rect id="Rectangle" stroke="#E2E2E4" stroke-width="3" x="5.68434189e-14" y="0" width="231" height="231"></rect>
                <path d="M128.1,97.7 C116,97.7 106.2,86.2 106.2,72.2 C106.2,58.2 116,46.7 128.1,46.7 C140.2,46.7 150,58.2 150,72.2 C150,86.2 140.2,97.7 128.1,97.7 Z M128.1,48.6 C117.1,48.6 108.2,59.2 108.2,72.1 C108.2,85 117.1,95.6 128.1,95.6 C139.1,95.6 148,85 148,72.1 C148,59.2 139.1,48.6 128.1,48.6 Z" id="Shape" fill="#E2E2E4" fill-rule="nonzero"></path>
                <circle id="Oval" fill="#E2E2E4" fill-rule="nonzero" cx="117.1" cy="71.5" r="1.2"></circle>
                <circle id="Oval" fill="#E2E2E4" fill-rule="nonzero" cx="139.3" cy="71.5" r="1.2"></circle>
                <path d="M121.8,90 C122.5,89.4 123.3,88.9 124.1,88.6 C124.9,88.3 125.8,88.1 126.7,88 C127.6,87.9 128.6,88 129.5,88.2 C129.7,88.3 130,88.4 130.2,88.5 L130.8,88.9 C131,89.1 131.2,89.3 131.3,89.4 C131.4,89.6 131.5,89.8 131.6,90.1 C130.8,89.8 130,89.7 129.2,89.8 C128.4,89.8 127.6,89.9 126.8,90 C126,90.1 125.2,90.1 124.3,90.2 C123.6,90.1 122.7,90.1 121.8,90 Z" id="Path" fill="#E2E2E4" fill-rule="nonzero"></path>
                <path d="M137,85.8 L117.5,85.8 L118.5,84.2 C120.6,81 123.1,79.3 126,79.2 C131.2,78.9 135.4,83.9 135.6,84.1 L137,85.8 Z M121.4,83.8 L132.4,83.8 C130.9,82.5 128.6,81.1 126.1,81.2 C124.3,81.4 122.5,82.3 121.4,83.8 Z" id="Shape" fill="#E2E2E4" fill-rule="nonzero"></path>
                <path d="M4.26325641e-14,28.9 L230.9,28.9" id="Path" stroke="#E2E2E4" stroke-width="2"></path>
                <path d="M112.1,157.3 C111.8,158.6 111.4,159.9 111.1,161.1 C111.8,163.4 112.8,165.7 113.9,167.8 C114.2,166.9 114.6,166.1 114.9,165.3 C113.7,162.8 112.7,160.1 112.1,157.3 Z" id="Path" fill="#FFFFFF" fill-rule="nonzero"></path>
                <path d="M116.3,110.4 C116.6,110.5 116.9,110.6 117.2,110.8 C120,106.6 123.4,104.1 127.1,104.1 C129.8,104.1 132.4,105.4 134.6,107.8 C134.8,107.4 135.2,107 135.7,106.9 C136,106.8 136.2,106.8 136.5,106.9 C133.7,103.8 130.5,102.1 127.1,102.1 C122.4,102.1 118.1,105.4 114.8,110.8 C115.3,110.4 115.8,110.3 116.3,110.4 Z" id="Path" fill="#FFFFFF" fill-rule="nonzero"></path>
                <path d="M144,158.3 C143.6,157.1 143.2,155.9 142.8,154.6 C142.3,157.3 141.5,159.9 140.6,162.5 C140.9,163.6 141.2,164.6 141.5,165.6 C142.5,163.2 143.3,160.8 144,158.3 Z" id="Path" fill="#FFFFFF" fill-rule="nonzero"></path>
                <path d="M116,167.7 C115.6,166.9 115.2,166.2 114.8,165.3 C114.5,166.1 114.1,166.9 113.8,167.8 C114.2,168.6 114.6,169.3 115.1,170 C115.4,169.3 115.7,168.5 116,167.7 Z" id="Path" fill="#FFFFFF" fill-rule="nonzero"></path>
                <path d="M140.6,162.4 C140.2,163.4 139.8,164.4 139.4,165.4 C139.7,166.4 139.9,167.3 140.2,168.3 C140.7,167.4 141.1,166.5 141.5,165.6 C141.2,164.6 140.9,163.5 140.6,162.4 Z" id="Path" fill="#FFFFFF" fill-rule="nonzero"></path>
                <path d="M111.1,152.8 C110.7,154.4 110.4,155.9 110,157.3 C110.3,158.6 110.7,159.9 111.1,161.1 C111.4,159.9 111.8,158.6 112.1,157.3 C111.7,155.9 111.4,154.4 111.1,152.8 Z" id="Path" fill="#FFFFFF" fill-rule="nonzero"></path>
                <path d="M115.9,112.5 C115.9,112.6 116,112.7 116,112.8 C116.4,112.1 116.8,111.5 117.2,110.9 C117,110.7 116.7,110.5 116.3,110.5 C115.8,110.4 115.2,110.5 114.8,110.9 C111.2,116.9 108.7,125.7 108.1,135.7 C111.3,122.1 114.5,113.8 115.9,112.5 Z" id="Path" fill="#FFFFFF" fill-rule="nonzero"></path>
                <path d="M147.3,139.4 C150.7,152.9 152.2,163 152.3,168.1 C152.9,166.9 153.5,165.7 154.1,164.5 C154,163.8 154,163 153.9,162.2 C151.6,146.5 147.7,131.1 142.3,116.2 C139.5,109 137.8,107.1 136.6,106.8 C141.6,112.4 145.1,122.3 146,134.2 C146.4,136 146.8,137.7 147.3,139.4 Z" id="Path" fill="#FFFFFF" fill-rule="nonzero"></path>
                <path d="M144,158.3 C144.7,160.4 145.4,162.4 146.1,164.2 C148,168.9 149.3,171.4 150.4,172.6 C150.7,171.9 151,171.2 151.3,170.5 C149.8,168.2 147.5,162.7 144.9,154.5 C144.6,155.8 144.3,157.1 144,158.3 Z" id="Path" fill="#FFFFFF" fill-rule="nonzero"></path>
                <path d="M144.8,154.5 C144.4,153.1 143.9,151.7 143.5,150.2 C143.3,151.7 143,153.2 142.8,154.6 C143.2,155.9 143.6,157.1 144,158.3 C144.3,157.1 144.6,155.8 144.8,154.5 Z" id="Path" fill="#FFFFFF" fill-rule="nonzero"></path>
                <path d="M135.8,106.9 C135.3,107 134.9,107.3 134.7,107.8 C135.2,108.4 135.7,108.9 136.2,109.6 C136.2,109.4 136.3,109.2 136.3,109.1 C137.9,110.5 141.9,119.6 146,134.4 C145.1,122.5 141.6,112.5 136.6,107 C136.3,106.8 136.1,106.8 135.8,106.9 Z" id="Path" fill="#FFFFFF" fill-rule="nonzero"></path>
                <path d="M152.1,171.5 C152.4,170.4 152.5,169.3 152.4,168.2 C152,169 151.7,169.8 151.4,170.5 C151.5,170.8 151.8,171.2 152.1,171.5 Z" id="Path" fill="#FFFFFF" fill-rule="nonzero"></path>
                <path d="M162.5,155.3 C162.2,155.2 162,155.2 161.7,155.2 C162.2,155.3 162.7,155.4 163.1,155.7 C163,155.5 162.8,155.4 162.5,155.3 Z" id="Path" fill="#FFFFFF" fill-rule="nonzero"></path>
                <path d="M157.4,162.7 C157.4,161.9 157.4,161 157.5,160.2 C157.6,159.5 157.8,158.7 158,158.1 C156.5,160.1 155.2,162.3 154,164.6 C154.1,166.2 154.2,167.5 154.2,168.6 C155.4,166.2 156.4,164.3 157.4,162.7 Z" id="Path" fill="#FFFFFF" fill-rule="nonzero"></path>
                <path d="M161.6,157.2 L161.4,157.2 L161.1,157.2 C160.6,157.3 160.1,158 159.8,158.9 C160.3,158.2 160.9,157.6 161.6,157.2 Z" id="Path" fill="#FFFFFF" fill-rule="nonzero"></path>
                <path d="M152.1,171.5 C151.8,171.2 151.5,170.9 151.3,170.5 C151,171.2 150.7,171.9 150.4,172.6 C150.8,173.2 151.4,173.5 152.1,173.6 C152.9,171.7 153.6,170.1 154.3,168.5 C154.3,167.4 154.2,166.1 154.1,164.5 C153.5,165.7 152.9,166.9 152.3,168.1 C152.4,169.2 152.3,170.4 152.1,171.5 Z" id="Path" fill="#FFFFFF" fill-rule="nonzero"></path>
                <path d="M161.8,155.2 C161.4,155.2 161.1,155.2 160.7,155.3 C159.4,155.7 158.4,156.8 158.1,158.1 C159.3,156.4 160.6,155.3 161.8,155.2 Z" id="Path" fill="#FFFFFF" fill-rule="nonzero"></path>
                <path d="M161.8,157.1 L161.8,157.1 C161.7,157.1 161.7,157.1 161.6,157.2 C161.7,157.2 161.8,157.2 161.9,157.3 C161.9,157.2 161.8,157.2 161.8,157.1 Z" id="Path" fill="#FFFFFF" fill-rule="nonzero"></path>
                <path d="M157.4,162.7 C158.1,161.4 159,160.1 159.9,158.9 C160.2,158 160.7,157.4 161.2,157.2 L161.5,157.2 L161.7,157.2 C161.8,157.2 161.8,157.2 161.9,157.1 L161.9,157.1 C161.9,157.1 162,157.2 162,157.2 C162.9,157.6 163.7,158.3 164.3,159.2 L164.4,159.3 C164.4,157.1 163.9,156.1 163.3,155.6 C162.9,155.4 162.4,155.2 161.9,155.1 C160.8,155.2 159.5,156.3 158.2,157.9 C157.9,158.6 157.8,159.3 157.7,160 C157.4,161 157.3,161.8 157.4,162.7 Z" id="Path" fill="#FFFFFF" fill-rule="nonzero"></path>
                <path d="M137.5,197.8 C139.6,202.2 141.3,204.2 142.3,205 C142.8,205.4 143.1,205.5 143.3,205.4 C143.5,205.3 143.9,205 144.1,204.3 C144.1,204.6 144.2,204.9 144.4,205.1 L144.4,205.1 C144.8,205.1 145.4,204.5 146.3,203.4 C147.6,201.6 148.8,199.7 149.9,197.7" id="Path"></path>
                <path d="M127.1,178.4 C126.7,178.4 126.3,178.4 125.9,178.3 C125.1,182.8 124.2,187.2 123.2,191.2 C122.8,192.8 122.4,194.3 122,195.9 L134.4,195.9 C132,190.2 130,184.4 128.3,178.5 C127.9,178.4 127.5,178.4 127.1,178.4 Z" id="Path"></path>
                <path d="M2.84217094e-14,195.8 L2.84217094e-14,197.8 L105.4,197.8 C105.5,197.1 105.7,196.5 105.8,195.8 L2.84217094e-14,195.8 Z" id="Path" fill="#FFFFFF" fill-rule="nonzero"></path>
                <path d="M230.9,195.8 L153.2,195.8 C152.9,196.5 152.5,197.1 152.2,197.8 L230.9,197.8 L230.9,195.8 Z" id="Path" fill="#FFFFFF" fill-rule="nonzero"></path>
                <path d="M134.4,195.8 L122,195.8 C121.8,196.5 121.6,197.1 121.4,197.8 L135.3,197.8 L135.3,197.7 C135,197.2 134.7,196.5 134.4,195.8 Z" id="Path" fill="#FFFFFF" fill-rule="nonzero"></path>
                <path d="M144.7,179.5 L144.7,179.5 L145.1,181.8 C145.3,182.9 145.5,184.1 145.7,185.2 L147.6,178.7 L148,178.8 C148.4,177.8 149.3,175.5 150.4,172.7 C149.3,171.5 148,169.1 146.1,164.3 C145.4,162.5 144.7,160.5 144,158.4 C143.4,160.9 142.5,163.3 141.5,165.7 C141.9,167 142.2,168.3 142.5,169.5 C143.3,172.5 144,176 144.7,179.5 Z" id="Path"></path>
                <path d="M127.8,176.4 C127.5,175.4 127.2,174.4 127,173.3 C126.9,173.1 126.9,172.8 126.8,172.6 C126.6,173.8 126.5,175.1 126.3,176.4 C126.6,176.4 126.9,176.4 127.2,176.4 C127.3,176.4 127.5,176.4 127.8,176.4 Z" id="Path"></path>
                <path d="M127.1,178.4 C127.5,178.4 127.9,178.4 128.3,178.3 C128.1,177.7 127.9,177 127.8,176.3 C127.6,176.3 127.3,176.3 127.1,176.3 C126.8,176.3 126.5,176.3 126.2,176.3 L125.9,178.3 C126.3,178.3 126.7,178.4 127.1,178.4 Z" id="Path" fill="#FFFFFF" fill-rule="nonzero"></path>
                <path d="M113.1,214.9 C112,217.2 111.1,219.9 110.2,221.2 C110.4,221.7 110.5,222.3 110.5,222.9 C110.3,224.4 109,225.7 106.7,226.4 L106.9,226.4 C109.2,226.4 111.8,222.2 114.8,215.7 C117.4,209.9 119.6,203.9 121.3,197.8 L119.2,197.8 C117.7,203.6 115.6,209.3 113.1,214.9 Z" id="Path" fill="#FFFFFF" fill-rule="nonzero"></path>
                <path d="M123.2,191.2 C124.2,187.3 125.1,182.8 125.9,178.3 C125.2,178.2 124.6,178.1 124,177.9 C123.3,181.7 122.5,186 121.3,190.7 C120.9,192.5 120.4,194.2 119.9,195.8 L122,195.8 C122.4,194.3 122.8,192.8 123.2,191.2 Z" id="Path" fill="#FFFFFF" fill-rule="nonzero"></path>
                <path d="M119.9,195.8 C119.7,196.5 119.5,197.1 119.3,197.8 L121.4,197.8 C121.6,197.1 121.8,196.5 122,195.8 L119.9,195.8 Z" id="Path" fill="#FFFFFF" fill-rule="nonzero"></path>
                <path d="M109.6,187.8 C111.1,181.8 112.9,175.9 115,170.1 C114.6,169.4 114.1,168.7 113.7,167.9 C111.3,174.3 109.2,180.7 107.6,187.4 C106.9,190.3 106.2,193.2 105.7,195.9 L107.7,195.9 C108.3,193.2 108.9,190.5 109.6,187.8 Z" id="Path" fill="#FFFFFF" fill-rule="nonzero"></path>
                <path d="M105.4,212.9 C105.7,207.8 106.4,202.8 107.4,197.8 L105.4,197.8 C104.4,202.8 103.8,207.8 103.4,212.8 C103.4,213.8 103.3,214.7 103.3,215.6 C104,215.8 104.7,216 105.3,216.3 C105.3,215.3 105.4,214.2 105.4,212.9 Z" id="Path" fill="#FFFFFF" fill-rule="nonzero"></path>
                <path d="M107.8,195.8 L105.8,195.8 C105.7,196.5 105.5,197.1 105.4,197.8 L107.4,197.8 C107.5,197.2 107.7,196.5 107.8,195.8 Z" id="Path" fill="#FFFFFF" fill-rule="nonzero"></path>
                <path d="M126.3,176.4 C125.6,176.3 125,176.2 124.4,176 C124.3,176.6 124.2,177.3 124.1,178 C124.7,178.2 125.4,178.3 126,178.4 L126.3,176.4 Z" id="Path" fill="#FFFFFF" fill-rule="nonzero"></path>
                <path d="M143,181 L142.8,179.8 L144.7,179.5 C144,176 143.2,172.5 142.5,169.4 C142.2,168.2 141.9,166.9 141.5,165.6 C141.1,166.6 140.6,167.5 140.2,168.3 L140.6,169.8 C141.6,173.9 142.4,177.6 143,181 Z" id="Path" fill="#FFFFFF" fill-rule="nonzero"></path>
                <path d="M145.7,185.1 C145.5,184 145.3,182.9 145.1,181.7 L145.6,185.2 L145.7,185.1 Z" id="Path" fill="#FFFFFF" fill-rule="nonzero"></path>
                <path d="M142.3,205 C141.3,204.2 139.7,202.2 137.5,197.8 L135.3,197.8 C138.3,204.3 140.9,207.4 143.2,207.4 C143.4,207.4 143.6,207.4 143.8,207.3 C144,207.2 144.2,207.2 144.4,207.1 C144.2,207.1 144,207.1 143.8,207 C143.2,206.9 142.6,206.4 142.3,205 Z" id="Path" fill="#FFFFFF" fill-rule="nonzero"></path>
                <path d="M134.4,195.8 L136.6,195.8 C134.1,190 131.9,184 130.3,177.9 C129.6,178.1 129,178.2 128.3,178.3 C129.9,184.3 132,190.1 134.4,195.8 Z" id="Path" fill="#FFFFFF" fill-rule="nonzero"></path>
                <path d="M137.1,196.9 C136.9,196.5 136.8,196.2 136.6,195.8 L134.4,195.8 C134.7,196.5 135,197.1 135.3,197.7 L135.3,197.8 L137.5,197.8 L137.1,196.9 Z" id="Path" fill="#FFFFFF" fill-rule="nonzero"></path>
                <path d="M130.3,177.9 L129.8,176 C129.2,176.2 128.5,176.3 127.8,176.4 C128,177.1 128.2,177.7 128.3,178.4 C129,178.3 129.6,178.1 130.3,177.9 Z" id="Path" fill="#FFFFFF" fill-rule="nonzero"></path>
                <path d="M103,177.8 C103.1,177.8 103.2,177.8 103.4,177.8 C104.7,177.8 106.3,176.3 109,168.1 C109.7,166 110.4,163.6 111.1,161.1 C110.7,159.9 110.4,158.6 110,157.3 C107.3,167.9 104.7,174.4 103.4,175.6 C102.4,173.4 102.9,161.4 106.5,143.4 C107,140.6 107.6,138 108.2,135.5 C108.8,125.5 111.2,116.7 114.9,110.7 C113.8,111.6 112.4,114 110.4,120 C105.7,135.1 102.6,150.8 101.2,166.5 C100.5,176 101.6,177.5 103,177.8 Z" id="Path" fill="#FFFFFF" fill-rule="nonzero"></path>
                <path d="M149.5,179.1 L146.3,190 C146.3,190 146.3,190.1 146.3,190.2 C147.1,187.2 148.2,183.7 149.6,179.9 C150.4,177.6 151.2,175.5 152,173.6 C151.3,173.5 150.7,173.2 150.3,172.6 C149.1,175.4 148.3,177.7 147.9,178.7 L149.5,179.1 Z" id="Path" fill="#FFFFFF" fill-rule="nonzero"></path>
                <path d="M146.4,203.5 C146,205.3 145.4,206.6 144.4,207.1 L144.4,207.1 C146.7,207.1 149.6,202.8 152.2,197.8 L149.9,197.8 C148.9,199.8 147.8,201.7 146.4,203.5 Z" id="Path" fill="#FFFFFF" fill-rule="nonzero"></path>
                <path d="M158.6,183.1 C159.5,180.6 160.3,178.1 161.1,175.7 C160.6,174.9 160.1,174 159.8,173.2 C159,176 158,179.1 156.8,182.5 C155.2,187.1 153.3,191.5 151.1,195.9 L153.3,195.9 C156.1,189.9 158.4,183.6 158.6,183.1 Z" id="Path" fill="#FFFFFF" fill-rule="nonzero"></path>
                <path d="M151,195.8 C150.6,196.5 150.3,197.2 150,197.8 L152.3,197.8 C152.6,197.1 153,196.5 153.3,195.8 L151,195.8 Z" id="Path" fill="#FFFFFF" fill-rule="nonzero"></path>
                <path d="M146.4,203.5 C145.5,204.6 144.9,205.2 144.5,205.2 L144.5,205.2 C144.3,205 144.2,204.7 144.2,204.4 C144,205 143.7,205.4 143.4,205.5 C143.1,205.6 142.8,205.4 142.4,205.1 C142.7,206.5 143.3,206.9 143.9,207.1 C144.1,207.2 144.3,207.2 144.5,207.2 C145.4,206.6 146,205.4 146.4,203.5 Z" id="Path" fill="#FFFFFF" fill-rule="nonzero"></path>
                <path d="M104.7,224.9 C102.4,225.3 100,225.4 97.7,225 C91.2,224.2 87.5,221.6 87.7,220 C88.1,218.5 89.3,217.4 90.7,216.9 C92.2,216.5 93.8,216.3 95.4,216.3 C96.5,216.3 97.5,216.4 98.6,216.5 C100.2,216.7 101.8,217 103.4,217.5 C103.4,216.8 103.4,216.2 103.4,215.4 C101.9,214.9 100.4,214.6 98.9,214.4 C96,214 93.1,214.1 90.3,214.8 C87.6,215.5 86,216.9 85.8,218.5 C85.3,222.2 91.5,226 97.5,226.7 C98.6,226.8 99.8,226.9 101,226.9 C102.7,226.9 104.5,226.7 106.2,226.3 L106.9,226.1 C106.8,226.1 106.7,226.1 106.5,226.1 C105.6,226.1 105,225.6 104.7,224.9 Z" id="Path" fill="#FFFFFF" fill-rule="nonzero"></path>
                <path d="M105.4,218.5 C105.4,217.8 105.3,217.1 105.3,216.3 C104.7,216 104,215.8 103.3,215.6 C103.3,216.3 103.3,217 103.3,217.7 C104.1,217.9 104.7,218.2 105.4,218.5 Z" id="Path" fill="#FFFFFF" fill-rule="nonzero"></path>
                <path d="M110.6,222.9 C110.7,222.3 110.6,221.7 110.3,221.2 C108.6,223.9 107.4,224.6 106.9,224.5 C106.8,224.5 106.8,224.4 106.7,224.4 C106.3,224.6 105.9,224.7 105.6,224.8 C105.3,224.9 105,225 104.7,225 C105.1,225.7 105.7,226.2 106.5,226.5 C106.6,226.5 106.7,226.5 106.9,226.5 C109,225.6 110.4,224.4 110.6,222.9 Z" id="Path" fill="#FFFFFF" fill-rule="nonzero"></path>
                <path d="M161.7,176.7 C163.1,178.6 164.6,179.6 166.1,179.6 C166.3,179.6 166.6,179.6 166.8,179.5 C170.4,178.6 170.8,171.8 169.3,166 C168.6,163.2 167.5,160.5 165.8,158.1 C165.1,157.1 164.2,156.3 163.2,155.7 C163.8,156.2 164.2,157.2 164.3,159.4 C165.8,161.6 166.8,164 167.4,166.5 C169,172.8 167.9,177.2 166.4,177.6 C165.6,177.8 164.5,177 163.4,175.5 C162.8,174.7 162.3,173.9 161.9,173 C161.6,173.9 161.4,174.8 161.1,175.7 C161.2,176.1 161.5,176.4 161.7,176.7 Z" id="Path" fill="#FFFFFF" fill-rule="nonzero"></path>
                <path d="M161.8,173 C161.3,172 160.9,170.9 160.6,169.9 C160.3,170.9 160,172.1 159.7,173.2 C160.1,174.1 160.5,174.9 161,175.7 C161.3,174.8 161.6,173.9 161.8,173 Z" id="Path" fill="#FFFFFF" fill-rule="nonzero"></path>
                <path d="M144.3,190 C144,187.3 143.6,184.3 142.9,181 L144.9,194.7 L146.3,190 C146.1,188.5 145.9,186.9 145.7,185.3 C145.2,186.9 144.8,188.5 144.3,190 Z" id="Path" fill="#FFFFFF" fill-rule="nonzero"></path>
                <path d="M147.8,179.2 C147.8,179.1 147.9,178.9 148,178.7 L147.6,178.6 L145.7,185.1 L145.7,185.3 C146.3,183.4 147,181.3 147.8,179.2 Z" id="Path" fill="#FFFFFF" fill-rule="nonzero"></path>
                <path d="M144.8,179.5 L144.8,179.5 C144.9,180.2 145,181 145.1,181.7 L144.8,179.5 Z" id="Path" fill="#FFFFFF" fill-rule="nonzero"></path>
                <path d="M145.7,185.3 L145.7,185.1 L145.7,185.3 L145.1,181.7 C145,180.9 144.8,180.2 144.7,179.5 L142.8,179.8 L143,181 C143.6,184.3 144.1,187.3 144.4,190 C144.8,188.5 145.2,186.9 145.7,185.3 Z" id="Path" fill="#FFFFFF" fill-rule="nonzero"></path>
                <path d="M148,178.7 C147.9,179 147.8,179.2 147.8,179.2 C147,181.3 146.4,183.3 145.8,185.3 C146,186.9 146.3,188.5 146.4,190 L149.6,179.1 L148,178.7 Z" id="Path" fill="#FFFFFF" fill-rule="nonzero"></path>
                <polygon id="Rectangle" stroke="#E2E2E4" stroke-width="1.9999977" points="11.15882 60.67364 12.86768 49.40246 40.55128 53.59966 38.84242 64.87084"></polygon>
                <path d="M40.4,63.5 C40.2,63.5 39.9,63.5 39.7,63.4 L39.9,62.1 C41.4,62.4 42.8,61.4 43,59.9 C43,59.9 43,59.9 43,59.9 C43.2,58.4 42.3,57 40.8,56.8 L41,55.5 C43.2,56 44.5,58.1 44.1,60.2 C43.8,62.1 42.3,63.4 40.4,63.5 L40.4,63.5 Z" id="Path" fill="#E2E2E4" fill-rule="nonzero"></path>
                <path d="M12.1,57.5 L1.42108547e-14,45.8" id="Path" stroke="#E2E2E4" stroke-width="2"></path>
                <path d="M12.1,52.5 L1.42108547e-14,40.8" id="Path" stroke="#E2E2E4" stroke-width="2"></path>
                <path d="M58.8,58.1 C59.8,57.7 96.5,55 96.5,55" id="Path" stroke="#E2E2E4" fill="#E2E2E4" fill-rule="nonzero"></path>
                <path d="M58.5,63.5 C59.8,64 96.2,68 96.2,68" id="Path" stroke="#E2E2E4" fill="#E2E2E4" fill-rule="nonzero"></path>
                <path d="M55.8,69 L95.5,83.5" id="Path" stroke="#E2E2E4"></path>
            </g>
        </g>
    </g>
</svg>