<?xml version="1.0" encoding="UTF-8"?>
<svg width="235px" height="235px" viewBox="0 0 235 235" version="1.1" xmlns="http://www.w3.org/2000/svg" xmlns:xlink="http://www.w3.org/1999/xlink">
    <!-- Generator: Sketch 56.2 (81672) - https://sketch.com -->
    <title>upload</title>
    <desc>Created with Sketch.</desc>
    <g id="Page-1" stroke="none" stroke-width="1" fill="none" fill-rule="evenodd">
        <g id="recnition-animatie-inverted" transform="translate(-260.000000, 1.000000)">
            <g id="upload" transform="translate(262.200000, 0.800000)">
                <rect id="Rectangle" stroke="#E2E2E4" stroke-width="3" x="0" y="0" width="231" height="231"></rect>
                <path d="M63.5,169.5 L37.9,169.5 L41,140 L59.7,140 L63.5,169.5 Z M39.1,168.5 L62.3,168.5 L58.7,141 L41.9,141 L39.1,168.5 Z" id="Shape" fill="#E2E2E4" fill-rule="nonzero"></path>
                <polygon id="Path" fill="#1CF9EC" fill-rule="nonzero" points="42.3 165.7 42.7 165.7 42.9 166.7 42.9 166.7 43.2 165.7 43.5 165.7 43.8 166.7 43.8 166.7 44.1 165.7 44.4 165.7 44 167.2 43.8 167.2 43.5 166.2 43.5 166.2 43.2 167.2 42.9 167.2"></polygon>
                <polygon id="Path" fill="#1CF9EC" fill-rule="nonzero" points="44.5 165.7 44.8 165.7 44.8 167.2 44.5 167.2"></polygon>
                <polygon id="Path" fill="#1CF9EC" fill-rule="nonzero" points="45.2 165.7 45.6 165.7 46.2 166.7 46.2 166.7 46.2 165.7 46.5 165.7 46.5 167.2 46.1 167.2 45.5 166.1 45.5 166.1 45.5 167.2 45.2 167.2"></polygon>
                <polygon id="Path" fill="#1CF9EC" fill-rule="nonzero" points="46.9 165.7 47.2 165.7 47.2 166.3 47.8 165.7 48.2 165.7 47.5 166.4 48.2 167.2 47.8 167.2 47.2 166.5 47.2 167.2 46.9 167.2 46.9 165.7"></polygon>
                <polygon id="Path" fill="#1CF9EC" fill-rule="nonzero" points="48.4 165.7 49.4 165.7 49.4 166 48.7 166 48.7 166.3 49.3 166.3 49.3 166.6 48.7 166.6 48.7 166.9 49.4 166.9 49.4 167.2 48.3 167.2"></polygon>
                <polygon id="Path" fill="#1CF9EC" fill-rule="nonzero" points="49.7 165.7 50 165.7 50 166.9 50.6 166.9 50.6 167.2 49.8 167.2"></polygon>
                <polygon id="Path" fill="#1CF9EC" fill-rule="nonzero" points="50.5 165.7 50.9 165.7 51.3 166.7 51.3 166.7 51.7 165.7 52.1 165.7 51.5 167.2 51.2 167.2"></polygon>
                <polygon id="Path" fill="#1CF9EC" fill-rule="nonzero" points="52.2 165.7 53.2 165.7 53.2 166 52.5 166 52.5 166.3 53.1 166.3 53.1 166.6 52.5 166.6 52.5 166.9 53.2 166.9 53.2 167.2 52.2 167.2"></polygon>
                <path d="M53.5,165.7 L54.1,165.7 C54.2,165.7 54.2,165.7 54.3,165.7 C54.4,165.7 54.4,165.7 54.5,165.8 C54.6,165.8 54.6,165.9 54.6,165.9 C54.6,166 54.7,166 54.6,166.1 C54.6,166.2 54.6,166.3 54.5,166.4 C54.4,166.5 54.4,166.5 54.3,166.5 L54.7,167.1 L54.3,167.1 L54,166.5 L53.8,166.5 L53.8,167.1 L53.5,167.1 L53.5,165.7 Z M53.8,166.3 L54.1,166.3 L54.2,166.3 C54.2,166.3 54.3,166.3 54.3,166.2 C54.3,166.1 54.3,166.1 54.3,166 C54.3,166 54.3,166 54.3,165.9 L54.2,165.9 L53.8,165.9 L53.8,166.3 Z" id="Shape" fill="#1CF9EC" fill-rule="nonzero"></path>
                <path d="M54.9,165.7 L55.4,165.7 L55.6,165.7 L55.8,165.8 C55.9,165.8 55.9,165.9 55.9,165.9 C55.9,166 55.9,166 55.9,166.1 C55.9,166.2 55.9,166.3 55.8,166.3 C55.8,166.4 55.7,166.4 55.6,166.4 L55.6,166.4 L55.7,166.4 C55.7,166.4 55.8,166.4 55.8,166.5 C55.8,166.5 55.9,166.6 55.9,166.6 C55.9,166.6 55.9,166.7 55.9,166.7 C55.9,166.8 55.9,166.8 55.9,166.9 C55.9,167 55.8,167 55.8,167 L55.6,167.1 L55.4,167.1 L54.8,167.1 L54.9,165.7 Z M55.2,166.3 L55.5,166.3 L55.6,166.3 L55.6,166.2 C55.6,166.2 55.6,166.1 55.6,166.1 C55.6,166.1 55.6,166 55.6,166 C55.6,166 55.6,166 55.6,166 L55.5,166 L55.2,166 L55.2,166.3 Z M55.2,166.9 L55.6,166.9 C55.6,166.9 55.6,166.9 55.7,166.9 L55.7,166.9 C55.7,166.9 55.7,166.8 55.7,166.8 C55.7,166.8 55.7,166.7 55.7,166.7 C55.7,166.7 55.7,166.7 55.6,166.7 L55.5,166.7 L55.2,166.7 L55.2,166.9 Z" id="Shape" fill="#1CF9EC" fill-rule="nonzero"></path>
                <path d="M56.2,166.5 C56.2,166.4 56.2,166.3 56.3,166.2 C56.3,166.1 56.4,166 56.5,165.9 C56.6,165.8 56.7,165.8 56.8,165.7 C57,165.6 57.2,165.6 57.4,165.7 C57.5,165.7 57.6,165.8 57.7,165.9 C57.8,166 57.8,166.1 57.9,166.2 C57.9,166.3 58,166.4 58,166.5 C58,166.6 58,166.7 57.9,166.8 C57.9,166.9 57.8,167 57.7,167.1 C57.6,167.2 57.5,167.2 57.4,167.2 C57.2,167.3 57,167.3 56.8,167.2 C56.7,167.2 56.6,167.1 56.5,167.1 C56.4,167 56.4,166.9 56.3,166.8 C56.2,166.7 56.1,166.6 56.2,166.5 Z M56.5,166.5 C56.5,166.6 56.5,166.6 56.5,166.7 C56.5,166.8 56.6,166.8 56.6,166.8 C56.6,166.8 56.7,166.9 56.7,166.9 C56.8,166.9 57,166.9 57.1,166.9 C57.2,166.9 57.2,166.8 57.2,166.8 C57.2,166.8 57.3,166.7 57.3,166.7 C57.3,166.6 57.3,166.6 57.3,166.5 C57.3,166.4 57.3,166.4 57.3,166.3 C57.3,166.2 57.3,166.2 57.2,166.2 C57.2,166.2 57.1,166.1 57.1,166.1 C57,166 56.8,166 56.7,166.1 C56.6,166.1 56.6,166.2 56.6,166.2 C56.6,166.2 56.5,166.3 56.5,166.3 C56.5,166.3 56.5,166.4 56.5,166.5 L56.5,166.5 Z" id="Shape" fill="#1CF9EC" fill-rule="nonzero"></path>
                <path d="M58,165.7 L58.5,165.7 C58.6,165.7 58.7,165.7 58.9,165.7 C59,165.7 59.1,165.8 59.2,165.8 C59.3,165.9 59.3,165.9 59.4,166 C59.5,166.1 59.5,166.2 59.5,166.4 C59.5,166.6 59.4,166.8 59.2,167 C59.1,167.1 59,167.1 58.9,167.1 C58.8,167.1 58.7,167.1 58.6,167.2 L58.1,167.2 L58.1,165.7 L58,165.7 Z M58.3,166.9 L58.5,166.9 C58.6,166.9 58.6,166.9 58.7,166.9 C58.8,166.9 58.8,166.9 58.9,166.8 C59,166.8 59,166.7 59,166.7 C59,166.6 59,166.6 59,166.5 C59,166.4 59,166.4 59,166.3 C59,166.2 58.9,166.2 58.9,166.2 L58.7,166.1 L58.5,166.1 L58.3,166.1 L58.3,166.9 Z" id="Shape" fill="#1CF9EC" fill-rule="nonzero"></path>
                <rect id="Rectangle" fill="#E2E2E4" fill-rule="nonzero" x="41.3" y="163.4" width="18.6" height="1"></rect>
                <rect id="Rectangle" fill="#E2E2E4" fill-rule="nonzero" x="42.8" y="162.1" width="13.6" height="1"></rect>
                <rect id="Rectangle" fill="#E2E2E4" fill-rule="nonzero" x="41.7" y="160.5" width="9.7" height="1"></rect>
                <rect id="Rectangle" fill="#E2E2E4" fill-rule="nonzero" x="52.5" y="160.5" width="5.3" height="1"></rect>
                <rect id="Rectangle" fill="#E2E2E4" fill-rule="nonzero" x="42.3" y="159.1" width="16.5" height="1"></rect>
                <rect id="Rectangle" fill="#E2E2E4" fill-rule="nonzero" x="42.8" y="156.4" width="13.6" height="1"></rect>
                <rect id="Rectangle" fill="#E2E2E4" fill-rule="nonzero" x="41.7" y="154.9" width="9.7" height="1"></rect>
                <rect id="Rectangle" fill="#E2E2E4" fill-rule="nonzero" x="52.5" y="154.9" width="5.3" height="1"></rect>
                <rect id="Rectangle" fill="#E2E2E4" fill-rule="nonzero" x="52.5" y="152.1" width="5.3" height="1"></rect>
                <rect id="Rectangle" fill="#E2E2E4" fill-rule="nonzero" x="42.3" y="152.1" width="9.3" height="1"></rect>
                <rect id="Rectangle" fill="#E2E2E4" fill-rule="nonzero" x="42.3" y="153.5" width="16.5" height="1"></rect>
                <path d="M84.5,133.7 C80,113.7 69.7,100.8 58.2,100.8 C47.1,100.8 36.9,113.2 32.3,132.4 L30.5,132 C35.4,112 46.3,99 58.2,99 C70.5,99 81.5,112.5 86.2,133.3 L84.5,133.7 Z" id="Path" fill="#E2E2E4" fill-rule="nonzero"></path>
                <path d="M58.4,97.5 C49.7,97.5 42.6,89.3 42.6,79.2 C42.6,69.1 49.7,60.9 58.4,60.9 C67.1,60.9 74.1,69.1 74.1,79.2 C74.1,89.3 67.1,97.5 58.4,97.5 Z M58.4,62.6 C50.7,62.6 44.5,70 44.5,79.1 C44.5,88.2 50.8,95.6 58.4,95.6 C66,95.6 72.3,88.2 72.3,79.1 C72.3,70 66.1,62.7 58.4,62.6 L58.4,62.6 Z" id="Shape" fill="#E2E2E4" fill-rule="nonzero"></path>
                <circle id="Oval" fill="#E2E2E4" fill-rule="nonzero" cx="51.3" cy="78.7" r="1"></circle>
                <circle id="Oval" fill="#E2E2E4" fill-rule="nonzero" cx="64.8" cy="78.7" r="1"></circle>
                <path d="M54.7,91.8 C55.2,91.4 55.8,91.1 56.4,90.9 C57,90.7 57.6,90.5 58.2,90.5 C58.9,90.4 59.5,90.5 60.2,90.6 C60.4,90.7 60.5,90.7 60.7,90.8 L61.2,91.1 C61.3,91.2 61.5,91.3 61.6,91.5 C61.7,91.6 61.8,91.8 61.8,91.9 C61.3,91.7 60.7,91.6 60.1,91.6 C59.5,91.6 59,91.7 58.4,91.7 C57.8,91.7 57.2,91.8 56.6,91.9 C56,91.8 55.3,91.8 54.7,91.8 Z" id="Path" fill="#E2E2E4" fill-rule="nonzero"></path>
                <path d="M65.2,88.7 L51.8,88.7 L52.4,87.8 C53.9,85.6 55.7,84.4 57.6,84.3 C61.2,84.1 64.2,87.6 64.3,87.8 L65.2,88.7 Z M54.2,87.5 L62.5,87.5 C61.2,86.3 59.5,85.6 57.8,85.5 C56.3,85.7 55,86.4 54.2,87.5 Z" id="Shape" fill="#E2E2E4" fill-rule="nonzero"></path>
                <path d="M107.2,132 L101.4,132 L102.7,132.4 L102.5,133 L99.4,132 L22.5,132 L22.5,133.8 L107,133.8 C106.9,133.2 107,132.6 107.2,132 Z" id="Path" fill="#FFFFFF" fill-rule="nonzero"></path>
                <path d="M107.5,132 L106.4,132 L106.7,132.4 L106.7,133 L106.1,132 L91.2,132 L91.2,133.8 L107.5,133.8 C107.5,133.2 107.5,132.6 107.5,132 Z" id="Path" fill="#FFFFFF" fill-rule="nonzero"></path>
                <path d="M108,177.2 L21.6,177.2 L21.6,52.4 L108,52.4 L108,177.2 Z M23.2,175.7 L106.3,175.7 L106.3,54 L23.2,54 L23.2,175.7 Z" id="Shape" fill="#E2E2E4" fill-rule="nonzero"></path>
                <polygon id="Path" fill="#FFFFFF" fill-rule="nonzero" points="184.6 76.6 168.4 100.3 176.5 100.3 176.5 135.2 184.6 135.2 192.7 135.2 192.7 100.3 200.8 100.3"></polygon>
                <path d="M157,152.8 L159.5,152.8 C160.1,152.8 160.7,152.9 161.3,153 C161.8,153.1 162.3,153.4 162.7,153.7 C163.1,154 163.5,154.4 163.7,154.9 C164,155.5 164.1,156.1 164.1,156.7 C164.1,157.3 164,157.8 163.8,158.3 C163.6,158.8 163.2,159.2 162.8,159.5 C162.4,159.8 161.9,160.1 161.4,160.2 C160.9,160.4 160.3,160.5 159.8,160.5 L157,160.5 L157,152.8 Z M158.7,158.9 L159.6,158.9 C160,158.9 160.3,158.9 160.7,158.8 C161,158.7 161.3,158.6 161.6,158.4 C161.9,158.2 162,158 162.2,157.7 C162.4,157.4 162.4,157 162.4,156.6 C162.4,156.3 162.3,155.9 162.2,155.6 C162.1,155.3 161.9,155.1 161.6,154.9 C161.3,154.7 161.1,154.6 160.8,154.5 C160.5,154.4 160.1,154.4 159.8,154.4 L158.8,154.4 L158.7,158.9 Z" id="Shape" fill="#E2E2E4" fill-rule="nonzero"></path>
                <path d="M167.7,152.8 L169.1,152.8 L172.4,160.5 L170.5,160.5 L169.8,158.9 L166.8,158.9 L166.2,160.5 L164.3,160.5 L167.7,152.8 Z M168.4,155 L167.5,157.4 L169.4,157.4 L168.4,155 Z" id="Shape" fill="#E2E2E4" fill-rule="nonzero"></path>
                <polygon id="Path" fill="#E2E2E4" fill-rule="nonzero" points="173.7 154.3 171.5 154.3 171.5 152.8 177.6 152.8 177.6 154.3 175.4 154.3 175.4 160.5 173.7 160.5 173.7 154.3"></polygon>
                <path d="M180,152.8 L181.4,152.8 L184.7,160.5 L182.8,160.5 L182.1,158.9 L179.1,158.9 L178.5,160.5 L176.7,160.5 L180,152.8 Z M180.6,155 L179.7,157.4 L181.6,157.4 L180.6,155 Z" id="Shape" fill="#E2E2E4" fill-rule="nonzero"></path>
                <path d="M185.5,152.8 L188.4,152.8 C188.7,152.8 189.1,152.8 189.4,152.9 C189.7,152.9 190,153 190.3,153.2 C190.6,153.3 190.8,153.5 191,153.8 C191.2,154.1 191.3,154.5 191.2,154.8 C191.2,155.2 191.1,155.6 190.8,155.9 C190.5,156.2 190.2,156.4 189.8,156.5 L189.8,156.5 C190,156.5 190.3,156.6 190.5,156.7 C190.7,156.8 190.9,156.9 191,157.1 C191.2,157.3 191.3,157.5 191.3,157.7 C191.4,157.9 191.4,158.2 191.4,158.4 C191.4,158.8 191.3,159.1 191.1,159.4 C190.9,159.7 190.7,159.9 190.4,160.1 C190.1,160.3 189.8,160.4 189.5,160.5 C189.2,160.6 188.8,160.6 188.5,160.6 L185.4,160.6 L185.5,152.8 Z M187.2,155.8 L188.4,155.8 C188.5,155.8 188.7,155.8 188.8,155.8 C188.9,155.8 189,155.7 189.1,155.7 C189.2,155.6 189.3,155.5 189.3,155.4 C189.4,155.3 189.4,155.1 189.4,155 C189.4,154.9 189.4,154.7 189.3,154.6 C189.2,154.5 189.1,154.4 189,154.4 C188.9,154.3 188.8,154.3 188.6,154.3 C188.5,154.3 188.3,154.3 188.2,154.3 L187,154.3 L187,155.8 L187.2,155.8 Z M187.2,159 L188.7,159 C188.8,159 189,159 189.1,159 C189.2,159 189.4,158.9 189.5,158.9 C189.6,158.8 189.7,158.7 189.8,158.6 C189.9,158.5 189.9,158.3 189.9,158.2 C189.9,158 189.9,157.9 189.8,157.7 C189.7,157.6 189.6,157.5 189.5,157.4 C189.4,157.3 189.2,157.3 189,157.3 L188.6,157.3 L187.3,157.3 L187.2,159 Z" id="Shape" fill="#E2E2E4" fill-rule="nonzero"></path>
                <path d="M195,152.8 L196.4,152.8 L199.7,160.5 L197.8,160.5 L197.1,158.9 L194.1,158.9 L193.5,160.5 L191.7,160.5 L195,152.8 Z M195.7,155 L194.8,157.4 L196.7,157.4 L195.7,155 Z" id="Shape" fill="#E2E2E4" fill-rule="nonzero"></path>
                <path d="M204.3,154.7 C204.2,154.5 204,154.4 203.7,154.3 C203.5,154.2 203.3,154.2 203,154.2 C202.9,154.2 202.8,154.2 202.6,154.2 C202.5,154.2 202.3,154.3 202.2,154.3 C202.1,154.4 202,154.4 201.9,154.6 C201.8,154.7 201.8,154.8 201.8,155 C201.8,155.2 201.9,155.4 202.1,155.5 C202.3,155.6 202.5,155.7 202.8,155.8 L203.6,156.1 C203.9,156.2 204.2,156.3 204.4,156.5 C204.7,156.7 204.9,156.9 205.1,157.1 C205.3,157.4 205.4,157.8 205.4,158.2 C205.4,158.6 205.3,159 205.2,159.3 C205,159.6 204.8,159.9 204.5,160.1 C204.2,160.3 203.9,160.5 203.6,160.6 C202.8,160.8 201.9,160.8 201.1,160.5 C200.7,160.3 200.2,160.1 199.9,159.8 L201.1,158.5 C201.3,158.7 201.5,158.9 201.8,159 C202.1,159.1 202.3,159.2 202.6,159.2 C202.7,159.2 202.9,159.2 203,159.1 C203.1,159.1 203.3,159 203.4,159 C203.5,159 203.6,158.9 203.7,158.8 C203.8,158.7 203.8,158.6 203.8,158.4 C203.8,158.2 203.7,158 203.5,157.8 C203.3,157.7 203.1,157.5 202.8,157.5 L201.9,157.2 C201.6,157.1 201.3,157 201,156.8 C200.7,156.6 200.5,156.4 200.3,156.2 C200.1,155.9 200,155.6 200,155.2 C200,154.5 200.3,153.8 200.9,153.3 C201.2,153.1 201.5,152.9 201.8,152.8 C202.2,152.7 202.5,152.6 202.9,152.6 C203.3,152.6 203.7,152.7 204.2,152.8 C204.6,152.9 205,153.1 205.3,153.4 L204.3,154.7 Z" id="Path" fill="#E2E2E4" fill-rule="nonzero"></path>
                <polygon id="Path" fill="#E2E2E4" fill-rule="nonzero" points="206.8 152.8 212 152.8 212 154.4 208.5 154.4 208.5 155.8 211.8 155.8 211.8 157.4 208.5 157.4 208.5 159 212.2 159 212.2 160.6 206.8 160.6"></polygon>
                <path d="M148.3,115.5 L143.2,110.4 C142.7,110.1 142.1,110.2 141.8,110.7 C141.6,111 141.6,111.5 141.8,111.8 L145.3,115.2 L124.7,115.2 C124.1,115.2 123.7,115.6 123.7,116.2 C123.7,116.8 124.1,117.2 124.7,117.2 L145.8,117.2 L141.8,121.2 C141.5,121.7 141.6,122.3 142.1,122.6 C142.4,122.8 142.9,122.8 143.2,122.6 L148.3,117.5 C148.5,116.9 148.5,116.2 148.3,115.5 L148.3,115.5 Z" id="Path" fill="#E2E2E4" fill-rule="nonzero"></path>
                <path d="M170,142.1 L170,145.5 C170,145.7 170,145.9 170.1,146 C170.1,146.2 170.2,146.4 170.3,146.5 C170.4,146.7 170.6,146.8 170.7,146.9 C171.1,147.1 171.6,147.1 172,146.9 C172.2,146.8 172.3,146.7 172.4,146.5 C172.5,146.3 172.6,146.2 172.6,146 C172.6,145.8 172.7,145.6 172.7,145.5 L172.7,142.1 L173.5,142.1 L173.5,145.6 C173.5,145.9 173.5,146.2 173.3,146.5 C173.2,146.8 173,147 172.8,147.2 C172.6,147.4 172.4,147.5 172.1,147.6 C171.6,147.8 171,147.8 170.4,147.6 C170.1,147.5 169.9,147.4 169.7,147.2 C169.5,147 169.4,146.8 169.2,146.5 C169.1,146.2 169,145.9 169,145.6 L169,142.2 L170,142.1 Z" id="Path" fill="#E2E2E4" fill-rule="nonzero"></path>
                <path d="M174.9,142.1 L176.8,142.1 C177.1,142.1 177.4,142.1 177.7,142.2 C177.9,142.3 178.1,142.4 178.2,142.6 C178.3,142.7 178.4,142.9 178.5,143.1 C178.6,143.5 178.6,143.8 178.5,144.2 C178.4,144.4 178.3,144.6 178.2,144.7 C178,144.9 177.9,145 177.7,145.1 C177.4,145.2 177.1,145.3 176.8,145.2 L175.6,145.2 L175.6,147.7 L174.8,147.7 L174.8,142.1 L174.9,142.1 Z M175.6,144.6 L176.6,144.6 C176.7,144.6 176.9,144.6 177,144.6 C177.1,144.6 177.3,144.5 177.4,144.5 C177.5,144.4 177.6,144.3 177.7,144.2 C177.8,144.1 177.8,143.9 177.8,143.7 C177.8,143.5 177.8,143.4 177.7,143.3 C177.6,143.2 177.5,143.1 177.4,143 C177.3,142.9 177.2,142.9 177,142.9 C176.9,142.9 176.7,142.9 176.6,142.9 L175.6,142.9 L175.6,144.6 Z" id="Shape" fill="#E2E2E4" fill-rule="nonzero"></path>
                <polygon id="Path" fill="#E2E2E4" fill-rule="nonzero" points="179.5 142.1 180.3 142.1 180.3 146.9 182.8 146.9 182.8 147.6 179.5 147.6"></polygon>
                <path d="M186,147.8 C185.6,147.8 185.2,147.7 184.8,147.6 C184.5,147.5 184.1,147.3 183.9,147 C183.6,146.7 183.4,146.4 183.3,146.1 C183.2,145.7 183.1,145.4 183.1,145 C183.1,144.6 183.2,144.2 183.3,143.9 C183.4,143.6 183.6,143.3 183.9,143 C184.2,142.7 184.5,142.5 184.8,142.4 C185.2,142.2 185.6,142.2 186,142.2 C186.4,142.2 186.8,142.3 187.2,142.4 C187.5,142.5 187.8,142.7 188.1,143 C188.4,143.3 188.6,143.6 188.7,143.9 C188.8,144.3 188.9,144.7 188.9,145 C188.9,145.4 188.8,145.8 188.7,146.1 C188.6,146.4 188.4,146.8 188.1,147 C187.8,147.3 187.5,147.5 187.2,147.6 C186.8,147.7 186.4,147.8 186,147.8 Z M186,147.1 C186.3,147.1 186.6,147 186.8,146.9 C187,146.8 187.3,146.6 187.5,146.4 C187.7,146.2 187.8,146 187.9,145.7 C188,145.4 188.1,145.1 188.1,144.8 C188.1,144.5 188.1,144.2 187.9,143.9 C187.8,143.6 187.7,143.4 187.5,143.2 C187.1,142.8 186.6,142.6 186,142.6 C185.7,142.6 185.4,142.7 185.1,142.8 C184.9,142.9 184.6,143.1 184.4,143.3 C184.2,143.5 184.1,143.7 184,144 C183.9,144.3 183.8,144.6 183.8,144.9 C183.8,145.2 183.8,145.5 184,145.8 C184.1,146.1 184.2,146.3 184.4,146.5 C184.6,146.7 184.8,146.9 185.1,147 C185.4,147 185.7,147.1 186,147.1 L186,147.1 Z" id="Shape" fill="#E2E2E4" fill-rule="nonzero"></path>
                <path d="M191.7,142.1 L192.4,142.1 L194.7,147.6 L193.8,147.6 L193.2,146.2 L190.6,146.2 L190.1,147.6 L189.2,147.6 L191.7,142.1 Z M193,145.6 L192,143.1 L192,143.1 L191,145.6 L193,145.6 Z" id="Shape" fill="#E2E2E4" fill-rule="nonzero"></path>
                <path d="M195.3,142.1 L197.2,142.1 C197.5,142.1 197.9,142.1 198.2,142.2 C198.5,142.3 198.7,142.4 199,142.6 C199.2,142.7 199.4,142.9 199.5,143.1 C199.6,143.3 199.7,143.5 199.8,143.7 C199.9,143.9 199.9,144.1 200,144.3 C200,144.5 200,144.7 200,144.9 C200,145.2 199.9,145.6 199.8,145.9 C199.7,146.2 199.5,146.5 199.2,146.8 C198.9,147.1 198.6,147.3 198.3,147.4 C197.9,147.6 197.4,147.6 197,147.6 L195.2,147.6 L195.3,142.1 Z M196.1,146.9 L197,146.9 C197.3,146.9 197.6,146.9 197.9,146.8 C198.2,146.7 198.4,146.6 198.7,146.4 C198.9,146.2 199.1,146 199.2,145.8 C199.3,145.5 199.4,145.2 199.4,144.9 C199.4,144.7 199.4,144.5 199.3,144.3 C199.2,144.1 199.1,143.8 199,143.6 C198.8,143.4 198.6,143.2 198.3,143.1 C198,142.9 197.6,142.9 197.2,142.9 L196.1,142.9 L196.1,146.9 L196.1,146.9 Z" id="Shape" fill="#E2E2E4" fill-rule="nonzero"></path>
                <path d="M87,165.9 C84.4,165.9 82.2,162.5 82.2,158.4 C82.2,154.3 84.3,150.8 87,150.8 C89.7,150.8 91.8,154.2 91.8,158.4 C91.8,162.6 89.6,165.9 87,165.9 Z M87,151.4 C84.7,151.4 82.7,154.6 82.7,158.4 C82.7,162.2 84.6,165.4 87,165.4 C89.4,165.4 91.3,162.2 91.3,158.4 C91.3,154.6 89.3,151.4 87,151.4 L87,151.4 Z" id="Shape" stroke="#E2E2E4" stroke-width="0.25" fill="#E2E2E4" fill-rule="nonzero"></path>
                <rect id="Rectangle" stroke="#E2E2E4" stroke-width="0.25" fill="#E2E2E4" fill-rule="nonzero" x="83" y="161.6" width="7.7" height="1"></rect>
                <path d="M86.6,175.9 L86.3,175.6 C88.1,173.5 86.4,165.9 86.4,165.8 L86.4,161.9 L86.8,161.9 L86.8,165.7 C86.9,166.3 88.4,173.6 86.6,175.9 Z" id="Path" stroke="#E2E2E4" stroke-width="0.25" fill="#E2E2E4" fill-rule="nonzero"></path>
            </g>
        </g>
    </g>
</svg>